# This file uses centimeters as units for non-parametric coordinates.

v 1.000000 2.579953 -0.000000
v 1.000000 2.579953 1.000000
v -0.000000 2.579953 1.000000
v 0.000000 2.579953 -0.000000
v 1.014605 3.000000 1.000000
v -0.014605 3.000000 1.000000
v -0.014605 3.000000 -0.000000
v 1.014605 3.000000 -0.000000
v 1.069198 2.647059 1.000000
v -0.069198 2.647059 1.000000
v -0.069198 2.647059 -0.000000
v 1.069198 2.647059 -0.000000
v 1.101755 -0.000000 -0.000000
v 1.101755 0.000000 1.000000
v -0.101755 -0.000000 1.000000
v -0.101755 -0.000000 -0.000000
v 1.101755 0.396747 -0.000000
v -0.101755 0.396747 -0.000000
v -0.101755 0.396747 1.000000
v 1.101755 0.396747 1.000000
v 1.000000 0.457648 -0.000000
v 0.000000 0.457648 -0.000000
v -0.000000 0.457648 1.000000
v 1.000000 0.457648 1.000000
v 1.063621 0.506434 -0.000000
v -0.063621 0.506434 -0.000000
v -0.063621 0.506434 1.000000
v 1.063621 0.506434 1.000000
v 1.063621 0.617011 -0.000000
v -0.063621 0.617011 -0.000000
v -0.063621 0.617011 1.000000
v 1.063621 0.617011 1.000000
v 1.000000 0.665520 -0.000000
v 0.000000 0.665520 -0.000000
v -0.000000 0.665520 1.000000
v 1.000000 0.665520 1.000000
vt 0.000000 3.016300
vt 1.045832 6.376421
vt 1.046292 6.733559
vt 2.045831 6.375133
vt 0.079185 2.975940
vt 2.248784 3.303842
vt 2.045707 6.278740
vt 1.005906 3.456577
vt 1.246975 1.390355
vt 1.043242 4.365597
vt 2.043242 4.364310
vt 1.031206 5.370842
vt 0.041682 6.170079
vt 1.204718 -0.020630
vt 2.042229 3.578220
vt 2.348101 0.723794
vt 0.000000 0.372434
vt 1.036352 5.760151
vt 1.144966 1.121678
vt 1.042741 3.976254
vt 0.101567 0.433645
vt 1.034784 5.641574
vt 1.246779 1.182482
vt 1.042894 4.094842
vt 0.037797 0.482237
vt 1.033725 5.561408
vt 1.183204 1.231329
vt 1.042997 4.175015
vt 0.037460 0.592813
vt 1.032264 5.450840
vt 1.183308 1.341906
vt 1.043139 4.285592
vt 1.164697 0.596262
vt 1.165035 0.485685
vt 1.101563 0.436704
vt 1.203504 0.376116
vt 1.041595 6.156864
vt 0.999913 3.003085
vt 1.004633 3.360192
vt 0.100932 0.641517
vt 2.043139 4.284305
vt 2.042996 4.173728
vt 2.042893 4.093554
vt 2.042740 3.974967
vt 0.001214 -0.024312
vt 0.095075 2.555941
vt 0.025672 2.622834
vt 2.246975 1.389410
vt 2.310551 1.340841
vt 2.310447 1.230264
vt 2.246779 1.181537
vt 2.348475 1.120541
vt 1.042230 3.579508
vt 1.045708 6.280028
vt 2.318045 3.370882
vt 0.032351 5.464056
vt 0.033812 5.574623
vt 0.034872 5.654789
vt 0.036439 5.773366
vt 1.144592 0.724931
vt 0.005994 3.469792
vt 0.004720 3.373407
vt 1.095070 2.559000
vt 1.100927 0.644576
vt 1.248784 3.304787
vt 0.031294 5.384058
vt 1.164063 2.626317
vt 1.179650 3.371958
vt 0.995771 0.000000
vt 1.234576 3.724848
vt 1.108389 2.979090
vt 0.000000 0.003993
vt 2.263785 3.723875
vt 1.000000 0.996007
vt 2.046291 6.732272
vt 0.004229 1.000000
vn 0.000000 0.000000 1.000000
vn 0.000000 0.000000 1.000000
vn 0.000000 0.000000 1.000000
vn 0.000000 0.000000 1.000000
vn 0.000000 0.000000 1.000000
vn 0.000000 0.000000 1.000000
vn 0.000000 0.000000 -1.000000
vn 0.000000 0.000000 -1.000000
vn 0.000000 0.000000 -1.000000
vn 0.000000 0.000000 -1.000000
vn 0.000000 0.000000 -1.000000
vn 0.000000 0.000000 -1.000000
vn 0.988247 0.152864 0.000000
vn 0.988247 0.152864 0.000000
vn 0.988247 0.152864 0.000000
vn 0.988247 0.152864 0.000000
vn 0.988247 0.152864 0.000000
vn 0.988247 0.152864 0.000000
vn 0.696170 -0.717877 0.000000
vn 0.696170 -0.717877 0.000000
vn 0.696170 -0.717877 0.000000
vn 0.696170 -0.717877 0.000000
vn 0.696170 -0.717877 0.000000
vn 0.696170 -0.717877 0.000000
vn 0.000000 0.000000 1.000000
vn 0.000000 0.000000 1.000000
vn 0.000000 0.000000 1.000000
vn 0.000000 0.000000 1.000000
vn 0.000000 0.000000 1.000000
vn 0.000000 0.000000 1.000000
vn 0.000000 0.000000 -1.000000
vn 0.000000 0.000000 -1.000000
vn 0.000000 0.000000 -1.000000
vn 0.000000 0.000000 -1.000000
vn 0.000000 0.000000 -1.000000
vn 0.000000 0.000000 -1.000000
vn 0.000000 0.000000 1.000000
vn 0.000000 0.000000 1.000000
vn 0.000000 0.000000 1.000000
vn 0.000000 0.000000 1.000000
vn 0.000000 0.000000 1.000000
vn 0.000000 0.000000 1.000000
vn 0.000000 0.000000 -1.000000
vn 0.000000 0.000000 -1.000000
vn 0.000000 0.000000 -1.000000
vn 0.000000 0.000000 -1.000000
vn 0.000000 0.000000 -1.000000
vn 0.000000 0.000000 -1.000000
vn 1.000000 0.000000 0.000000
vn 1.000000 0.000000 0.000000
vn 1.000000 0.000000 0.000000
vn 1.000000 0.000000 0.000000
vn 1.000000 0.000000 0.000000
vn 1.000000 0.000000 0.000000
vn 0.000000 0.000000 -1.000000
vn 0.000000 0.000000 -1.000000
vn 0.000000 0.000000 -1.000000
vn 0.000000 0.000000 -1.000000
vn 0.000000 0.000000 -1.000000
vn 0.000000 0.000000 -1.000000
vn -1.000000 0.000000 0.000000
vn -1.000000 0.000000 0.000000
vn -1.000000 0.000000 0.000000
vn -1.000000 0.000000 0.000000
vn -1.000000 0.000000 0.000000
vn -1.000000 0.000000 0.000000
vn 0.000000 0.000000 1.000000
vn 0.000000 0.000000 1.000000
vn 0.000000 0.000000 1.000000
vn -0.000000 0.000000 1.000000
vn -0.000000 0.000000 1.000000
vn -0.000000 0.000000 1.000000
vn 1.000000 0.000000 0.000000
vn 1.000000 0.000000 0.000000
vn 1.000000 0.000000 0.000000
vn 1.000000 0.000000 0.000000
vn 1.000000 0.000000 0.000000
vn 1.000000 0.000000 0.000000
vn 0.000000 0.000000 -1.000000
vn 0.000000 0.000000 -1.000000
vn 0.000000 0.000000 -1.000000
vn 0.000000 0.000000 -1.000000
vn 0.000000 0.000000 -1.000000
vn 0.000000 0.000000 -1.000000
vn -0.513550 0.858060 0.000000
vn -0.513550 0.858060 0.000000
vn -0.513550 0.858060 0.000000
vn -0.513550 0.858060 0.000000
vn -0.513550 0.858060 0.000000
vn -0.513550 0.858060 0.000000
vn 0.000000 0.000000 1.000000
vn 0.000000 0.000000 1.000000
vn 0.000000 0.000000 1.000000
vn 0.000000 0.000000 1.000000
vn 0.000000 0.000000 1.000000
vn 0.000000 0.000000 1.000000
vn 0.513550 0.858060 0.000000
vn 0.513550 0.858060 0.000000
vn 0.513550 0.858060 0.000000
vn 0.513549 0.858060 0.000000
vn 0.513549 0.858060 0.000000
vn 0.513549 0.858060 0.000000
vn 0.000000 0.000000 -1.000000
vn 0.000000 0.000000 -1.000000
vn 0.000000 0.000000 -1.000000
vn 0.000000 0.000000 -1.000000
vn 0.000000 0.000000 -1.000000
vn 0.000000 0.000000 -1.000000
vn -0.608509 -0.793547 0.000000
vn -0.608509 -0.793547 0.000000
vn -0.608509 -0.793547 0.000000
vn -0.608510 -0.793547 0.000000
vn -0.608510 -0.793547 0.000000
vn -0.608510 -0.793547 0.000000
vn 0.000000 0.000000 1.000000
vn 0.000000 0.000000 1.000000
vn 0.000000 0.000000 1.000000
vn 0.000000 0.000000 1.000000
vn 0.000000 0.000000 1.000000
vn 0.000000 0.000000 1.000000
vn 0.608509 -0.793547 0.000000
vn 0.608509 -0.793547 0.000000
vn 0.608509 -0.793547 0.000000
vn 0.608510 -0.793546 0.000000
vn 0.608510 -0.793546 0.000000
vn 0.608510 -0.793546 0.000000
vn 0.000000 0.000000 -1.000000
vn 0.000000 0.000000 -1.000000
vn 0.000000 0.000000 -1.000000
vn 0.000000 0.000000 -1.000000
vn 0.000000 0.000000 -1.000000
vn 0.000000 0.000000 -1.000000
vn -1.000000 0.000000 -0.000000
vn -1.000000 0.000000 -0.000000
vn -1.000000 0.000000 -0.000000
vn -1.000000 0.000000 -0.000000
vn -1.000000 0.000000 -0.000000
vn -1.000000 0.000000 -0.000000
vn 0.000000 0.000000 1.000000
vn 0.000000 0.000000 1.000000
vn 0.000000 0.000000 1.000000
vn 0.000000 0.000000 1.000000
vn 0.000000 0.000000 1.000000
vn 0.000000 0.000000 1.000000
vn 1.000000 0.000000 0.000000
vn 1.000000 0.000000 0.000000
vn 1.000000 0.000000 0.000000
vn 1.000000 0.000000 0.000000
vn 1.000000 0.000000 0.000000
vn 1.000000 0.000000 0.000000
vn 0.000000 0.000000 -1.000000
vn 0.000000 0.000000 -1.000000
vn 0.000000 0.000000 -1.000000
vn 0.000000 0.000000 -1.000000
vn 0.000000 0.000000 -1.000000
vn 0.000000 0.000000 -1.000000
vn -0.606327 0.795216 -0.000000
vn -0.606327 0.795216 -0.000000
vn -0.606327 0.795216 -0.000000
vn -0.606327 0.795216 0.000000
vn -0.606327 0.795216 0.000000
vn -0.606327 0.795216 0.000000
vn 0.000000 0.000000 1.000000
vn 0.000000 0.000000 1.000000
vn 0.000000 0.000000 1.000000
vn 0.000000 0.000000 1.000000
vn 0.000000 0.000000 1.000000
vn 0.000000 0.000000 1.000000
vn 0.606327 0.795215 0.000000
vn 0.606327 0.795215 0.000000
vn 0.606327 0.795215 0.000000
vn 0.606326 0.795216 0.000000
vn 0.606326 0.795216 0.000000
vn 0.606326 0.795216 0.000000
vn -1.000000 0.000000 -0.000000
vn -1.000000 0.000000 -0.000000
vn -1.000000 0.000000 -0.000000
vn -1.000000 0.000000 -0.000000
vn -1.000000 0.000000 -0.000000
vn -1.000000 0.000000 -0.000000
vn -0.696170 -0.717877 0.000000
vn -0.696170 -0.717877 0.000000
vn -0.696170 -0.717877 0.000000
vn -0.696170 -0.717877 0.000000
vn -0.696170 -0.717877 0.000000
vn -0.696170 -0.717877 0.000000
vn -0.988247 0.152864 0.000000
vn -0.988247 0.152864 0.000000
vn -0.988247 0.152864 0.000000
vn -0.988247 0.152864 0.000000
vn -0.988247 0.152864 0.000000
vn -0.988247 0.152864 0.000000
vn 0.000000 1.000000 0.000000
vn 0.000000 1.000000 0.000000
vn 0.000000 1.000000 0.000000
vn 0.000000 1.000000 0.000000
vn 0.000000 1.000000 0.000000
vn 0.000000 1.000000 0.000000
f 6/70/1 10/68/2 5/73/3
f 5/73/4 10/68/5 9/55/6
f 12/47/7 11/67/8 8/5/9
f 8/5/10 11/67/11 7/71/12
f 9/2/13 12/4/14 5/3/15
f 5/3/16 12/4/17 8/75/18
f 12/4/19 9/2/20 1/7/21
f 1/7/22 9/2/23 2/54/24
f 3/65/25 2/6/26 10/68/27
f 10/68/28 2/6/29 9/55/30
f 1/46/31 4/63/32 12/47/33
f 12/47/34 4/63/35 11/67/36
f 3/65/37 35/9/38 2/6/39
f 2/6/40 35/9/41 36/48/42
f 1/46/43 33/40/44 4/63/45
f 4/63/46 33/40/47 34/64/48
f 36/10/49 33/11/50 2/54/51
f 2/54/52 33/11/53 1/7/54
f 17/17/55 13/45/56 18/36/57
f 18/36/58 13/45/59 16/14/60
f 15/13/61 19/59/62 16/37/63
f 16/37/64 19/59/65 18/18/66
f 20/52/67 19/19/68 14/16/69
f 14/16/70 19/19/71 15/60/72
f 13/15/73 17/44/74 14/53/75
f 14/53/76 17/44/77 20/20/78
f 21/21/79 17/17/80 22/35/81
f 22/35/82 17/17/83 18/36/84
f 19/59/85 23/58/86 18/18/87
f 18/18/88 23/58/89 22/22/90
f 24/51/91 23/23/92 20/52/93
f 20/52/94 23/23/95 19/19/96
f 20/20/97 17/44/98 24/24/99
f 24/24/100 17/44/101 21/43/102
f 25/25/103 21/21/104 26/34/105
f 26/34/106 21/21/107 22/35/108
f 23/58/109 27/57/110 22/22/111
f 22/22/112 27/57/113 26/26/114
f 28/50/115 27/27/116 24/51/117
f 24/51/118 27/27/119 23/23/120
f 24/24/121 21/43/122 28/28/123
f 28/28/124 21/43/125 25/42/126
f 29/29/127 25/25/128 30/33/129
f 30/33/130 25/25/131 26/34/132
f 27/57/133 31/56/134 26/26/135
f 26/26/136 31/56/137 30/30/138
f 32/49/139 31/31/140 28/50/141
f 28/50/142 31/31/143 27/27/144
f 28/28/145 25/42/146 32/32/147
f 32/32/148 25/42/149 29/41/150
f 33/40/151 29/29/152 34/64/153
f 34/64/154 29/29/155 30/33/156
f 31/56/157 35/66/158 30/30/159
f 30/30/160 35/66/161 34/12/162
f 36/48/163 35/9/164 32/49/165
f 32/49/166 35/9/167 31/31/168
f 32/32/169 29/41/170 36/10/171
f 36/10/172 29/41/173 33/11/174
f 35/66/175 3/61/176 34/12/177
f 34/12/178 3/61/179 4/8/180
f 3/61/181 10/62/182 4/8/183
f 4/8/184 10/62/185 11/39/186
f 10/62/187 6/1/188 11/39/189
f 11/39/190 6/1/191 7/38/192
f 5/74/193 8/76/194 6/69/195
f 6/69/196 8/76/197 7/72/198
