# This file uses centimeters as units for non-parametric coordinates.

v 1.000000 2.579953 1.000000
v 0.000000 2.579953 1.000000
v 0.000000 2.579953 0.000000
v 1.000000 2.579953 0.000000
v -0.014605 3.000000 1.000000
v 0.000000 3.000000 -0.014605
v 1.000000 3.000000 -0.014605
v 1.000000 3.000000 1.000000
v -0.069198 2.647059 1.000000
v -0.069198 2.647059 -0.069198
v 1.000000 2.647059 -0.069198
v 1.000000 2.647059 1.000000
v 1.000000 0.000000 1.000000
v -0.101755 0.000000 1.000000
v -0.101755 -0.000000 -0.101755
v 1.000000 0.000000 -0.101755
v 1.000000 0.396747 1.000000
v 1.000000 0.396747 -0.101755
v -0.101755 0.396747 -0.101755
v -0.101755 0.396747 1.000000
v 1.000000 0.457648 1.000000
v 1.000000 0.457648 0.000000
v 0.000000 0.457648 0.000000
v 0.000000 0.457648 1.000000
v 1.000000 0.506434 1.000000
v 1.000000 0.506434 -0.063621
v -0.063621 0.506434 -0.063621
v -0.063621 0.506434 1.000000
v 1.000000 0.617011 1.000000
v 1.000000 0.617011 -0.063621
v -0.063621 0.617011 -0.063621
v -0.063621 0.617011 1.000000
v 1.000000 0.665520 1.000000
v 1.000000 0.665520 0.000000
v 0.000000 0.665520 0.000000
v 0.000000 0.665520 1.000000
vt 0.873575 0.336544
vt 0.012285 0.878227
vt 0.012427 0.988613
vt 0.321370 0.877829
vt 0.737813 0.372677
vt 0.672423 0.837371
vt 0.321331 0.848036
vt 0.981948 0.383978
vt 0.358534 0.237833
vt 0.011485 0.256712
vt 0.320569 0.256314
vt 0.984674 0.590214
vt 0.878066 0.676322
vt 0.861756 0.042696
vt 0.320256 0.013345
vt 0.703542 0.028984
vt 0.729093 0.085980
vt 0.985228 0.632157
vt 0.326573 0.153650
vt 0.011330 0.136372
vt 0.740278 0.092721
vt 0.985059 0.619382
vt 0.358473 0.172701
vt 0.011377 0.173025
vt 0.733256 0.098072
vt 0.984945 0.610745
vt 0.338553 0.188006
vt 0.011409 0.197806
vt 0.733218 0.110248
vt 0.984788 0.598833
vt 0.338586 0.222652
vt 0.011453 0.231983
vt 0.857349 0.110628
vt 0.857387 0.098451
vt 0.850397 0.093058
vt 0.861623 0.086386
vt 0.985793 0.674898
vt 0.981302 0.335120
vt 0.981811 0.373594
vt 0.740208 0.115612
vt 0.320538 0.231585
vt 0.320494 0.197408
vt 0.320462 0.172627
vt 0.320414 0.135974
vt 0.729227 0.042291
vt 0.739563 0.326427
vt 0.731920 0.333793
vt 0.671857 0.237536
vt 0.691776 0.222319
vt 0.691743 0.187672
vt 0.671795 0.172405
vt 0.703659 0.153294
vt 0.011172 0.013743
vt 0.012247 0.848434
vt 0.694124 0.858376
vt 0.877060 0.600257
vt 0.877218 0.612169
vt 0.877332 0.620806
vt 0.877501 0.633581
vt 0.326455 0.029340
vt 0.874221 0.385401
vt 0.874083 0.375017
vt 0.849682 0.326764
vt 0.850327 0.115948
vt 0.359101 0.837667
vt 0.876946 0.591638
vt 0.857279 0.334177
vt 0.337440 0.858713
vt 0.984673 0.700635
vt 0.354650 0.969281
vt 0.851149 0.373024
vt 0.703908 0.701793
vt 0.677124 0.968976
vt 0.985866 0.989601
vt 0.321512 0.988215
vt 0.705100 0.990759
vn -0.980805 0.194482 -0.014118
vn -0.980805 0.194482 -0.014118
vn -0.980805 0.194482 -0.014118
vn -0.988247 0.152864 0.000000
vn -0.988247 0.152864 0.000000
vn -0.988247 0.152864 0.000000
vn 1.000000 0.000000 0.000000
vn 1.000000 0.000000 0.000000
vn 1.000000 0.000000 0.000000
vn 1.000000 0.000000 0.000000
vn 1.000000 0.000000 0.000000
vn 1.000000 0.000000 0.000000
vn 0.000000 0.000000 1.000000
vn 0.000000 0.000000 1.000000
vn 0.000000 0.000000 1.000000
vn 0.000000 0.000000 1.000000
vn 0.000000 0.000000 1.000000
vn 0.000000 0.000000 1.000000
vn 0.000000 0.000001 1.000000
vn 0.000000 0.000001 1.000000
vn 0.000000 0.000001 1.000000
vn 0.000000 0.000000 1.000000
vn 0.000000 0.000000 1.000000
vn 0.000000 0.000000 1.000000
vn -0.696170 -0.717877 0.000000
vn -0.696170 -0.717877 0.000000
vn -0.696170 -0.717877 0.000000
vn -0.696170 -0.717877 0.000000
vn -0.696170 -0.717877 0.000000
vn -0.696170 -0.717877 0.000000
vn 1.000000 0.000002 0.000000
vn 1.000000 0.000002 0.000000
vn 1.000000 0.000002 0.000000
vn 1.000000 -0.000003 0.000000
vn 1.000000 -0.000003 0.000000
vn 1.000000 -0.000003 0.000000
vn -1.000000 0.000000 0.000000
vn -1.000000 0.000000 0.000000
vn -1.000000 0.000000 0.000000
vn -1.000000 0.000000 0.000000
vn -1.000000 0.000000 0.000000
vn -1.000000 0.000000 0.000000
vn 1.000000 0.000000 0.000000
vn 1.000000 0.000000 0.000000
vn 1.000000 0.000000 0.000000
vn 1.000000 0.000000 0.000000
vn 1.000000 0.000000 0.000000
vn 1.000000 0.000000 0.000000
vn 0.000000 0.000000 1.000000
vn 0.000000 0.000000 1.000000
vn 0.000000 0.000000 1.000000
vn 0.000000 0.000000 1.000000
vn 0.000000 0.000000 1.000000
vn 0.000000 0.000000 1.000000
vn 1.000000 0.000000 0.000000
vn 1.000000 0.000000 0.000000
vn 1.000000 0.000000 0.000000
vn 1.000000 0.000000 0.000000
vn 1.000000 0.000000 0.000000
vn 1.000000 0.000000 0.000000
vn -0.000000 0.000000 -1.000000
vn -0.000000 0.000000 -1.000000
vn -0.000000 0.000000 -1.000000
vn 0.000000 0.000000 -1.000000
vn 0.000000 0.000000 -1.000000
vn 0.000000 0.000000 -1.000000
vn -1.000000 0.000000 0.000000
vn -1.000000 0.000000 0.000000
vn -1.000000 0.000000 0.000000
vn -1.000000 0.000000 0.000000
vn -1.000000 0.000000 0.000000
vn -1.000000 0.000000 0.000000
vn 0.000000 0.000000 1.000000
vn 0.000000 0.000000 1.000000
vn 0.000000 0.000000 1.000000
vn 0.000000 0.000000 1.000000
vn 0.000000 0.000000 1.000000
vn 0.000000 0.000000 1.000000
vn 1.000000 0.000000 0.000000
vn 1.000000 0.000000 0.000000
vn 1.000000 0.000000 0.000000
vn 1.000000 0.000000 0.000000
vn 1.000000 0.000000 0.000000
vn 1.000000 0.000000 0.000000
vn 0.000000 0.858060 -0.513550
vn 0.000000 0.858060 -0.513550
vn 0.000000 0.858060 -0.513550
vn 0.000000 0.858060 -0.513550
vn 0.000000 0.858060 -0.513550
vn 0.000000 0.858060 -0.513550
vn -0.513550 0.858060 0.000000
vn -0.513550 0.858060 0.000000
vn -0.513550 0.858060 0.000000
vn -0.513550 0.858060 0.000000
vn -0.513550 0.858060 0.000000
vn -0.513550 0.858060 0.000000
vn 0.000000 -0.000000 1.000000
vn 0.000000 -0.000000 1.000000
vn 0.000000 -0.000000 1.000000
vn 0.000000 -0.000001 1.000000
vn 0.000000 -0.000001 1.000000
vn 0.000000 -0.000001 1.000000
vn 1.000000 -0.000005 0.000000
vn 1.000000 -0.000005 0.000000
vn 1.000000 -0.000005 0.000000
vn 1.000000 0.000001 0.000000
vn 1.000000 0.000001 0.000000
vn 1.000000 0.000001 0.000000
vn 0.000000 -0.793547 -0.608509
vn 0.000000 -0.793547 -0.608509
vn 0.000000 -0.793547 -0.608509
vn 0.000000 -0.793546 -0.608510
vn 0.000000 -0.793546 -0.608510
vn 0.000000 -0.793546 -0.608510
vn -0.608510 -0.793546 0.000000
vn -0.608510 -0.793547 0.000000
vn -0.608510 -0.793546 0.000000
vn -0.608510 -0.793547 0.000000
vn -0.608510 -0.793547 0.000000
vn -0.608510 -0.793547 0.000000
vn 0.000000 0.000000 1.000000
vn 0.000000 0.000000 1.000000
vn 0.000000 0.000000 1.000000
vn 0.000000 0.000001 1.000000
vn 0.000000 0.000001 1.000000
vn 0.000000 0.000001 1.000000
vn 1.000000 0.000000 0.000000
vn 1.000000 0.000000 0.000000
vn 1.000000 0.000000 0.000000
vn 1.000000 0.000000 0.000000
vn 1.000000 0.000000 0.000000
vn 1.000000 0.000000 0.000000
vn 0.000000 0.000000 -1.000000
vn 0.000000 0.000000 -1.000000
vn 0.000000 0.000000 -1.000000
vn 0.000000 0.000000 -1.000000
vn 0.000000 0.000000 -1.000000
vn 0.000000 0.000000 -1.000000
vn -1.000000 0.000000 0.000000
vn -1.000000 0.000000 0.000000
vn -1.000000 0.000000 0.000000
vn -1.000000 0.000000 0.000000
vn -1.000000 0.000000 0.000000
vn -1.000000 0.000000 0.000000
vn 0.000000 0.000000 1.000000
vn 0.000000 0.000000 1.000000
vn 0.000000 0.000000 1.000000
vn 0.000000 0.000000 1.000000
vn 0.000000 0.000000 1.000000
vn 0.000000 0.000000 1.000000
vn 1.000000 0.000000 0.000000
vn 1.000000 0.000000 0.000000
vn 1.000000 0.000000 0.000000
vn 1.000000 0.000003 0.000000
vn 1.000000 0.000003 0.000000
vn 1.000000 0.000003 0.000000
vn 0.000000 0.795216 -0.606327
vn 0.000000 0.795216 -0.606327
vn 0.000000 0.795216 -0.606327
vn 0.000000 0.795216 -0.606326
vn 0.000000 0.795216 -0.606326
vn 0.000000 0.795216 -0.606326
vn -0.606327 0.795216 0.000000
vn -0.606327 0.795216 0.000000
vn -0.606327 0.795216 0.000000
vn -0.606327 0.795216 0.000000
vn -0.606327 0.795216 0.000000
vn -0.606327 0.795216 0.000000
vn 0.000000 -0.000000 1.000000
vn 0.000000 -0.000000 1.000000
vn 0.000000 -0.000000 1.000000
vn 0.000000 -0.000001 1.000000
vn 0.000000 -0.000001 1.000000
vn 0.000000 -0.000001 1.000000
vn 0.000000 0.000000 -1.000000
vn 0.000000 0.000000 -1.000000
vn 0.000000 0.000000 -1.000000
vn -0.000000 -0.000000 -1.000000
vn -0.000000 -0.000000 -1.000000
vn -0.000000 -0.000000 -1.000000
vn 0.000000 -0.717877 -0.696170
vn 0.000000 -0.717877 -0.696170
vn 0.000000 -0.717877 -0.696170
vn 0.000000 -0.717878 -0.696169
vn 0.000000 -0.717878 -0.696169
vn 0.000000 -0.717878 -0.696169
vn 0.000000 0.152864 -0.988247
vn 0.000000 0.152864 -0.988247
vn 0.000000 0.152864 -0.988247
vn 0.000000 0.152864 -0.988247
vn 0.000000 0.152864 -0.988247
vn 0.000000 0.152864 -0.988247
vn 0.000000 1.000000 0.000000
vn 0.000000 1.000000 0.000000
vn 0.000000 1.000000 0.000000
vn 0.000000 1.000000 0.000000
vn 0.000000 1.000000 0.000000
vn 0.000000 1.000000 0.000000
f 6/70/1 10/68/2 5/73/3
f 5/73/4 10/68/5 9/55/6
f 12/47/7 11/67/8 8/5/9
f 8/5/10 11/67/11 7/71/12
f 9/2/13 12/4/14 5/3/15
f 5/3/16 12/4/17 8/75/18
f 12/4/19 9/2/20 1/7/21
f 1/7/22 9/2/23 2/54/24
f 3/65/25 2/6/26 10/68/27
f 10/68/28 2/6/29 9/55/30
f 1/46/31 4/63/32 12/47/33
f 12/47/34 4/63/35 11/67/36
f 3/65/37 35/9/38 2/6/39
f 2/6/40 35/9/41 36/48/42
f 1/46/43 33/40/44 4/63/45
f 4/63/46 33/40/47 34/64/48
f 36/10/49 33/11/50 2/54/51
f 2/54/52 33/11/53 1/7/54
f 17/17/55 13/45/56 18/36/57
f 18/36/58 13/45/59 16/14/60
f 15/13/61 19/59/62 16/37/63
f 16/37/64 19/59/65 18/18/66
f 20/52/67 19/19/68 14/16/69
f 14/16/70 19/19/71 15/60/72
f 13/15/73 17/44/74 14/53/75
f 14/53/76 17/44/77 20/20/78
f 21/21/79 17/17/80 22/35/81
f 22/35/82 17/17/83 18/36/84
f 19/59/85 23/58/86 18/18/87
f 18/18/88 23/58/89 22/22/90
f 24/51/91 23/23/92 20/52/93
f 20/52/94 23/23/95 19/19/96
f 20/20/97 17/44/98 24/24/99
f 24/24/100 17/44/101 21/43/102
f 25/25/103 21/21/104 26/34/105
f 26/34/106 21/21/107 22/35/108
f 23/58/109 27/57/110 22/22/111
f 22/22/112 27/57/113 26/26/114
f 28/50/115 27/27/116 24/51/117
f 24/51/118 27/27/119 23/23/120
f 24/24/121 21/43/122 28/28/123
f 28/28/124 21/43/125 25/42/126
f 29/29/127 25/25/128 30/33/129
f 30/33/130 25/25/131 26/34/132
f 27/57/133 31/56/134 26/26/135
f 26/26/136 31/56/137 30/30/138
f 32/49/139 31/31/140 28/50/141
f 28/50/142 31/31/143 27/27/144
f 28/28/145 25/42/146 32/32/147
f 32/32/148 25/42/149 29/41/150
f 33/40/151 29/29/152 34/64/153
f 34/64/154 29/29/155 30/33/156
f 31/56/157 35/66/158 30/30/159
f 30/30/160 35/66/161 34/12/162
f 36/48/163 35/9/164 32/49/165
f 32/49/166 35/9/167 31/31/168
f 32/32/169 29/41/170 36/10/171
f 36/10/172 29/41/173 33/11/174
f 35/66/175 3/61/176 34/12/177
f 34/12/178 3/61/179 4/8/180
f 3/61/181 10/62/182 4/8/183
f 4/8/184 10/62/185 11/39/186
f 10/62/187 6/1/188 11/39/189
f 11/39/190 6/1/191 7/38/192
f 5/74/193 8/76/194 6/69/195
f 6/69/196 8/76/197 7/72/198
