# This file uses centimeters as units for non-parametric coordinates.

v 1.000000 2.579953 0.000000
v 1.000000 2.579953 1.000000
v -0.000000 2.579953 1.000000
v 0.000000 2.579953 0.000000
v 1.014605 3.000000 1.000000
v -0.014605 3.000000 1.000000
v -0.014605 3.000000 0.000000
v 1.014605 3.000000 0.000000
v 1.069198 2.647059 1.000000
v -0.069198 2.647059 1.000000
v -0.069198 2.647059 0.000000
v 1.069198 2.647059 0.000000
v 1.101755 0.000000 0.000000
v 1.101755 0.000000 1.000000
v -0.101755 -0.000000 1.000000
v -0.101755 -0.000000 0.000000
v 1.101755 0.396747 0.000000
v -0.101755 0.396747 0.000000
v -0.101755 0.396747 1.000000
v 1.101755 0.396747 1.000000
v 1.000000 0.457648 0.000000
v 0.000000 0.457648 0.000000
v -0.000000 0.457648 1.000000
v 1.000000 0.457648 1.000000
v 1.063621 0.506434 0.000000
v -0.063621 0.506434 0.000000
v -0.063621 0.506434 1.000000
v 1.063621 0.506434 1.000000
v 1.063621 0.617011 0.000000
v -0.063621 0.617011 0.000000
v -0.063621 0.617011 1.000000
v 1.063621 0.617011 1.000000
v 1.000000 0.665520 0.000000
v 0.000000 0.665520 0.000000
v -0.000000 0.665520 1.000000
v 1.000000 0.665520 1.000000
v -0.014605 3.000000 0.505981
v -0.069198 2.647059 0.505981
v 0.000000 0.665520 0.203452
v -0.000000 0.665520 0.796548
v 1.014605 3.000000 0.513328
v 1.069198 2.647059 0.513328
v 1.000000 0.665520 0.796548
v 1.000000 0.665520 0.203452
v 1.000000 1.901297 0.203452
v 1.000000 1.901297 0.000000
v 0.000000 1.901297 0.000000
v 0.000000 1.901297 0.203452
v -0.000000 1.901297 0.796548
v -0.000000 1.901297 1.000000
v 1.000000 1.901297 1.000000
v 1.000000 1.901297 0.796548
v 1.000000 2.305194 0.261114
v 0.000000 2.305194 0.261114
v 0.000000 2.305194 0.738886
v 1.000000 2.305194 0.738886
v 1.000000 2.579953 0.513328
v 1.000000 2.497517 0.513328
v 0.000000 2.579953 0.505981
v 0.000000 2.497517 0.505981
vt 1.000000 2.993764
vt 1.000000 2.993689
vt 0.017588 2.569529
vt 0.017381 2.569518
vt 0.082877 0.674615
vt 0.005059 0.752377
vt 0.979699 0.000000
vt 0.961967 0.170359
vt 1.000000 0.018072
vt 0.982042 0.376575
vt 0.002553 0.382820
vt 0.000000 0.405831
vt 0.982814 0.489133
vt 0.003316 0.495381
vt 0.084026 0.467258
vt 0.983337 0.565230
vt 0.003833 0.571480
vt 0.031009 0.515500
vt 0.984057 0.670185
vt 0.004544 0.676437
vt 0.030398 0.625803
vt 0.934791 0.741337
vt 0.934407 0.639038
vt 0.885323 0.594170
vt 0.963345 0.537404
vt 0.000000 0.006236
vt 0.020300 3.000000
vt 0.018001 2.661012
vt 0.117200 0.790658
vt 0.979459 0.000000
vt 0.997046 2.563217
vt 0.997674 2.654709
vt 0.005120 0.752434
vt 0.004599 0.676497
vt 0.003878 0.571541
vt 0.003357 0.495444
vt 0.002584 0.382886
vt 0.018216 2.661021
vt 0.911158 3.010066
vt 0.984244 0.670202
vt 0.983533 0.565244
vt 0.983016 0.489145
vt 0.982253 0.376584
vt 0.002194 0.010066
vt 0.997081 2.563282
vt 0.997702 2.654776
vt 0.998473 0.504325
vt 0.513712 2.657856
vt 2.163113 1.238251
vt 2.182603 1.784527
vt 0.001586 0.514921
vt 0.494891 2.657949
vt 0.705920 1.804515
vt 0.000000 0.006311
vt 0.686428 1.258239
vt 0.645818 0.120022
vt 0.121492 1.933918
vt 0.013013 1.925351
vt 2.122504 0.100031
vt 2.223215 2.922745
vt 0.076044 1.907333
vt 0.013168 1.925379
vt 0.746531 2.942734
vt 0.632410 -0.255762
vt 2.109096 -0.275752
vt 2.236623 3.298529
vt 0.759938 3.318517
vt 0.494263 2.566457
vt 0.769680 3.591537
vt 0.513091 2.566362
vt 2.098866 -0.562536
vt 0.512560 2.488116
vt 0.739499 2.304114
vt 0.493727 2.488212
vt 0.739507 2.304076
vt 0.271549 2.307091
vt 0.212441 1.924094
vt 0.271426 2.307093
vt 0.793392 1.920384
vt 0.212334 1.924082
vt 0.793354 1.920351
vt 0.204392 0.751150
vt 0.785438 0.747409
vt 0.204381 0.751108
vt 0.785305 0.747406
vt 0.905124 1.913985
vt 0.992713 1.919115
vt 0.890336 1.929740
vt 0.992626 1.919067
vt 0.911956 0.681268
vt 0.984759 0.746141
vt 0.886044 0.786480
vt 0.984578 0.746122
vt 0.964972 0.633302
vt 0.068117 0.746047
vt 0.965584 0.522999
vt 0.067733 0.643748
vt 0.913106 0.473909
vt 0.116478 0.598348
vt 0.997806 0.413837
vt 0.038033 0.542432
vt 0.036655 0.175388
vt 0.892693 2.557588
vt 0.072292 2.584309
vt 0.901372 2.590961
vt 0.123848 2.561766
vt 0.946128 2.619381
vt 0.070878 2.624137
vt 0.014550 2.650788
vt 0.958371 2.658361
vt 2.246566 3.576732
vt 0.621972 -0.547899
vt 0.497217 2.996929
vt 0.003090 1.000000
vt 0.020542 3.000000
vt 0.000000 0.003273
vt 0.516010 2.996845
vt 0.905380 2.946127
vt 1.000000 0.996727
vt 0.057860 3.003219
vt 0.114078 2.950428
vt 0.996909 0.000000
vn 0.000000 0.000000 1.000000
vn 0.000000 0.000000 1.000000
vn 0.000000 0.000000 1.000000
vn 0.000000 0.000000 1.000000
vn 0.000000 0.000000 1.000000
vn 0.000000 0.000000 1.000000
vn -0.000000 -0.000000 -1.000000
vn -0.000000 -0.000000 -1.000000
vn -0.000000 -0.000000 -1.000000
vn -0.000000 0.000000 -1.000000
vn -0.000000 0.000000 -1.000000
vn -0.000000 0.000000 -1.000000
vn 0.000000 0.000000 1.000000
vn 0.000000 0.000000 1.000000
vn 0.000000 0.000000 1.000000
vn 0.000000 0.000000 1.000000
vn 0.000000 0.000000 1.000000
vn 0.000000 0.000000 1.000000
vn -0.000000 0.000000 -1.000000
vn -0.000000 0.000000 -1.000000
vn -0.000000 0.000000 -1.000000
vn -0.000000 -0.000000 -1.000000
vn -0.000000 -0.000000 -1.000000
vn -0.000000 -0.000000 -1.000000
vn 0.000000 0.000000 1.000000
vn 0.000000 0.000000 1.000000
vn 0.000000 0.000000 1.000000
vn 0.000000 0.000000 1.000000
vn 0.000000 0.000000 1.000000
vn 0.000000 0.000000 1.000000
vn -0.000000 0.000000 -1.000000
vn -0.000000 0.000000 -1.000000
vn -0.000000 0.000000 -1.000000
vn -0.000000 0.000000 -1.000000
vn -0.000000 0.000000 -1.000000
vn -0.000000 0.000000 -1.000000
vn -0.000000 0.000000 -1.000000
vn -0.000000 0.000000 -1.000000
vn -0.000000 0.000000 -1.000000
vn -0.000000 0.000000 -1.000000
vn -0.000000 0.000000 -1.000000
vn -0.000000 0.000000 -1.000000
vn 0.000000 0.000000 1.000000
vn 0.000000 0.000000 1.000000
vn 0.000000 0.000000 1.000000
vn -0.000000 0.000000 1.000000
vn -0.000000 0.000000 1.000000
vn -0.000000 0.000000 1.000000
vn -0.000000 -0.000000 -1.000000
vn -0.000000 -0.000000 -1.000000
vn -0.000000 -0.000000 -1.000000
vn -0.000000 0.000000 -1.000000
vn -0.000000 0.000000 -1.000000
vn -0.000000 0.000000 -1.000000
vn 0.000000 0.000000 1.000000
vn 0.000000 0.000000 1.000000
vn 0.000000 0.000000 1.000000
vn 0.000000 0.000000 1.000000
vn 0.000000 0.000000 1.000000
vn 0.000000 0.000000 1.000000
vn -0.000000 0.000000 -1.000000
vn -0.000000 0.000000 -1.000000
vn -0.000000 0.000000 -1.000000
vn -0.000000 -0.000000 -1.000000
vn -0.000000 -0.000000 -1.000000
vn -0.000000 -0.000000 -1.000000
vn 0.000000 0.000000 1.000000
vn 0.000000 0.000000 1.000000
vn 0.000000 0.000000 1.000000
vn 0.000000 0.000000 1.000000
vn 0.000000 0.000000 1.000000
vn 0.000000 0.000000 1.000000
vn -0.000000 0.000000 -1.000000
vn -0.000000 0.000000 -1.000000
vn -0.000000 0.000000 -1.000000
vn -0.000000 0.000000 -1.000000
vn -0.000000 0.000000 -1.000000
vn -0.000000 0.000000 -1.000000
vn 0.000000 0.000000 1.000000
vn 0.000000 0.000000 1.000000
vn 0.000000 0.000000 1.000000
vn 0.000000 0.000000 1.000000
vn 0.000000 0.000000 1.000000
vn 0.000000 0.000000 1.000000
vn -0.000000 -0.000000 -1.000000
vn -0.000000 -0.000000 -1.000000
vn -0.000000 -0.000000 -1.000000
vn -0.000000 0.000000 -1.000000
vn -0.000000 0.000000 -1.000000
vn -0.000000 0.000000 -1.000000
vn -0.606327 0.795216 0.000000
vn -0.606327 0.795216 0.000000
vn -0.606327 0.795216 0.000000
vn 0.000000 0.000000 1.000000
vn 0.000000 0.000000 1.000000
vn 0.000000 0.000000 1.000000
vn 0.000000 0.000000 1.000000
vn 0.000000 0.000000 1.000000
vn 0.000000 0.000000 1.000000
vn -1.000000 0.000000 -0.000000
vn -1.000000 0.000000 -0.000000
vn -1.000000 0.000000 -0.000000
vn -0.696170 -0.717877 0.000000
vn -0.696170 -0.717877 0.000000
vn -0.696170 -0.717877 0.000000
vn -0.988247 0.152864 -0.000000
vn -0.988247 0.152864 -0.000000
vn -0.988247 0.152864 -0.000000
vn -0.988247 0.152864 0.000000
vn -0.988247 0.152864 0.000000
vn -0.988247 0.152864 0.000000
vn -0.988247 0.152864 0.000000
vn -0.988247 0.152864 0.000000
vn -0.988247 0.152864 0.000000
vn -0.988247 0.152864 0.000000
vn -0.988247 0.152864 0.000000
vn -0.988247 0.152864 0.000000
vn -0.696170 -0.717877 0.000000
vn -0.696170 -0.717877 0.000000
vn -0.696170 -0.717877 0.000000
vn -1.000000 0.000000 0.000000
vn -1.000000 0.000000 0.000000
vn -1.000000 0.000000 0.000000
vn -0.606327 0.795216 0.000000
vn -0.606327 0.795216 0.000000
vn -0.606327 0.795216 0.000000
vn -0.696170 -0.717877 0.000000
vn -0.696170 -0.717877 0.000000
vn -0.696170 -0.717877 0.000000
vn -1.000000 -0.000000 -0.000000
vn -1.000000 -0.000000 -0.000000
vn -1.000000 -0.000000 -0.000000
vn -1.000000 0.000000 0.000000
vn -1.000000 0.000000 0.000000
vn -1.000000 0.000000 0.000000
vn -0.606327 0.795216 -0.000000
vn -0.606327 0.795216 -0.000000
vn -0.606327 0.795216 -0.000000
vn -0.606327 0.795216 -0.000000
vn -0.606327 0.795216 -0.000000
vn -0.606327 0.795216 -0.000000
vn -1.000000 0.000000 -0.000000
vn -1.000000 0.000000 -0.000000
vn -1.000000 0.000000 -0.000000
vn -1.000000 0.000000 -0.000000
vn -1.000000 0.000000 -0.000000
vn -1.000000 0.000000 -0.000000
vn -0.608509 -0.793547 -0.000000
vn -0.608509 -0.793547 -0.000000
vn -0.608509 -0.793547 -0.000000
vn -0.608510 -0.793547 0.000000
vn -0.608510 -0.793547 0.000000
vn -0.608510 -0.793547 0.000000
vn -0.513550 0.858060 0.000000
vn -0.513550 0.858060 0.000000
vn -0.513550 0.858060 0.000000
vn -0.513550 0.858060 0.000000
vn -0.513550 0.858060 0.000000
vn -0.513550 0.858060 0.000000
vn -1.000000 0.000000 0.000000
vn -1.000000 0.000000 0.000000
vn -1.000000 0.000000 0.000000
vn -1.000000 0.000000 0.000000
vn -1.000000 0.000000 0.000000
vn -1.000000 0.000000 0.000000
vn 0.606326 0.795216 0.000000
vn 0.606326 0.795216 0.000000
vn 0.606326 0.795216 0.000000
vn 1.000000 0.000000 0.000000
vn 1.000000 0.000000 0.000000
vn 1.000000 0.000000 0.000000
vn 0.696169 -0.717878 0.000000
vn 0.696169 -0.717878 0.000000
vn 0.696169 -0.717878 0.000000
vn 0.988247 0.152864 0.000000
vn 0.988247 0.152864 0.000000
vn 0.988247 0.152864 0.000000
vn 0.988247 0.152864 0.000000
vn 0.988247 0.152864 0.000000
vn 0.988247 0.152864 0.000000
vn 0.988247 0.152864 0.000000
vn 0.988247 0.152864 0.000000
vn 0.988247 0.152864 0.000000
vn 0.988247 0.152864 0.000000
vn 0.988247 0.152864 0.000000
vn 0.988247 0.152864 0.000000
vn 0.696171 -0.717876 0.000000
vn 0.696171 -0.717876 0.000000
vn 0.696171 -0.717876 0.000000
vn 1.000000 0.000000 0.000000
vn 1.000000 0.000000 0.000000
vn 1.000000 0.000000 0.000000
vn 0.606326 0.795216 0.000000
vn 0.606326 0.795216 0.000000
vn 0.606326 0.795216 0.000000
vn 0.696171 -0.717876 0.000000
vn 0.696171 -0.717876 0.000000
vn 0.696171 -0.717876 0.000000
vn 1.000000 0.000000 0.000000
vn 1.000000 0.000000 0.000000
vn 1.000000 0.000000 0.000000
vn 1.000000 0.000000 0.000000
vn 1.000000 0.000000 0.000000
vn 1.000000 0.000000 0.000000
vn 0.606327 0.795215 0.000000
vn 0.606327 0.795215 0.000000
vn 0.606327 0.795215 0.000000
vn 0.606326 0.795217 0.000000
vn 0.606326 0.795217 0.000000
vn 0.606326 0.795217 0.000000
vn 1.000000 0.000000 0.000000
vn 1.000000 0.000000 0.000000
vn 1.000000 0.000000 0.000000
vn 1.000000 0.000000 0.000000
vn 1.000000 0.000000 0.000000
vn 1.000000 0.000000 0.000000
vn 0.608509 -0.793547 0.000000
vn 0.608509 -0.793547 0.000000
vn 0.608509 -0.793547 0.000000
vn 0.608510 -0.793546 0.000000
vn 0.608510 -0.793546 0.000000
vn 0.608510 -0.793546 0.000000
vn 0.513550 0.858060 0.000000
vn 0.513550 0.858060 0.000000
vn 0.513550 0.858060 0.000000
vn 0.513549 0.858060 0.000000
vn 0.513549 0.858060 0.000000
vn 0.513549 0.858060 0.000000
vn 1.000000 0.000000 0.000000
vn 1.000000 0.000000 0.000000
vn 1.000000 0.000000 0.000000
vn 1.000000 0.000000 0.000000
vn 1.000000 0.000000 0.000000
vn 1.000000 0.000000 0.000000
vn 1.000000 0.000000 0.000000
vn 1.000000 0.000000 0.000000
vn 1.000000 0.000000 0.000000
vn 1.000000 0.000000 0.000000
vn 1.000000 0.000000 0.000000
vn 1.000000 0.000000 0.000000
vn -0.000000 0.000000 -1.000000
vn -0.000000 0.000000 -1.000000
vn -0.000000 0.000000 -1.000000
vn -0.000000 0.000000 -1.000000
vn -0.000000 0.000000 -1.000000
vn -0.000000 0.000000 -1.000000
vn -1.000000 0.000000 0.000000
vn -1.000000 0.000000 0.000000
vn -1.000000 0.000000 0.000000
vn -1.000000 0.000000 0.000000
vn -1.000000 0.000000 0.000000
vn -1.000000 0.000000 0.000000
vn -1.000000 0.000000 0.000000
vn -1.000000 0.000000 0.000000
vn -1.000000 0.000000 0.000000
vn -1.000000 0.000000 0.000000
vn -1.000000 0.000000 0.000000
vn -1.000000 0.000000 0.000000
vn 0.000000 0.000000 1.000000
vn 0.000000 0.000000 1.000000
vn 0.000000 0.000000 1.000000
vn 0.000000 0.000000 1.000000
vn 0.000000 0.000000 1.000000
vn 0.000000 0.000000 1.000000
vn 1.000000 0.000000 0.000000
vn 1.000000 0.000000 0.000000
vn 1.000000 0.000000 0.000000
vn 1.000000 0.000000 0.000000
vn 1.000000 0.000000 0.000000
vn 1.000000 0.000000 0.000000
vn 1.000000 0.000000 0.000000
vn 1.000000 0.000000 0.000000
vn 1.000000 0.000000 0.000000
vn -1.000000 0.000000 0.000000
vn -1.000000 0.000000 0.000000
vn -1.000000 0.000000 0.000000
vn -1.000000 0.000000 0.000000
vn -1.000000 0.000000 0.000000
vn -1.000000 0.000000 0.000000
vn 1.000000 0.000000 0.000000
vn 1.000000 0.000000 0.000000
vn 1.000000 0.000000 0.000000
vn 0.696170 -0.717877 0.000000
vn 0.696170 -0.717877 0.000000
vn 0.696170 -0.717877 0.000000
vn 1.000000 0.000000 0.000000
vn 1.000000 0.000000 0.000000
vn 1.000000 0.000000 0.000000
vn 1.000000 0.000000 0.000000
vn 1.000000 0.000000 0.000000
vn 1.000000 0.000000 0.000000
vn -0.696170 -0.717877 0.000000
vn -0.696170 -0.717877 0.000000
vn -0.696170 -0.717877 0.000000
vn -1.000000 0.000000 0.000000
vn -1.000000 0.000000 0.000000
vn -1.000000 0.000000 0.000000
vn -1.000000 0.000000 0.000000
vn -1.000000 0.000000 0.000000
vn -1.000000 0.000000 0.000000
vn 0.000000 0.000000 -1.000000
vn 0.000000 0.000000 -1.000000
vn 0.000000 0.000000 -1.000000
vn 0.000000 0.000000 -1.000000
vn 0.000000 0.000000 -1.000000
vn 0.000000 0.000000 -1.000000
vn 0.000000 -0.141332 -0.989962
vn 0.000000 -0.141332 -0.989962
vn 0.000000 -0.141332 -0.989962
vn 0.000000 -0.141331 -0.989962
vn 0.000000 -0.141331 -0.989962
vn 0.000000 -0.141331 -0.989962
vn 0.004677 -0.771078 -0.636724
vn 0.004677 -0.771078 -0.636724
vn 0.004677 -0.771078 -0.636724
vn 0.000000 -0.760943 -0.648818
vn 0.000000 -0.760943 -0.648818
vn 0.000000 -0.760943 -0.648818
vn 0.000000 -0.786432 0.617677
vn 0.000000 -0.786432 0.617677
vn 0.000000 -0.786432 0.617677
vn -0.004454 -0.795181 0.606356
vn -0.004454 -0.795181 0.606356
vn -0.004454 -0.795181 0.606356
vn 0.000000 -0.141333 0.989962
vn 0.000000 -0.141332 0.989962
vn 0.000000 -0.141333 0.989962
vn 0.000000 -0.141331 0.989962
vn 0.000000 -0.141331 0.989962
vn 0.000000 -0.141331 0.989962
vn 0.000000 0.000000 1.000000
vn 0.000000 0.000000 1.000000
vn 0.000000 0.000000 1.000000
vn 0.000000 0.000000 1.000000
vn 0.000000 0.000000 1.000000
vn 0.000000 0.000000 1.000000
vn 0.000000 1.000000 0.000000
vn 0.000000 1.000000 0.000000
vn 0.000000 1.000000 0.000000
vn 0.000000 1.000000 0.000000
vn 0.000000 1.000000 0.000000
vn 0.000000 1.000000 0.000000
vn 0.000000 1.000000 0.000000
vn 0.000000 1.000000 0.000000
vn 0.000000 1.000000 0.000000
vn 0.000000 1.000000 0.000000
vn 0.000000 1.000000 0.000000
vn 0.000000 1.000000 0.000000
vn 0.000000 1.000000 0.000000
vn 0.000000 1.000000 0.000000
vn 0.000000 1.000000 0.000000
vn 0.000000 1.000000 0.000000
vn 0.000000 1.000000 0.000000
vn 0.000000 1.000000 0.000000
f 6/120/1 10/109/2 5/39/3
f 5/39/4 10/109/5 9/110/6
f 12/108/7 11/107/8 8/121/9
f 8/121/10 11/107/11 7/118/12
f 3/104/13 2/105/14 10/109/15
f 10/109/16 2/105/17 9/110/18
f 1/106/19 4/103/20 12/108/21
f 12/108/22 4/103/23 11/107/24
f 3/104/25 50/61/26 2/105/27
f 2/105/28 50/61/29 51/86/30
f 1/106/31 46/57/32 4/103/33
f 4/103/34 46/57/35 47/88/36
f 17/101/37 13/102/38 18/25/39
f 18/25/40 13/102/41 16/8/42
f 20/100/43 19/12/44 14/9/45
f 14/9/46 19/12/47 15/44/48
f 21/99/49 17/101/50 22/24/51
f 22/24/52 17/101/53 18/25/54
f 24/98/55 23/15/56 20/100/57
f 20/100/58 23/15/59 19/12/60
f 25/97/61 21/99/62 26/23/63
f 26/23/64 21/99/65 22/24/66
f 28/96/67 27/18/68 24/98/69
f 24/98/70 27/18/71 23/15/72
f 29/95/73 25/97/74 30/22/75
f 30/22/76 25/97/77 26/23/78
f 32/94/79 31/21/80 28/96/81
f 28/96/82 31/21/83 27/18/84
f 33/29/85 29/95/86 34/92/87
f 34/92/88 29/95/89 30/22/90
f 31/40/91 35/91/92 40/83/93
f 36/90/94 35/5/95 32/94/96
f 32/94/97 35/5/98 31/21/99
f 50/87/100 3/45/101 55/73/102
f 3/45/103 10/46/104 38/48/105
f 10/46/106 6/1/107 38/48/108
f 38/48/109 6/1/110 37/117/111
f 38/48/112 37/117/113 11/28/114
f 11/28/115 37/117/116 7/27/117
f 4/4/118 38/48/119 11/28/120
f 54/78/121 4/4/122 47/58/123
f 30/20/124 39/84/125 34/6/126
f 3/45/127 38/48/128 59/70/129
f 3/45/130 59/70/131 55/73/132
f 55/73/133 59/70/134 60/72/135
f 31/40/136 40/83/137 30/20/138
f 30/20/139 40/83/140 39/84/141
f 27/41/142 31/40/143 26/17/144
f 26/17/145 31/40/146 30/20/147
f 23/42/148 27/41/149 22/14/150
f 22/14/151 27/41/152 26/17/153
f 19/43/154 23/42/155 18/11/156
f 18/11/157 23/42/158 22/14/159
f 16/26/160 15/7/161 18/11/162
f 18/11/163 15/7/164 19/43/165
f 29/19/166 33/93/167 44/85/168
f 46/89/169 1/31/170 53/75/171
f 1/31/172 12/32/173 42/52/174
f 12/32/175 8/2/176 42/52/177
f 42/52/178 8/2/179 41/113/180
f 42/52/181 41/113/182 9/38/183
f 9/38/184 41/113/185 5/115/186
f 2/3/187 42/52/188 9/38/189
f 56/76/190 2/3/191 51/62/192
f 32/34/193 43/82/194 36/33/195
f 1/31/196 42/52/197 57/68/198
f 58/74/199 53/75/200 57/68/201
f 57/68/202 53/75/203 1/31/204
f 29/19/205 44/85/206 32/34/207
f 32/34/208 44/85/209 43/82/210
f 25/16/211 29/19/212 28/35/213
f 28/35/214 29/19/215 32/34/216
f 21/13/217 25/16/218 24/36/219
f 24/36/220 25/16/221 28/35/222
f 17/10/223 21/13/224 20/37/225
f 20/37/226 21/13/227 24/36/228
f 13/30/229 17/10/230 14/54/231
f 14/54/232 17/10/233 20/37/234
f 33/93/235 46/89/236 44/85/237
f 44/85/238 46/89/239 45/81/240
f 47/88/241 46/57/242 34/92/243
f 34/92/244 46/57/245 33/29/246
f 39/84/247 48/80/248 34/6/249
f 34/6/250 48/80/251 47/58/252
f 35/91/253 50/87/254 40/83/255
f 40/83/256 50/87/257 49/79/258
f 51/86/259 50/61/260 36/90/261
f 36/90/262 50/61/263 35/5/264
f 43/82/265 52/77/266 36/33/267
f 36/33/268 52/77/269 51/62/270
f 46/89/271 53/75/272 45/81/273
f 48/80/274 54/78/275 47/58/276
f 50/87/277 55/73/278 49/79/279
f 52/77/280 56/76/281 51/62/282
f 57/68/283 42/52/284 2/3/285
f 57/68/286 2/3/287 58/74/288
f 56/76/289 58/74/290 2/3/291
f 59/70/292 38/48/293 4/4/294
f 60/72/295 59/70/296 54/78/297
f 54/78/298 59/70/299 4/4/300
f 40/50/301 49/60/302 43/53/303
f 43/53/304 49/60/305 52/63/306
f 49/60/307 55/66/308 52/63/309
f 52/63/310 55/66/311 56/67/312
f 60/111/313 58/69/314 55/66/315
f 55/66/316 58/69/317 56/67/318
f 54/65/319 53/64/320 60/71/321
f 60/71/322 53/64/323 58/112/324
f 54/65/325 48/59/326 53/64/327
f 53/64/328 48/59/329 45/56/330
f 48/59/331 39/49/332 45/56/333
f 45/56/334 39/49/335 44/55/336
f 39/49/337 40/50/338 44/55/339
f 44/55/340 40/50/341 43/53/342
f 7/122/343 37/47/344 8/116/345
f 8/116/346 37/47/347 41/51/348
f 37/47/349 6/119/350 41/51/351
f 41/51/352 6/119/353 5/114/354
