# This file uses centimeters as units for non-parametric coordinates.

v -0.101755 0.000000 1.000000
v -0.101755 0.000000 0.000000
v 1.101755 -0.000000 0.000000
v 1.101755 0.000000 1.000000
v -0.101755 0.396747 1.000000
v 1.101755 0.396747 1.000000
v 1.101755 0.396747 0.000000
v -0.101755 0.396747 0.000000
v 0.000000 0.457648 1.000000
v 1.000000 0.457648 1.000000
v 1.000000 0.457648 -0.000000
v 0.000000 0.457648 0.000000
v -0.063621 0.506434 1.000000
v 1.063621 0.506434 1.000000
v 1.063621 0.506434 0.000000
v -0.063621 0.506434 0.000000
v -0.063621 0.617011 1.000000
v 1.063621 0.617011 1.000000
v 1.063621 0.617011 0.000000
v -0.063621 0.617011 0.000000
v 0.000000 0.665520 1.000000
v 1.000000 0.665520 1.000000
v 1.000000 0.665520 -0.000000
v 0.000000 0.665520 0.000000
v 0.000000 0.665520 0.295183
v -0.063621 0.617011 0.295183
v -0.063621 0.506434 0.295183
v 0.000000 0.457648 0.295183
v -0.101755 0.396747 0.295183
v -0.101755 0.000000 0.295183
v 0.000000 0.665520 0.772873
v -0.063621 0.617011 0.772873
v -0.063621 0.506434 0.772873
v 0.000000 0.457648 0.772873
v -0.101755 0.396747 0.772873
v -0.101755 0.000000 0.772873
v 0.000000 2.041623 1.000000
v 1.000000 2.088151 1.000000
v 1.000000 1.858409 -0.000000
v 0.000000 1.858409 0.000000
v 0.000000 1.914865 0.295183
v 0.000000 2.101062 0.772873
v 1.000000 2.083227 0.271504
v 1.000000 0.665520 0.271504
v 1.063621 0.617011 0.271504
v 1.063621 0.506434 0.271504
v 1.000000 0.457648 0.271504
v 1.101755 0.396747 0.271504
v 1.101755 -0.000000 0.271504
v 1.000000 2.211953 0.738310
v 1.000000 0.665520 0.738310
v 1.063621 0.617011 0.738310
v 1.063621 0.506434 0.738310
v 1.000000 0.457648 0.738310
v 1.101755 0.396747 0.738310
v 1.101755 -0.000000 0.738310
vt 0.791889 0.532119
vt 0.017020 0.308717
vt 0.375951 0.309233
vt 0.751013 0.535453
vt 0.413289 0.795446
vt 0.983089 0.023897
vt 0.376356 0.027081
vt 0.978899 0.419228
vt 0.773114 0.090932
vt 0.749693 0.665905
vt 0.774634 0.486501
vt 0.017221 0.168970
vt 0.790712 0.101691
vt 0.750095 0.626171
vt 0.791900 0.496841
vt 0.017160 0.211534
vt 0.779567 0.110073
vt 0.750367 0.599309
vt 0.781100 0.505118
vt 0.017118 0.240311
vt 0.779386 0.129305
vt 0.750742 0.562259
vt 0.781095 0.523883
vt 0.017061 0.280000
vt 0.964301 0.139484
vt 0.975446 0.131151
vt 0.975627 0.111918
vt 0.964642 0.103329
vt 0.982440 0.092903
vt 0.748347 0.798838
vt 0.790372 0.137847
vt 0.375992 0.280517
vt 0.376049 0.240827
vt 0.376090 0.212050
vt 0.376152 0.169486
vt 0.773763 0.021926
vt 0.961598 0.532167
vt 0.972398 0.523938
vt 0.972403 0.505172
vt 0.961608 0.496890
vt 0.978880 0.486559
vt 0.017426 0.026565
vt 0.415955 0.532060
vt 0.415684 0.558867
vt 0.415309 0.595916
vt 0.415037 0.622779
vt 0.414635 0.662513
vt 0.774653 0.419169
vt 0.122970 0.308869
vt 0.123011 0.280153
vt 0.123069 0.240463
vt 0.123110 0.211686
vt 0.123171 0.169122
vt 0.123376 0.026717
vt 0.294428 0.309116
vt 0.294469 0.280399
vt 0.294526 0.240710
vt 0.294567 0.211933
vt 0.294629 0.169368
vt 0.294833 0.026964
vt 0.974169 0.781673
vt 0.755839 0.058789
vt 0.754969 0.983822
vt 0.016404 0.736881
vt 0.822318 0.782524
vt 0.926524 0.784446
vt 0.826462 0.988683
vt 0.506925 0.532981
vt 0.506654 0.559788
vt 0.506279 0.596837
vt 0.506007 0.623700
vt 0.505604 0.663434
vt 0.504259 0.796367
vt 0.924897 0.989090
vt 0.663332 0.534565
vt 0.663061 0.561371
vt 0.662686 0.598421
vt 0.662414 0.625284
vt 0.662012 0.665017
vt 0.660666 0.797951
vt 0.668578 0.016420
vt 0.511734 0.057968
vt 0.420002 0.132374
vt 0.293687 0.824375
vt 0.375240 0.803158
vt 0.122325 0.757297
vt 0.961540 0.734611
vt 0.961972 0.386921
vt 0.791831 0.734563
vt 0.761254 0.780635
vt 0.788119 0.377191
vt 0.983602 0.984958
vn 0.000000 0.000000 1.000000
vn 0.000000 0.000000 1.000000
vn 0.000000 0.000000 1.000000
vn 0.000000 0.000000 1.000000
vn 0.000000 0.000000 1.000000
vn 0.000000 0.000000 1.000000
vn 1.000000 0.000000 0.000000
vn 1.000000 0.000000 0.000000
vn 1.000000 0.000000 0.000000
vn 1.000000 0.000000 0.000000
vn 1.000000 0.000000 0.000000
vn 1.000000 0.000000 0.000000
vn 0.000000 0.000000 -1.000000
vn 0.000000 0.000000 -1.000000
vn 0.000000 0.000000 -1.000000
vn 0.000000 0.000000 -1.000000
vn 0.000000 0.000000 -1.000000
vn 0.000000 0.000000 -1.000000
vn -1.000000 0.000000 0.000000
vn -1.000000 0.000000 0.000000
vn -1.000000 0.000000 0.000000
vn -1.000000 0.000000 0.000000
vn -1.000000 0.000000 0.000000
vn -1.000000 0.000000 0.000000
vn 0.000000 0.000000 1.000000
vn 0.000000 0.000000 1.000000
vn 0.000000 0.000000 1.000000
vn 0.000000 0.000000 1.000000
vn 0.000000 0.000000 1.000000
vn 0.000000 0.000000 1.000000
vn 0.513550 0.858060 0.000000
vn 0.513550 0.858060 0.000000
vn 0.513550 0.858060 0.000000
vn 0.513550 0.858060 0.000000
vn 0.513550 0.858060 0.000000
vn 0.513550 0.858060 0.000000
vn -0.000000 0.000000 -1.000000
vn -0.000000 0.000000 -1.000000
vn -0.000000 0.000000 -1.000000
vn 0.000000 -0.000000 -1.000000
vn 0.000000 -0.000000 -1.000000
vn 0.000000 -0.000000 -1.000000
vn -0.513550 0.858060 0.000000
vn -0.513550 0.858060 0.000000
vn -0.513550 0.858060 0.000000
vn -0.513550 0.858060 0.000000
vn -0.513550 0.858060 0.000000
vn -0.513550 0.858060 0.000000
vn 0.000000 0.000000 1.000000
vn 0.000000 0.000000 1.000000
vn 0.000000 0.000000 1.000000
vn 0.000000 0.000000 1.000000
vn 0.000000 0.000000 1.000000
vn 0.000000 0.000000 1.000000
vn 0.608509 -0.793547 0.000000
vn 0.608509 -0.793547 0.000000
vn 0.608509 -0.793547 0.000000
vn 0.608509 -0.793547 0.000000
vn 0.608509 -0.793547 0.000000
vn 0.608509 -0.793547 0.000000
vn 0.000000 0.000000 -1.000000
vn 0.000000 0.000000 -1.000000
vn 0.000000 0.000000 -1.000000
vn -0.000000 0.000000 -1.000000
vn -0.000000 0.000000 -1.000000
vn -0.000000 0.000000 -1.000000
vn -0.608510 -0.793547 0.000000
vn -0.608510 -0.793547 0.000000
vn -0.608509 -0.793547 0.000000
vn -0.608510 -0.793547 0.000000
vn -0.608509 -0.793547 0.000000
vn -0.608510 -0.793547 0.000000
vn 0.000000 0.000000 1.000000
vn 0.000000 0.000000 1.000000
vn 0.000000 0.000000 1.000000
vn 0.000000 0.000000 1.000000
vn 0.000000 0.000000 1.000000
vn 0.000000 0.000000 1.000000
vn 1.000000 0.000000 0.000000
vn 1.000000 0.000000 0.000000
vn 1.000000 0.000000 0.000000
vn 1.000000 0.000000 0.000000
vn 1.000000 0.000000 0.000000
vn 1.000000 0.000000 0.000000
vn 0.000000 0.000000 -1.000000
vn 0.000000 0.000000 -1.000000
vn 0.000000 0.000000 -1.000000
vn 0.000000 0.000000 -1.000000
vn 0.000000 0.000000 -1.000000
vn 0.000000 0.000000 -1.000000
vn -1.000000 0.000000 0.000000
vn -1.000000 0.000000 0.000000
vn -1.000000 0.000000 0.000000
vn -1.000000 0.000000 0.000000
vn -1.000000 0.000000 0.000000
vn -1.000000 0.000000 0.000000
vn 0.000000 0.000000 1.000000
vn 0.000000 0.000000 1.000000
vn 0.000000 0.000000 1.000000
vn 0.000000 0.000000 1.000000
vn 0.000000 0.000000 1.000000
vn 0.000000 0.000000 1.000000
vn 0.606327 0.795216 0.000000
vn 0.606326 0.795216 0.000000
vn 0.606327 0.795216 0.000000
vn 0.606326 0.795216 0.000000
vn 0.606327 0.795216 0.000000
vn 0.606327 0.795216 0.000000
vn -0.000000 0.000000 -1.000000
vn -0.000000 0.000000 -1.000000
vn -0.000000 0.000000 -1.000000
vn 0.000000 -0.000000 -1.000000
vn 0.000000 -0.000000 -1.000000
vn 0.000000 -0.000000 -1.000000
vn -0.606327 0.795216 0.000000
vn -0.606326 0.795216 0.000000
vn -0.606326 0.795216 0.000000
vn -0.606327 0.795216 0.000000
vn -0.606327 0.795216 0.000000
vn -0.606327 0.795216 0.000000
vn -0.606327 0.795216 0.000000
vn -0.606327 0.795216 0.000000
vn -0.606327 0.795216 0.000000
vn -0.606327 0.795216 0.000000
vn -0.606327 0.795216 0.000000
vn -0.606327 0.795216 0.000000
vn -1.000000 0.000000 0.000000
vn -1.000000 0.000000 0.000000
vn -1.000000 0.000000 0.000000
vn -1.000000 0.000000 0.000000
vn -1.000000 0.000000 0.000000
vn -1.000000 0.000000 0.000000
vn -0.608510 -0.793546 0.000000
vn -0.608510 -0.793546 0.000000
vn -0.608510 -0.793546 0.000000
vn -0.608510 -0.793546 0.000000
vn -0.608510 -0.793546 0.000000
vn -0.608510 -0.793546 0.000000
vn -0.513550 0.858060 0.000000
vn -0.513550 0.858060 0.000000
vn -0.513550 0.858060 0.000000
vn -0.513550 0.858060 0.000000
vn -0.513550 0.858060 0.000000
vn -0.513550 0.858060 0.000000
vn -1.000000 0.000000 0.000000
vn -1.000000 0.000000 0.000000
vn -1.000000 0.000000 0.000000
vn -1.000000 0.000000 0.000000
vn -1.000000 0.000000 0.000000
vn -1.000000 0.000000 0.000000
vn -0.606327 0.795216 0.000000
vn -0.606327 0.795216 0.000000
vn -0.606327 0.795216 0.000000
vn -0.606327 0.795216 0.000000
vn -0.606327 0.795216 0.000000
vn -0.606327 0.795216 0.000000
vn -1.000000 0.000000 0.000000
vn -1.000000 0.000000 0.000000
vn -1.000000 0.000000 0.000000
vn -1.000000 0.000000 0.000000
vn -1.000000 0.000000 0.000000
vn -1.000000 0.000000 0.000000
vn -0.608510 -0.793546 0.000000
vn -0.608510 -0.793546 0.000000
vn -0.608510 -0.793546 0.000000
vn -0.608510 -0.793546 0.000000
vn -0.608510 -0.793546 0.000000
vn -0.608510 -0.793546 0.000000
vn -0.513550 0.858060 0.000000
vn -0.513550 0.858060 0.000000
vn -0.513550 0.858060 0.000000
vn -0.513550 0.858060 0.000000
vn -0.513550 0.858060 0.000000
vn -0.513550 0.858060 0.000000
vn -1.000000 0.000000 0.000000
vn -1.000000 0.000000 0.000000
vn -1.000000 0.000000 0.000000
vn -1.000000 0.000000 0.000000
vn -1.000000 0.000000 0.000000
vn -1.000000 0.000000 0.000000
vn 0.000000 0.000000 1.000000
vn 0.000000 0.000000 1.000000
vn 0.000000 0.000000 1.000000
vn 0.000000 0.000000 1.000000
vn 0.000000 0.000000 1.000000
vn 0.000000 0.000000 1.000000
vn 1.000000 0.000000 0.000000
vn 1.000000 0.000000 0.000000
vn 1.000000 0.000000 0.000000
vn 1.000000 0.000000 0.000000
vn 1.000000 0.000000 0.000000
vn 1.000000 0.000000 0.000000
vn -0.000000 0.000000 -1.000000
vn -0.000000 0.000000 -1.000000
vn -0.000000 0.000000 -1.000000
vn -0.000000 0.000000 -1.000000
vn -0.000000 0.000000 -1.000000
vn -0.000000 0.000000 -1.000000
vn -1.000000 0.000000 0.000000
vn -1.000000 0.000000 0.000000
vn -1.000000 0.000000 0.000000
vn -1.000000 0.000000 0.000000
vn -1.000000 0.000000 0.000000
vn -1.000000 0.000000 0.000000
vn -1.000000 0.000000 0.000000
vn -1.000000 0.000000 0.000000
vn -1.000000 0.000000 0.000000
vn -1.000000 0.000000 0.000000
vn -1.000000 0.000000 0.000000
vn -1.000000 0.000000 0.000000
vn -1.000000 0.000000 0.000000
vn -1.000000 0.000000 0.000000
vn -1.000000 0.000000 0.000000
vn -1.000000 0.000000 0.000000
vn -1.000000 0.000000 0.000000
vn -1.000000 0.000000 0.000000
vn 1.000000 0.000000 0.000000
vn 1.000000 0.000000 0.000000
vn 1.000000 0.000000 0.000000
vn 1.000000 0.000000 0.000000
vn 1.000000 0.000000 0.000000
vn 1.000000 0.000000 0.000000
vn 0.606328 0.795215 0.000000
vn 0.606328 0.795215 0.000000
vn 0.606328 0.795215 0.000000
vn 0.606326 0.795216 0.000000
vn 0.606326 0.795216 0.000000
vn 0.606326 0.795216 0.000000
vn 1.000000 0.000000 0.000000
vn 1.000000 0.000000 0.000000
vn 1.000000 0.000000 0.000000
vn 1.000000 0.000000 0.000000
vn 1.000000 0.000000 0.000000
vn 1.000000 0.000000 0.000000
vn 0.608509 -0.793547 0.000000
vn 0.608509 -0.793547 0.000000
vn 0.608509 -0.793547 0.000000
vn 0.608510 -0.793546 0.000000
vn 0.608510 -0.793546 0.000000
vn 0.608510 -0.793546 0.000000
vn 0.513550 0.858060 -0.000000
vn 0.513550 0.858060 -0.000000
vn 0.513550 0.858060 -0.000000
vn 0.513549 0.858060 0.000000
vn 0.513549 0.858060 0.000000
vn 0.513549 0.858060 0.000000
vn 1.000000 0.000000 0.000000
vn 1.000000 0.000000 0.000000
vn 1.000000 0.000000 0.000000
vn 1.000000 0.000000 0.000000
vn 1.000000 0.000000 0.000000
vn 1.000000 0.000000 0.000000
vn 1.000000 0.000000 0.000000
vn 1.000000 0.000000 0.000000
vn 1.000000 0.000000 0.000000
vn 1.000000 0.000000 0.000000
vn 1.000000 0.000000 0.000000
vn 1.000000 0.000000 0.000000
vn 0.606328 0.795215 0.000000
vn 0.606328 0.795215 0.000000
vn 0.606328 0.795215 0.000000
vn 0.606326 0.795217 0.000000
vn 0.606326 0.795216 0.000000
vn 0.606326 0.795217 0.000000
vn 1.000000 0.000000 0.000000
vn 1.000000 0.000000 0.000000
vn 1.000000 0.000000 0.000000
vn 1.000000 0.000000 0.000000
vn 1.000000 0.000000 0.000000
vn 1.000000 0.000000 0.000000
vn 0.608509 -0.793547 0.000000
vn 0.608509 -0.793547 0.000000
vn 0.608509 -0.793547 0.000000
vn 0.608511 -0.793545 0.000000
vn 0.608511 -0.793545 0.000000
vn 0.608511 -0.793545 0.000000
vn 0.513551 0.858059 0.000000
vn 0.513551 0.858059 0.000000
vn 0.513551 0.858059 0.000000
vn 0.513549 0.858060 0.000000
vn 0.513549 0.858060 0.000000
vn 0.513549 0.858060 0.000000
vn 1.000000 0.000000 0.000000
vn 1.000000 0.000000 0.000000
vn 1.000000 0.000000 0.000000
vn 1.000000 0.000000 0.000000
vn 1.000000 0.000000 0.000000
vn 1.000000 0.000000 0.000000
vn -0.085149 0.900664 0.426093
vn -0.085149 0.900664 0.426093
vn -0.085149 0.900664 0.426093
vn -0.044967 0.966442 0.252918
vn -0.044967 0.966442 0.252918
vn -0.044967 0.966442 0.252918
vn -0.115315 0.957587 -0.264063
vn -0.115315 0.957587 -0.264063
vn -0.115315 0.957587 -0.264063
vn -0.163247 0.919223 -0.358300
vn -0.163247 0.919223 -0.358300
vn -0.163247 0.919223 -0.358300
vn -0.143284 0.762273 -0.631197
vn -0.143284 0.762273 -0.631197
vn -0.143284 0.762273 -0.631197
vn 0.000000 0.982197 -0.187851
vn 0.000000 0.982198 -0.187851
vn 0.000000 0.982198 -0.187851
f 5/9/1 1/36/2 6/29/3
f 6/29/4 1/36/5 4/6/6
f 3/5/7 7/47/8 49/73/9
f 49/73/10 7/47/11 48/72/12
f 8/41/13 7/11/14 2/8/15
f 2/8/16 7/11/17 3/48/18
f 1/7/19 5/35/20 36/60/21
f 36/60/22 5/35/23 35/59/24
f 9/13/25 5/9/26 10/28/27
f 10/28/28 5/9/29 6/29/30
f 7/47/31 11/46/32 48/72/33
f 48/72/34 11/46/35 47/71/36
f 12/40/37 11/15/38 8/41/39
f 8/41/40 11/15/41 7/11/42
f 35/59/43 5/35/44 34/58/45
f 34/58/46 5/35/47 9/34/48
f 13/17/49 9/13/50 14/27/51
f 14/27/52 9/13/53 10/28/54
f 11/46/55 15/45/56 47/71/57
f 47/71/58 15/45/59 46/70/60
f 16/39/61 15/19/62 12/40/63
f 12/40/64 15/19/65 11/15/66
f 34/58/67 9/34/68 33/57/69
f 33/57/70 9/34/71 13/33/72
f 17/21/73 13/17/74 18/26/75
f 18/26/76 13/17/77 14/27/78
f 15/45/79 19/44/80 46/70/81
f 46/70/82 19/44/83 45/69/84
f 20/38/85 19/23/86 16/39/87
f 16/39/88 19/23/89 15/19/90
f 33/57/91 13/33/92 32/56/93
f 32/56/94 13/33/95 17/32/96
f 21/31/97 17/21/98 22/25/99
f 22/25/100 17/21/101 18/26/102
f 19/44/103 23/43/104 45/69/105
f 45/69/106 23/43/107 44/68/108
f 24/37/109 23/1/110 20/38/111
f 20/38/112 23/1/113 19/23/114
f 32/56/115 17/32/116 31/55/117
f 31/55/118 17/32/119 21/3/120
f 20/24/121 26/50/122 24/2/123
f 24/2/124 26/50/125 25/49/126
f 16/20/127 27/51/128 20/24/129
f 20/24/130 27/51/131 26/50/132
f 12/16/133 28/52/134 16/20/135
f 16/20/136 28/52/137 27/51/138
f 8/12/139 29/53/140 12/16/141
f 12/16/142 29/53/143 28/52/144
f 30/54/145 29/53/146 2/42/147
f 2/42/148 29/53/149 8/12/150
f 26/50/151 32/56/152 25/49/153
f 25/49/154 32/56/155 31/55/156
f 27/51/157 33/57/158 26/50/159
f 26/50/160 33/57/161 32/56/162
f 28/52/163 34/58/164 27/51/165
f 27/51/166 34/58/167 33/57/168
f 29/53/169 35/59/170 28/52/171
f 28/52/172 35/59/173 34/58/174
f 36/60/175 35/59/176 30/54/177
f 30/54/178 35/59/179 29/53/180
f 21/31/181 22/25/182 37/91/183
f 37/91/184 22/25/185 38/88/186
f 23/43/187 39/83/188 44/68/189
f 44/68/190 39/83/191 43/82/192
f 40/87/193 39/89/194 24/37/195
f 24/37/196 39/89/197 23/1/198
f 24/2/199 25/49/200 40/64/201
f 40/64/202 25/49/203 41/86/204
f 25/49/205 31/55/206 41/86/207
f 41/86/208 31/55/209 42/84/210
f 21/3/211 37/85/212 31/55/213
f 31/55/214 37/85/215 42/84/216
f 44/68/217 43/82/218 51/75/219
f 51/75/220 43/82/221 50/81/222
f 45/69/223 44/68/224 52/76/225
f 52/76/226 44/68/227 51/75/228
f 46/70/229 45/69/230 53/77/231
f 53/77/232 45/69/233 52/76/234
f 47/71/235 46/70/236 54/78/237
f 54/78/238 46/70/239 53/77/240
f 48/72/241 47/71/242 55/79/243
f 55/79/244 47/71/245 54/78/246
f 49/73/247 48/72/248 56/80/249
f 56/80/250 48/72/251 55/79/252
f 50/81/253 38/62/254 51/75/255
f 51/75/256 38/62/257 22/4/258
f 52/76/259 51/75/260 18/22/261
f 18/22/262 51/75/263 22/4/264
f 53/77/265 52/76/266 14/18/267
f 14/18/268 52/76/269 18/22/270
f 54/78/271 53/77/272 10/14/273
f 10/14/274 53/77/275 14/18/276
f 55/79/277 54/78/278 6/10/279
f 6/10/280 54/78/281 10/14/282
f 56/80/283 55/79/284 4/30/285
f 4/30/286 55/79/287 6/10/288
f 50/74/289 42/66/290 38/92/291
f 38/92/292 42/66/293 37/61/294
f 50/74/295 43/67/296 42/66/297
f 42/66/298 43/67/299 41/65/300
f 43/67/301 39/63/302 41/65/303
f 41/65/304 39/63/305 40/90/306
