# This file uses centimeters as units for non-parametric coordinates.

v 0.000000 2.579953 1.000000
v 0.000000 2.579953 -0.000000
v 0.000000 3.000000 1.014605
v 0.000000 3.000000 -0.014605
v 0.000000 2.647059 1.069198
v 0.000000 2.647059 -0.069198
v 0.000000 0.000000 1.101755
v 0.000000 -0.000000 -0.101755
v 0.000000 0.396747 -0.101755
v 0.000000 0.396747 1.101755
v 0.000000 0.457648 -0.000000
v 0.000000 0.457648 1.000000
v 0.000000 0.506434 -0.063621
v 0.000000 0.506434 1.063621
v 0.000000 0.617011 -0.063621
v 0.000000 0.617011 1.063621
v 0.000000 0.665520 -0.000000
v 0.000000 0.665521 1.000000
v 1.000000 3.000000 -0.014605
v 1.000000 2.647059 -0.069198
v 1.000000 2.579953 -0.000000
v 1.000000 0.665520 -0.000000
v 1.000000 0.617011 -0.063621
v 1.000000 0.506434 -0.063621
v 1.000000 0.457648 -0.000000
v 1.000000 0.396747 -0.101755
v 1.000000 -0.000000 -0.101755
v 0.325253 0.665520 -0.000000
v 0.325253 0.665520 1.000000
v 1.000000 3.000000 1.014605
v 1.000000 2.647059 1.069198
v 1.000000 2.579953 1.000000
v 1.000000 0.665520 1.000000
v 1.000000 0.617011 1.063621
v 1.000000 0.506434 1.063621
v 1.000000 0.457648 1.000000
v 1.000000 0.396747 1.101755
v 1.000000 0.000000 1.101755
v 0.325253 1.901297 0.000000
v 0.325253 1.901297 1.000000
v 1.000000 2.522251 1.000000
v 1.000000 2.522251 -0.000000
v 0.510260 2.230774 0.000000
v 0.510260 2.230774 1.000000
v 0.740939 2.456032 1.000000
v 0.748285 2.456032 -0.000000
vt 0.903070 3.000000
vt 0.050697 2.996513
vt 0.951195 2.647689
vt 0.008396 2.643831
vt 0.894441 2.580434
vt 0.066258 2.577045
vt 0.000000 0.396247
vt 0.003274 0.000000
vt 0.996727 0.400325
vt 1.000000 0.004078
vt 0.083770 0.457415
vt 0.911952 0.460805
vt 0.030677 0.505925
vt 0.964241 0.509744
vt 0.029764 0.616362
vt 0.963328 0.620181
vt 0.001465 0.673366
vt 0.324755 0.748665
vt 0.001631 0.749406
vt 0.082054 0.665026
vt 0.910237 0.668415
vt 0.511799 2.235914
vt 0.748734 2.449464
vt 0.005603 2.568949
vt 0.994921 0.671088
vt 0.995087 0.747128
vt 0.001236 0.568269
vt 0.994692 0.565991
vt 0.001069 0.492070
vt 0.994525 0.489792
vt 0.000823 0.379360
vt 0.994279 0.377083
vt 0.993456 0.000000
vt 0.000000 0.002278
vt 0.985928 0.670294
vt 0.986388 0.746244
vt 0.667032 0.748138
vt 0.016078 2.660964
vt 0.997947 2.655143
vt 0.018131 3.000000
vt 1.000000 2.994179
vt 0.015524 2.569458
vt 0.997393 2.563637
vt 0.015192 2.514680
vt 0.269175 2.450310
vt 0.004059 0.676116
vt 0.004519 0.752065
vt 0.003423 0.571143
vt 0.985292 0.565322
vt 0.002962 0.495034
vt 0.984832 0.489213
vt 0.002281 0.382458
vt 0.984150 0.376636
vt 0.000000 0.005821
vt 0.981869 0.000000
vt 0.327319 1.923190
vt 0.674136 1.921275
vt 0.494377 2.235128
vt 0.005803 2.660563
vt 0.999259 2.658285
vt 0.006544 3.000000
vt 1.000000 2.997722
vt 0.999059 2.566670
vt 0.998939 2.511828
vt 0.993819 0.483265
vt 0.194727 0.476656
vt 0.984907 1.653726
vt 0.185815 1.647117
vt 0.982182 2.011620
vt 0.183090 2.005011
vt 0.180765 2.310389
vt 0.979829 2.322014
vt 0.179225 2.563649
vt 0.978330 2.568539
vt 0.998685 -0.155820
vt 0.199593 -0.162427
vt 1.115594 2.387415
vt -0.117173 2.383787
vt 1.114282 2.789079
vt -0.118484 2.785450
vt 1.009852 2.850427
vt -0.014457 2.847412
vt 1.074859 2.900010
vt -0.079786 2.896611
vt 1.074493 3.011957
vt -0.080152 3.008558
vt 1.009165 3.060876
vt -0.015145 3.057861
vt -0.243972 0.722954
vt 1.097910 0.703086
vt -0.243282 0.787374
vt 1.098600 0.767505
vt -0.335335 0.863666
vt 1.192259 0.841048
vt -0.257854 1.256608
vt 1.123223 1.236159
vt 0.008214 0.000000
vt 1.000000 0.007758
vt 0.991786 1.000000
vt 0.000000 0.992242
vn -1.000000 0.000000 0.000000
vn -1.000000 0.000000 0.000000
vn -1.000000 0.000000 0.000000
vn -1.000000 0.000000 0.000000
vn -1.000000 0.000000 0.000000
vn -1.000000 0.000000 0.000000
vn -1.000000 0.000000 0.000000
vn -1.000000 0.000000 0.000000
vn -1.000000 0.000000 0.000000
vn -1.000000 0.000000 0.000000
vn -1.000000 0.000000 0.000000
vn -1.000000 0.000000 0.000000
vn -1.000000 0.000000 0.000000
vn -1.000000 0.000000 0.000000
vn -1.000000 0.000000 0.000000
vn -1.000000 0.000000 0.000000
vn -1.000000 0.000000 0.000000
vn -1.000000 0.000000 0.000000
vn -1.000000 0.000000 0.000000
vn -1.000000 0.000000 0.000000
vn -1.000000 0.000000 0.000000
vn -1.000000 0.000000 0.000000
vn -1.000000 0.000000 0.000000
vn -1.000000 0.000000 0.000000
vn -1.000000 0.000000 0.000000
vn -1.000000 0.000000 0.000000
vn -1.000000 0.000000 0.000000
vn -1.000000 0.000000 0.000000
vn -1.000000 0.000000 0.000000
vn -1.000000 0.000000 0.000000
vn -1.000000 0.000000 0.000000
vn -1.000000 0.000000 0.000000
vn -1.000000 0.000000 0.000000
vn -1.000000 0.000000 0.000000
vn -1.000000 0.000000 0.000000
vn -1.000000 0.000000 0.000000
vn 0.000000 0.795216 -0.606326
vn 0.000000 0.795216 -0.606326
vn 0.000000 0.795216 -0.606326
vn -1.000000 0.000000 0.000000
vn -1.000000 0.000000 0.000000
vn -1.000000 0.000000 0.000000
vn -1.000000 0.000000 0.000000
vn -1.000000 0.000000 0.000000
vn -1.000000 0.000000 0.000000
vn 0.000000 -0.000000 -1.000000
vn 0.000000 -0.000000 -1.000000
vn 0.000000 -0.000000 -1.000000
vn 0.000000 0.795216 -0.606326
vn 0.000000 0.795216 -0.606326
vn 0.000000 0.795216 -0.606326
vn -0.000000 0.795216 -0.606327
vn -0.000000 0.795216 -0.606327
vn -0.000000 0.795216 -0.606327
vn 0.000000 0.000000 -1.000000
vn 0.000000 0.000000 -1.000000
vn 0.000000 0.000000 -1.000000
vn 0.000000 0.000000 -1.000000
vn 0.000000 0.000000 -1.000000
vn 0.000000 0.000000 -1.000000
vn 0.000000 -0.793547 -0.608509
vn 0.000000 -0.793547 -0.608509
vn 0.000000 -0.793547 -0.608509
vn 0.000000 -0.793547 -0.608509
vn 0.000000 -0.793547 -0.608509
vn 0.000000 -0.793547 -0.608509
vn 0.000000 0.858060 -0.513550
vn 0.000000 0.858060 -0.513550
vn 0.000000 0.858060 -0.513550
vn 0.000000 0.858060 -0.513550
vn 0.000000 0.858060 -0.513550
vn 0.000000 0.858060 -0.513550
vn 0.000000 0.000000 -1.000000
vn 0.000000 0.000000 -1.000000
vn 0.000000 0.000000 -1.000000
vn 0.000000 0.000000 -1.000000
vn 0.000000 0.000000 -1.000000
vn 0.000000 0.000000 -1.000000
vn 0.000000 0.795215 0.606327
vn 0.000000 0.795215 0.606327
vn 0.000000 0.795215 0.606327
vn 0.000000 0.152864 0.988247
vn 0.000000 0.152864 0.988247
vn 0.000000 0.152864 0.988247
vn 0.000000 0.152864 0.988247
vn 0.000000 0.152864 0.988247
vn 0.000000 0.152864 0.988247
vn 0.000000 -0.717877 0.696170
vn 0.000000 -0.717877 0.696170
vn 0.000000 -0.717877 0.696170
vn 0.000000 -0.717877 0.696170
vn 0.000000 -0.717877 0.696170
vn 0.000000 -0.717877 0.696170
vn 0.000000 0.000000 1.000000
vn 0.000000 0.000000 1.000000
vn 0.000000 0.000000 1.000000
vn 0.000000 0.000000 1.000000
vn 0.000000 0.000000 1.000000
vn 0.000000 0.000000 1.000000
vn 0.000000 0.795216 0.606326
vn 0.000000 0.795216 0.606326
vn 0.000000 0.795216 0.606326
vn -0.000000 0.795216 0.606327
vn -0.000000 0.795216 0.606327
vn -0.000000 0.795216 0.606327
vn 0.000000 0.000000 1.000000
vn 0.000000 0.000000 1.000000
vn 0.000000 0.000000 1.000000
vn 0.000000 0.000000 1.000000
vn 0.000000 0.000000 1.000000
vn 0.000000 0.000000 1.000000
vn 0.000000 -0.793547 0.608510
vn 0.000000 -0.793547 0.608510
vn 0.000000 -0.793547 0.608510
vn 0.000000 -0.793547 0.608510
vn 0.000000 -0.793547 0.608510
vn 0.000000 -0.793547 0.608510
vn 0.000000 0.858060 0.513550
vn 0.000000 0.858060 0.513550
vn 0.000000 0.858060 0.513550
vn 0.000000 0.858060 0.513550
vn 0.000000 0.858060 0.513550
vn 0.000000 0.858060 0.513549
vn 0.000000 0.000000 1.000000
vn 0.000000 0.000000 1.000000
vn 0.000000 0.000000 1.000000
vn 0.000000 0.000000 1.000000
vn 0.000000 0.000000 1.000000
vn 0.000000 0.000000 1.000000
vn 0.000000 0.000000 -1.000000
vn 0.000000 0.000000 -1.000000
vn 0.000000 0.000000 -1.000000
vn 0.000000 -0.000000 -1.000000
vn 0.000000 -0.000000 -1.000000
vn 0.000000 -0.000000 -1.000000
vn -1.000000 0.000000 0.000000
vn -1.000000 0.000000 0.000000
vn -1.000000 0.000000 0.000000
vn -1.000000 0.000000 0.000000
vn -1.000000 0.000000 0.000000
vn -1.000000 0.000000 0.000000
vn 0.000000 0.000000 1.000000
vn 0.000000 0.000000 1.000000
vn 0.000000 0.000000 1.000000
vn 0.000000 0.000000 1.000000
vn 0.000000 0.000000 1.000000
vn 0.000000 0.000000 1.000000
vn 0.000000 -0.000000 -1.000000
vn 0.000000 -0.000000 -1.000000
vn 0.000000 -0.000000 -1.000000
vn 0.000000 0.000000 1.000000
vn 0.000000 0.000000 1.000000
vn 0.000000 0.000000 1.000000
vn 0.000000 0.000000 1.000000
vn 0.000000 0.000000 1.000000
vn 0.000000 0.000000 1.000000
vn 0.000000 0.152864 -0.988247
vn 0.000000 0.152864 -0.988247
vn 0.000000 0.152864 -0.988247
vn 0.000000 0.152864 -0.988247
vn 0.000000 0.152864 -0.988247
vn 0.000000 0.152864 -0.988247
vn 0.000000 -0.717877 -0.696170
vn 0.000000 -0.717877 -0.696170
vn 0.000000 -0.717877 -0.696170
vn 0.000000 -0.717877 -0.696170
vn 0.000000 -0.717877 -0.696170
vn 0.000000 -0.717877 -0.696170
vn -0.000000 -0.000000 -1.000000
vn -0.000000 -0.000000 -1.000000
vn -0.000000 -0.000000 -1.000000
vn 0.000000 -0.000000 -1.000000
vn 0.000000 -0.000000 -1.000000
vn 0.000000 -0.000000 -1.000000
vn 1.000000 0.000000 0.000000
vn 1.000000 0.000000 0.000000
vn 1.000000 0.000000 0.000000
vn 1.000000 0.000000 0.000000
vn 1.000000 0.000000 0.000000
vn 1.000000 0.000000 0.000000
vn 0.871941 -0.489610 0.000000
vn 0.871941 -0.489610 0.000000
vn 0.871941 -0.489610 0.000000
vn 0.871941 -0.489610 0.000000
vn 0.871941 -0.489610 0.000000
vn 0.871941 -0.489610 0.000000
vn 0.698648 -0.715466 0.000000
vn 0.698648 -0.715466 0.000000
vn 0.698648 -0.715466 0.000000
vn 0.687348 -0.726310 0.005049
vn 0.687348 -0.726310 0.005049
vn 0.687349 -0.726310 0.005049
vn 0.247650 -0.968848 0.001819
vn 0.247650 -0.968848 0.001819
vn 0.247650 -0.968848 0.001819
vn 0.254416 -0.967095 0.000000
vn 0.254416 -0.967095 0.000000
vn 0.254416 -0.967095 0.000000
vn -0.000000 1.000000 0.000000
vn -0.000000 1.000000 0.000000
vn -0.000000 1.000000 0.000000
vn -0.000000 1.000000 0.000000
vn -0.000000 1.000000 0.000000
vn -0.000000 1.000000 0.000000
vn 1.000000 0.000000 0.000000
vn 1.000000 0.000000 0.000000
vn 1.000000 0.000000 0.000000
vn 1.000000 0.000000 0.000000
vn 1.000000 0.000000 0.000000
vn 1.000000 0.000000 0.000000
vn 1.000000 0.000000 0.000000
vn 1.000000 0.000000 0.000000
vn 1.000000 0.000000 0.000000
vn 1.000000 0.000000 0.000000
vn 1.000000 0.000000 0.000000
vn 1.000000 0.000000 0.000000
vn 1.000000 0.000000 0.000000
vn 1.000000 0.000000 0.000000
vn 1.000000 0.000000 0.000000
vn 1.000000 0.000000 0.000000
vn 1.000000 0.000000 0.000000
vn 1.000000 0.000000 0.000000
vn 1.000000 0.000000 0.000000
vn 1.000000 0.000000 0.000000
vn 1.000000 0.000000 0.000000
vn 1.000000 0.000000 0.000000
vn 1.000000 0.000000 0.000000
vn 1.000000 0.000000 0.000000
vn 1.000000 0.000000 0.000000
vn 1.000000 0.000000 0.000000
vn 1.000000 0.000000 0.000000
vn 1.000000 0.000000 0.000000
vn 1.000000 0.000000 0.000000
vn 1.000000 0.000000 0.000000
vn 1.000000 0.000000 0.000000
vn 1.000000 0.000000 0.000000
vn 1.000000 0.000000 0.000000
vn 1.000000 0.000000 0.000000
vn 1.000000 0.000000 0.000000
vn 1.000000 0.000000 0.000000
vn 1.000000 0.000000 0.000000
vn 1.000000 0.000000 0.000000
vn 1.000000 0.000000 0.000000
vn 1.000000 0.000000 0.000000
vn 1.000000 0.000000 0.000000
vn 1.000000 0.000000 0.000000
vn 1.000000 0.000000 0.000000
vn 1.000000 0.000000 0.000000
vn 1.000000 0.000000 0.000000
vn 1.000000 0.000000 0.000000
vn 1.000000 0.000000 0.000000
vn 1.000000 0.000000 0.000000
vn 0.000000 1.000000 0.000000
vn 0.000000 1.000000 0.000000
vn 0.000000 1.000000 0.000000
vn 0.000000 1.000000 0.000000
vn 0.000000 1.000000 0.000000
vn 0.000000 1.000000 0.000000
f 4/1/1 6/3/2 3/2/3
f 6/3/4 5/4/5 3/2/6
f 2/5/7 1/6/8 6/3/9
f 1/6/10 5/4/11 6/3/12
f 10/7/13 9/9/14 7/8/15
f 9/9/16 8/10/17 7/8/18
f 12/11/19 11/12/20 10/7/21
f 11/12/22 9/9/23 10/7/24
f 14/13/25 13/14/26 12/11/27
f 13/14/28 11/12/29 12/11/30
f 16/15/31 15/16/32 14/13/33
f 15/16/34 13/14/35 14/13/36
f 15/17/37 17/19/38 28/18/39
f 18/20/40 17/21/41 16/15/42
f 17/21/43 15/16/44 16/15/45
f 43/22/46 2/24/47 46/23/48
f 15/17/49 28/18/50 23/25/51
f 28/18/52 22/26/53 23/25/54
f 13/27/55 15/17/56 24/28/57
f 15/17/58 23/25/59 24/28/60
f 11/29/61 13/27/62 25/30/63
f 13/27/64 24/28/65 25/30/66
f 9/31/67 11/29/68 26/32/69
f 11/29/70 25/30/71 26/32/72
f 27/33/73 8/34/74 26/32/75
f 8/34/76 9/31/77 26/32/78
f 16/35/79 29/37/80 18/36/81
f 31/38/82 30/40/83 5/39/84
f 30/40/85 3/41/86 5/39/87
f 32/42/88 31/38/89 1/43/90
f 31/38/91 5/39/92 1/43/93
f 32/42/94 1/43/95 41/44/96
f 45/45/97 41/44/98 1/43/99
f 16/35/100 34/46/101 29/37/102
f 34/46/103 33/47/104 29/37/105
f 35/48/106 34/46/107 14/49/108
f 34/46/109 16/35/110 14/49/111
f 36/50/112 35/48/113 12/51/114
f 35/48/115 14/49/116 12/51/117
f 37/52/118 36/50/119 10/53/120
f 36/50/121 12/51/122 10/53/123
f 38/54/124 37/52/125 7/55/126
f 37/52/127 10/53/128 7/55/129
f 28/18/130 17/19/131 39/56/132
f 17/19/133 2/24/134 39/56/135
f 1/6/136 2/5/137 18/20/138
f 2/5/139 17/21/140 18/20/141
f 29/37/142 40/57/143 18/36/144
f 40/57/145 1/43/146 18/36/147
f 2/24/148 43/22/149 39/56/150
f 40/57/151 44/58/152 1/43/153
f 44/58/154 45/45/155 1/43/156
f 6/59/157 4/61/158 20/60/159
f 4/61/160 19/62/161 20/60/162
f 2/24/163 6/59/164 21/63/165
f 6/59/166 20/60/167 21/63/168
f 21/63/169 42/64/170 2/24/171
f 46/23/172 2/24/173 42/64/174
f 28/65/175 39/67/176 29/66/177
f 39/67/178 40/68/179 29/66/180
f 39/67/181 43/69/182 40/68/183
f 43/69/184 44/70/185 40/68/186
f 44/70/187 43/69/188 45/71/189
f 43/69/190 46/72/191 45/71/192
f 45/71/193 46/72/194 41/73/195
f 46/72/196 42/74/197 41/73/198
f 22/75/199 28/65/200 33/76/201
f 28/65/202 29/66/203 33/76/204
f 27/77/205 26/79/206 38/78/207
f 26/79/208 37/80/209 38/78/210
f 26/79/211 25/81/212 37/80/213
f 25/81/214 36/82/215 37/80/216
f 25/81/217 24/83/218 36/82/219
f 24/83/220 35/84/221 36/82/222
f 24/83/223 23/85/224 35/84/225
f 23/85/226 34/86/227 35/84/228
f 23/85/229 22/87/230 34/86/231
f 22/87/232 33/88/233 34/86/234
f 42/89/235 21/91/236 41/90/237
f 21/91/238 32/92/239 41/90/240
f 21/91/241 20/93/242 32/92/243
f 20/93/244 31/94/245 32/92/246
f 20/93/247 19/95/248 31/94/249
f 19/95/250 30/96/251 31/94/252
f 30/97/253 19/100/254 3/98/255
f 19/100/256 4/99/257 3/98/258
