# This file uses centimeters as units for non-parametric coordinates.

v 1.000000 2.579953 1.000000
v 0.000000 2.579953 1.000000
v 0.000000 2.579953 -0.000000
v 1.000000 2.579953 -0.000000
v 0.000000 3.000000 1.014605
v 0.000000 3.000000 -0.014605
v 1.000000 3.000000 -0.014605
v 1.000000 3.000000 1.014605
v 0.000000 2.647059 1.069198
v 0.000000 2.647059 -0.069198
v 1.000000 2.647059 -0.069198
v 1.000000 2.647059 1.069198
v 1.000000 2.349526 1.000000
v 0.000000 2.349526 1.000000
v 0.000000 2.349526 -0.000000
v 1.000000 2.349526 -0.000000
vt 1.000590 0.648040
vt 0.000767 0.313786
vt 0.002983 0.651951
vt 0.999045 0.307507
vt 0.050043 0.651766
vt 0.000169 0.222514
vt 0.998446 0.216235
vt 0.000038 0.220628
vt 0.001274 0.651013
vt 0.000301 0.312101
vt 0.060270 0.233645
vt -0.000099 0.300847
vt 0.999354 0.217654
vt 0.999617 0.309128
vt 0.938682 0.227606
vt 0.060772 0.229793
vt 0.999882 0.293972
vt -0.000117 0.296032
vt 0.995771 0.000000
vt 0.047303 0.645515
vt 0.954112 0.645551
vt 0.000000 0.003993
vt 0.951408 0.648233
vt 1.000000 0.996007
vt 1.001261 0.645672
vt 0.004229 1.000000
vt -0.001261 0.004328
vt 0.000000 1.000000
vt 0.061122 0.001718
vt 0.939567 0.004359
vt 0.058843 0.004323
vt 0.937255 -0.001716
vt -0.000590 0.001960
vt 0.000000 0.000000
vt 1.000000 1.000000
vt 0.939217 0.232435
vt 0.999902 0.299039
vt 0.998726 -0.001014
vt 0.997017 -0.001951
vt 1.000000 0.000000
vn -1.000000 0.000000 0.000000
vn -1.000000 0.000000 0.000000
vn -1.000000 0.000000 0.000000
vn -1.000000 0.000000 0.000000
vn -1.000000 0.000000 0.000000
vn -1.000000 0.000000 0.000000
vn 1.000000 0.000000 0.000000
vn 1.000000 0.000000 0.000000
vn 1.000000 0.000000 0.000000
vn 1.000000 0.000000 0.000000
vn 1.000000 0.000000 0.000000
vn 1.000000 0.000000 0.000000
vn 0.000000 0.152864 0.988247
vn 0.000000 0.152864 0.988247
vn 0.000000 0.152864 0.988247
vn 0.000000 0.152864 0.988247
vn 0.000000 0.152864 0.988247
vn 0.000000 0.152864 0.988247
vn 0.000000 -0.717877 0.696170
vn 0.000000 -0.717877 0.696170
vn 0.000000 -0.717877 0.696170
vn 0.000000 -0.717877 0.696170
vn 0.000000 -0.717877 0.696170
vn 0.000000 -0.717877 0.696170
vn -1.000000 0.000000 0.000000
vn -1.000000 0.000000 0.000000
vn -1.000000 0.000000 0.000000
vn -1.000000 0.000000 0.000000
vn -1.000000 0.000000 0.000000
vn -1.000000 0.000000 0.000000
vn 1.000000 0.000000 0.000000
vn 1.000000 0.000000 0.000000
vn 1.000000 0.000000 0.000000
vn 1.000000 0.000000 0.000000
vn 1.000000 0.000000 0.000000
vn 1.000000 0.000000 0.000000
vn 0.000000 -0.717877 -0.696170
vn 0.000000 -0.717877 -0.696170
vn 0.000000 -0.717877 -0.696170
vn 0.000000 -0.717877 -0.696170
vn 0.000000 -0.717877 -0.696170
vn 0.000000 -0.717877 -0.696170
vn 0.000000 0.152864 -0.988247
vn 0.000000 0.152864 -0.988247
vn 0.000000 0.152864 -0.988247
vn 0.000000 0.152864 -0.988247
vn 0.000000 0.152864 -0.988247
vn 0.000000 0.152864 -0.988247
vn 0.000000 1.000000 0.000000
vn 0.000000 1.000000 0.000000
vn 0.000000 1.000000 0.000000
vn 0.000000 1.000000 0.000000
vn 0.000000 1.000000 0.000000
vn 0.000000 1.000000 0.000000
vn 0.000000 0.000000 1.000000
vn 0.000000 0.000000 1.000000
vn 0.000000 0.000000 1.000000
vn 0.000000 0.000000 1.000000
vn 0.000000 0.000000 1.000000
vn 0.000000 0.000000 1.000000
vn -1.000000 0.000000 0.000000
vn -1.000000 0.000000 0.000000
vn -1.000000 0.000000 0.000000
vn -1.000000 0.000000 0.000000
vn -1.000000 0.000000 0.000000
vn -1.000000 0.000000 0.000000
vn 1.000000 0.000000 0.000000
vn 1.000000 0.000000 0.000000
vn 1.000000 0.000000 0.000000
vn 1.000000 0.000000 0.000000
vn 1.000000 0.000000 0.000000
vn 1.000000 0.000000 0.000000
vn -0.000000 0.000000 -1.000000
vn -0.000000 0.000000 -1.000000
vn -0.000000 0.000000 -1.000000
vn -0.000000 0.000000 -1.000000
vn -0.000000 0.000000 -1.000000
vn -0.000000 0.000000 -1.000000
vn 0.000000 -1.000000 0.000000
vn 0.000000 -1.000000 0.000000
vn 0.000000 -1.000000 0.000000
vn 0.000000 -1.000000 0.000000
vn 0.000000 -1.000000 0.000000
vn 0.000000 -1.000000 0.000000
f 6/20/1 10/18/2 5/23/3
f 5/23/4 10/18/5 9/37/6
f 12/12/7 11/17/8 8/5/9
f 8/5/10 11/17/11 7/21/12
f 9/2/13 12/4/14 5/3/15
f 5/3/16 12/4/17 8/25/18
f 12/4/19 9/2/20 1/7/21
f 1/7/22 9/2/23 2/6/24
f 3/16/25 2/36/26 10/18/27
f 10/18/28 2/36/29 9/37/30
f 1/11/31 4/15/32 12/12/33
f 12/12/34 4/15/35 11/17/36
f 3/13/37 10/14/38 4/8/39
f 4/8/40 10/14/41 11/10/42
f 10/14/43 6/1/44 11/10/45
f 11/10/46 6/1/47 7/9/48
f 5/24/49 8/26/50 6/19/51
f 6/19/52 8/26/53 7/22/54
f 1/7/55 2/6/56 13/39/57
f 13/39/58 2/6/59 14/27/60
f 2/36/61 3/16/62 14/30/63
f 14/30/64 3/16/65 15/29/66
f 4/15/67 1/11/68 16/32/69
f 16/32/70 1/11/71 13/31/72
f 3/13/73 4/8/74 15/38/75
f 15/38/76 4/8/77 16/33/78
f 14/28/79 15/34/80 13/35/81
f 13/35/82 15/34/83 16/40/84
