# This file uses centimeters as units for non-parametric coordinates.

v 0.000000 2.579953 1.000000
v 0.000000 2.579953 0.000000
v 1.000000 2.579953 -0.000000
v 1.000000 2.579953 1.000000
v 0.000000 3.000000 -0.014605
v 1.014605 3.000000 0.000000
v 1.014605 3.000000 1.000000
v 0.000000 3.000000 1.000000
v 0.000000 2.647059 -0.069198
v 1.069198 2.647059 -0.069198
v 1.069198 2.647059 1.000000
v 0.000000 2.647059 1.000000
v 0.000000 0.000000 1.000000
v 0.000000 0.000000 -0.101755
v 1.101755 -0.000000 -0.101755
v 1.101755 0.000000 1.000000
v 0.000000 0.396747 1.000000
v 1.101755 0.396747 1.000000
v 1.101755 0.396747 -0.101755
v 0.000000 0.396747 -0.101755
v 0.000000 0.457648 1.000000
v 1.000000 0.457648 1.000000
v 1.000000 0.457648 -0.000000
v 0.000000 0.457648 0.000000
v 0.000000 0.506434 1.000000
v 1.063621 0.506434 1.000000
v 1.063621 0.506434 -0.063621
v 0.000000 0.506434 -0.063621
v 0.000000 0.617011 1.000000
v 1.063621 0.617011 1.000000
v 1.063621 0.617011 -0.063621
v 0.000000 0.617011 -0.063621
v 0.000000 0.665520 1.000000
v 1.000000 0.665520 1.000000
v 1.000000 0.665520 -0.000000
v 0.000000 0.665520 0.000000
vt 0.390630 0.010495
vt 0.709421 0.343735
vt 0.709475 0.385759
vt 0.827091 0.343583
vt 0.046426 0.946752
vt 0.974459 0.596174
vt 0.827076 0.332241
vt 0.699819 0.150948
vt 0.850075 0.358596
vt 0.709116 0.107121
vt 0.826786 0.106969
vt 0.699460 0.743032
vt 0.390039 0.985962
vt 0.380343 0.010863
vt 0.826667 0.014470
vt 0.986790 0.275836
vt 0.008440 0.139069
vt 0.699387 0.863446
vt 0.837410 0.325238
vt 0.709057 0.061307
vt 0.040280 0.157545
vt 0.699410 0.826770
vt 0.850051 0.332787
vt 0.709075 0.075261
vt 0.020737 0.172956
vt 0.699425 0.801975
vt 0.842157 0.338852
vt 0.709087 0.084695
vt 0.021202 0.207279
vt 0.699445 0.767776
vt 0.842170 0.352581
vt 0.709104 0.097707
vt 0.371097 0.202544
vt 0.370633 0.168221
vt 0.350680 0.153345
vt 0.382009 0.134014
vt 0.699313 0.986150
vt 0.699904 0.010683
vt 0.699837 0.121136
vt 0.041153 0.222069
vt 0.826774 0.097555
vt 0.826757 0.084543
vt 0.826745 0.075109
vt 0.826727 0.061155
vt 0.006773 0.015919
vt 0.049195 0.816308
vt 0.027998 0.837428
vt 0.974234 0.358479
vt 0.982128 0.352449
vt 0.982115 0.338719
vt 0.974210 0.332670
vt 0.986836 0.325096
vt 0.708997 0.014621
vt 0.709406 0.332392
vt 0.983058 0.604497
vt 0.390171 0.767588
vt 0.390151 0.801787
vt 0.390136 0.826583
vt 0.390113 0.863258
vt 0.837363 0.275978
vt 0.390545 0.150761
vt 0.390563 0.120949
vt 0.359595 0.812108
vt 0.351553 0.217868
vt 0.850300 0.596291
vt 0.390186 0.742845
vt 0.381356 0.832647
vt 0.841716 0.604631
vt 0.987819 0.710073
vt 0.848535 0.648445
vt 0.365892 0.942429
vt 0.720548 0.711176
vt 0.976321 0.648325
vt 0.988954 0.985150
vt 0.827145 0.385608
vt 0.721683 0.986253
vn 0.014118 0.194482 -0.980805
vn 0.014118 0.194482 -0.980805
vn 0.014118 0.194482 -0.980805
vn 0.000000 0.152864 -0.988247
vn 0.000000 0.152864 -0.988247
vn 0.000000 0.152864 -0.988247
vn 0.000000 0.000000 1.000000
vn 0.000000 0.000000 1.000000
vn 0.000000 0.000000 1.000000
vn 0.000000 0.000000 1.000000
vn 0.000000 0.000000 1.000000
vn 0.000000 0.000000 1.000000
vn -1.000000 0.000000 0.000000
vn -1.000000 0.000000 0.000000
vn -1.000000 0.000000 0.000000
vn -1.000000 0.000000 0.000000
vn -1.000000 0.000000 0.000000
vn -1.000000 0.000000 0.000000
vn -1.000000 0.000002 0.000000
vn -1.000000 0.000002 0.000000
vn -1.000000 0.000002 0.000000
vn -1.000000 -0.000000 -0.000000
vn -1.000000 -0.000000 -0.000000
vn -1.000000 -0.000000 -0.000000
vn 0.000000 -0.717876 -0.696171
vn 0.000000 -0.717876 -0.696171
vn 0.000000 -0.717876 -0.696171
vn 0.000000 -0.717878 -0.696169
vn 0.000000 -0.717878 -0.696169
vn 0.000000 -0.717878 -0.696169
vn 0.000000 0.000000 1.000000
vn 0.000000 0.000000 1.000000
vn 0.000000 0.000000 1.000000
vn 0.000000 0.000000 1.000000
vn 0.000000 0.000000 1.000000
vn 0.000000 0.000000 1.000000
vn -0.000000 0.000000 -1.000000
vn -0.000000 0.000000 -1.000000
vn -0.000000 0.000000 -1.000000
vn -0.000000 0.000000 -1.000000
vn -0.000000 0.000000 -1.000000
vn -0.000000 0.000000 -1.000000
vn 0.000000 0.000000 1.000000
vn 0.000000 0.000000 1.000000
vn 0.000000 0.000000 1.000000
vn 0.000000 0.000000 1.000000
vn 0.000000 0.000000 1.000000
vn 0.000000 0.000000 1.000000
vn -1.000000 0.000000 -0.000000
vn -1.000000 0.000000 -0.000000
vn -1.000000 0.000000 -0.000000
vn -1.000000 0.000000 -0.000000
vn -1.000000 0.000000 -0.000000
vn -1.000000 0.000000 -0.000000
vn 0.000000 0.000000 1.000000
vn 0.000000 0.000000 1.000000
vn 0.000000 0.000000 1.000000
vn 0.000000 0.000000 1.000000
vn 0.000000 0.000000 1.000000
vn 0.000000 0.000000 1.000000
vn 1.000000 0.000000 0.000000
vn 1.000000 0.000000 0.000000
vn 1.000000 0.000000 0.000000
vn 1.000000 0.000000 0.000000
vn 1.000000 0.000000 0.000000
vn 1.000000 0.000000 0.000000
vn 0.000000 0.000000 -1.000000
vn 0.000000 0.000000 -1.000000
vn 0.000000 0.000000 -1.000000
vn 0.000000 0.000000 -1.000000
vn 0.000000 0.000000 -1.000000
vn 0.000000 0.000000 -1.000000
vn -1.000000 0.000000 0.000000
vn -1.000000 0.000000 0.000000
vn -1.000000 0.000000 0.000000
vn -1.000000 0.000000 0.000000
vn -1.000000 0.000000 0.000000
vn -1.000000 0.000000 0.000000
vn 0.000000 0.000000 1.000000
vn 0.000000 0.000000 1.000000
vn 0.000000 0.000000 1.000000
vn 0.000000 0.000000 1.000000
vn 0.000000 0.000000 1.000000
vn 0.000000 0.000000 1.000000
vn 0.513550 0.858060 0.000000
vn 0.513550 0.858060 0.000000
vn 0.513550 0.858059 0.000000
vn 0.513549 0.858060 0.000000
vn 0.513549 0.858060 0.000000
vn 0.513549 0.858060 0.000000
vn 0.000000 0.858060 -0.513550
vn 0.000000 0.858060 -0.513550
vn 0.000000 0.858060 -0.513549
vn 0.000000 0.858060 -0.513550
vn 0.000000 0.858060 -0.513550
vn 0.000000 0.858060 -0.513550
vn -1.000000 -0.000000 0.000000
vn -1.000000 -0.000000 0.000000
vn -1.000000 -0.000000 0.000000
vn -1.000000 -0.000002 -0.000000
vn -1.000000 -0.000002 -0.000000
vn -1.000000 -0.000002 -0.000000
vn 0.000000 0.000000 1.000000
vn 0.000000 0.000000 1.000000
vn 0.000000 0.000000 1.000000
vn 0.000000 0.000000 1.000000
vn 0.000000 0.000000 1.000000
vn 0.000000 0.000000 1.000000
vn 0.608509 -0.793547 0.000000
vn 0.608509 -0.793547 0.000000
vn 0.608509 -0.793547 0.000000
vn 0.608511 -0.793546 0.000000
vn 0.608511 -0.793546 0.000000
vn 0.608511 -0.793546 0.000000
vn 0.000000 -0.793546 -0.608510
vn 0.000000 -0.793546 -0.608510
vn 0.000000 -0.793546 -0.608510
vn 0.000000 -0.793547 -0.608510
vn 0.000000 -0.793547 -0.608510
vn 0.000000 -0.793547 -0.608510
vn -1.000000 -0.000000 -0.000000
vn -1.000000 -0.000000 -0.000000
vn -1.000000 -0.000000 -0.000000
vn -1.000000 0.000002 0.000000
vn -1.000000 0.000002 0.000000
vn -1.000000 0.000002 0.000000
vn 0.000000 0.000000 1.000000
vn 0.000000 0.000000 1.000000
vn 0.000000 0.000000 1.000000
vn 0.000000 0.000000 1.000000
vn 0.000000 0.000000 1.000000
vn 0.000000 0.000000 1.000000
vn 1.000000 0.000000 0.000000
vn 1.000000 0.000000 0.000000
vn 1.000000 0.000000 0.000000
vn 1.000000 0.000000 0.000000
vn 1.000000 0.000000 0.000000
vn 1.000000 0.000000 0.000000
vn 0.000000 0.000000 -1.000000
vn 0.000000 0.000000 -1.000000
vn 0.000000 0.000000 -1.000000
vn 0.000000 0.000000 -1.000000
vn 0.000000 0.000000 -1.000000
vn 0.000000 0.000000 -1.000000
vn -1.000000 0.000000 0.000000
vn -1.000000 0.000000 0.000000
vn -1.000000 0.000000 0.000000
vn -1.000000 0.000000 0.000000
vn -1.000000 0.000000 0.000000
vn -1.000000 0.000000 0.000000
vn 0.000000 0.000000 1.000000
vn 0.000000 0.000000 1.000000
vn 0.000000 0.000000 1.000000
vn 0.000000 0.000000 1.000000
vn 0.000000 0.000000 1.000000
vn 0.000000 0.000000 1.000000
vn 0.606328 0.795215 0.000000
vn 0.606328 0.795215 0.000000
vn 0.606328 0.795215 0.000000
vn 0.606326 0.795216 0.000000
vn 0.606326 0.795216 0.000000
vn 0.606326 0.795216 0.000000
vn 0.000000 0.795216 -0.606326
vn 0.000000 0.795216 -0.606326
vn 0.000000 0.795216 -0.606326
vn 0.000000 0.795215 -0.606327
vn 0.000000 0.795216 -0.606327
vn 0.000000 0.795215 -0.606327
vn -1.000000 -0.000000 0.000000
vn -1.000000 -0.000000 0.000000
vn -1.000000 -0.000000 0.000000
vn -1.000000 -0.000002 -0.000000
vn -1.000000 -0.000002 -0.000000
vn -1.000000 -0.000002 -0.000000
vn 1.000000 0.000000 0.000000
vn 1.000000 0.000000 0.000000
vn 1.000000 0.000000 0.000000
vn 1.000000 0.000000 0.000000
vn 1.000000 0.000000 0.000000
vn 1.000000 0.000000 0.000000
vn 0.696170 -0.717877 0.000000
vn 0.696170 -0.717877 0.000000
vn 0.696170 -0.717877 0.000000
vn 0.696170 -0.717877 0.000000
vn 0.696170 -0.717877 0.000000
vn 0.696170 -0.717877 0.000000
vn 0.988247 0.152864 0.000000
vn 0.988247 0.152864 0.000000
vn 0.988247 0.152864 0.000000
vn 0.988247 0.152864 0.000000
vn 0.988247 0.152864 0.000000
vn 0.988247 0.152864 0.000000
vn 0.000000 1.000000 0.000000
vn 0.000000 1.000000 0.000000
vn 0.000000 1.000000 0.000000
vn 0.000000 1.000000 0.000000
vn 0.000000 1.000000 0.000000
vn 0.000000 1.000000 0.000000
f 6/70/1 10/68/2 5/73/3
f 5/73/4 10/68/5 9/55/6
f 12/47/7 11/67/8 8/5/9
f 8/5/10 11/67/11 7/71/12
f 9/2/13 12/4/14 5/3/15
f 5/3/16 12/4/17 8/75/18
f 12/4/19 9/2/20 1/7/21
f 1/7/22 9/2/23 2/54/24
f 3/65/25 2/6/26 10/68/27
f 10/68/28 2/6/29 9/55/30
f 1/46/31 4/63/32 12/47/33
f 12/47/34 4/63/35 11/67/36
f 3/65/37 35/9/38 2/6/39
f 2/6/40 35/9/41 36/48/42
f 1/46/43 33/40/44 4/63/45
f 4/63/46 33/40/47 34/64/48
f 36/10/49 33/11/50 2/54/51
f 2/54/52 33/11/53 1/7/54
f 17/17/55 13/45/56 18/36/57
f 18/36/58 13/45/59 16/14/60
f 15/13/61 19/59/62 16/37/63
f 16/37/64 19/59/65 18/18/66
f 20/52/67 19/19/68 14/16/69
f 14/16/70 19/19/71 15/60/72
f 13/15/73 17/44/74 14/53/75
f 14/53/76 17/44/77 20/20/78
f 21/21/79 17/17/80 22/35/81
f 22/35/82 17/17/83 18/36/84
f 19/59/85 23/58/86 18/18/87
f 18/18/88 23/58/89 22/22/90
f 24/51/91 23/23/92 20/52/93
f 20/52/94 23/23/95 19/19/96
f 20/20/97 17/44/98 24/24/99
f 24/24/100 17/44/101 21/43/102
f 25/25/103 21/21/104 26/34/105
f 26/34/106 21/21/107 22/35/108
f 23/58/109 27/57/110 22/22/111
f 22/22/112 27/57/113 26/26/114
f 28/50/115 27/27/116 24/51/117
f 24/51/118 27/27/119 23/23/120
f 24/24/121 21/43/122 28/28/123
f 28/28/124 21/43/125 25/42/126
f 29/29/127 25/25/128 30/33/129
f 30/33/130 25/25/131 26/34/132
f 27/57/133 31/56/134 26/26/135
f 26/26/136 31/56/137 30/30/138
f 32/49/139 31/31/140 28/50/141
f 28/50/142 31/31/143 27/27/144
f 28/28/145 25/42/146 32/32/147
f 32/32/148 25/42/149 29/41/150
f 33/40/151 29/29/152 34/64/153
f 34/64/154 29/29/155 30/33/156
f 31/56/157 35/66/158 30/30/159
f 30/30/160 35/66/161 34/12/162
f 36/48/163 35/9/164 32/49/165
f 32/49/166 35/9/167 31/31/168
f 32/32/169 29/41/170 36/10/171
f 36/10/172 29/41/173 33/11/174
f 35/66/175 3/61/176 34/12/177
f 34/12/178 3/61/179 4/8/180
f 3/61/181 10/62/182 4/8/183
f 4/8/184 10/62/185 11/39/186
f 10/62/187 6/1/188 11/39/189
f 11/39/190 6/1/191 7/38/192
f 5/74/193 8/76/194 6/69/195
f 6/69/196 8/76/197 7/72/198
