# This file uses centimeters as units for non-parametric coordinates.

v 1.000000 2.579953 0.000000
v 1.000000 2.579953 1.000000
v -0.000000 2.579953 1.000000
v 0.000000 2.579953 0.000000
v 1.014605 3.000000 1.000000
v -0.014605 3.000000 1.000000
v -0.014605 3.000000 0.000000
v 1.014605 3.000000 0.000000
v 1.069198 2.647059 1.000000
v -0.069198 2.647059 1.000000
v -0.069198 2.647059 0.000000
v 1.069198 2.647059 0.000000
v 1.101755 0.000000 0.000000
v 1.101755 0.000000 1.000000
v -0.101755 -0.000000 1.000000
v -0.101755 -0.000000 0.000000
v 1.101755 0.396747 0.000000
v -0.101755 0.396747 0.000000
v -0.101755 0.396747 1.000000
v 1.101755 0.396747 1.000000
v 1.000000 0.457648 0.000000
v 0.000000 0.457648 0.000000
v -0.000000 0.457648 1.000000
v 1.000000 0.457648 1.000000
v 1.063621 0.506434 0.000000
v -0.063621 0.506434 0.000000
v -0.063621 0.506434 1.000000
v 1.063621 0.506434 1.000000
v 1.063621 0.617011 0.000000
v -0.063621 0.617011 0.000000
v -0.063621 0.617011 1.000000
v 1.063621 0.617011 1.000000
v 1.000000 0.665520 0.000000
v 0.000000 0.665520 0.000000
v -0.000000 0.665520 1.000000
v 1.000000 0.665520 1.000000
v -0.014605 3.000000 0.505981
v -0.069198 2.647059 0.505981
v 0.000000 0.665520 0.203452
v 0.000000 0.665520 0.796548
v 1.014605 3.000000 0.513328
v 1.069198 2.647059 0.513328
v 1.000000 0.665520 0.796548
v 1.000000 0.665520 0.203452
v 1.000000 1.901297 0.203452
v 1.000000 1.901297 0.000000
v 0.000000 1.901297 0.000000
v 0.000000 1.901297 0.203452
v 0.000000 1.901297 0.796548
v -0.000000 1.901297 1.000000
v 1.000000 1.901297 1.000000
v 1.000000 1.901297 0.796548
v 1.000000 2.305194 0.261114
v 0.000000 2.305194 0.261114
v 0.000000 2.305194 0.738886
v 1.000000 2.305194 0.738886
v 1.000000 2.579953 0.513328
v 1.000000 2.497517 0.513328
v 0.000000 2.579953 0.505981
v 0.000000 2.497517 0.505981
vt 0.331942 0.990664
vt 0.634369 0.855253
vt 0.366026 0.735696
vt 0.022897 0.852943
vt 0.675573 0.369240
vt 0.019022 0.263054
vt 0.325558 0.018814
vt 0.990510 0.283754
vt 0.820018 0.283297
vt 0.629464 0.117574
vt 0.018233 0.143087
vt 0.662520 0.334056
vt 0.629675 0.149300
vt 0.018473 0.179627
vt 0.675754 0.342097
vt 0.629817 0.170750
vt 0.018636 0.204330
vt 0.667404 0.348412
vt 0.630014 0.200333
vt 0.018860 0.238402
vt 0.667308 0.362851
vt 0.985871 0.364741
vt 0.985806 0.350231
vt 0.977428 0.343867
vt 0.990745 0.335815
vt 0.017430 0.020838
vt 0.023815 0.992688
vt 0.023092 0.882644
vt 0.846330 0.371737
vt 0.628758 0.011430
vt 0.633562 0.733917
vt 0.633734 0.759705
vt 0.362620 0.223516
vt 0.362478 0.202112
vt 0.362281 0.172528
vt 0.362139 0.151079
vt 0.361928 0.119353
vt 0.366197 0.761485
vt 0.806025 0.674956
vt 0.326987 0.236378
vt 0.326763 0.202306
vt 0.326601 0.177602
vt 0.326361 0.141062
vt 0.662866 0.282249
vt 0.331024 0.850919
vt 0.331219 0.880620
vt 0.984447 0.131641
vt 0.178999 0.881620
vt 0.737660 0.880581
vt 0.794586 0.879663
vt 0.726673 0.134303
vt 0.496400 0.760619
vt 0.796134 0.975644
vt 0.361222 0.013209
vt 0.739208 0.976562
vt 0.620597 0.978475
vt 0.847062 0.533898
vt 0.021523 0.643831
vt 0.619049 0.882493
vt 0.913198 0.877750
vt 0.674497 0.530606
vt 0.364819 0.554131
vt 0.914746 0.973731
vt 0.581437 0.979106
vt 0.579889 0.883125
vt 0.952357 0.877118
vt 0.953905 0.973099
vt 0.496228 0.734830
vt 0.982356 0.972641
vt 0.178804 0.851919
vt 0.550004 0.883607
vt 0.178637 0.826518
vt 0.250012 0.766787
vt 0.496082 0.712775
vt 0.563216 0.660873
vt 0.435394 0.661723
vt 0.419249 0.553769
vt 0.102797 0.767754
vt 0.266961 0.642218
vt 0.084212 0.643419
vt 0.577924 0.552714
vt 0.417051 0.223154
vt 0.264460 0.261442
vt 0.081711 0.262642
vt 0.575726 0.222099
vt 0.805075 0.531477
vt 0.329650 0.641806
vt 0.978284 0.533306
vt 0.632355 0.552352
vt 0.806151 0.370111
vt 0.327149 0.261030
vt 0.977551 0.371145
vt 0.630156 0.221737
vt 0.814501 0.363832
vt 0.837952 0.365410
vt 0.814597 0.349393
vt 0.837887 0.350899
vt 0.806332 0.342967
vt 0.846207 0.344460
vt 0.819672 0.335104
vt 0.832818 0.336529
vt 0.832583 0.284467
vt 0.978686 0.622360
vt 0.673906 0.619224
vt 0.804484 0.620094
vt 0.847464 0.622953
vt 0.987806 0.631125
vt 0.838424 0.631799
vt 0.664812 0.627926
vt 0.813461 0.628917
vt 0.981348 0.876650
vt 0.550994 0.979598
vt 0.497035 0.856166
vt 0.727062 0.256196
vt 0.366833 0.857032
vt 0.726263 0.005733
vt 0.179722 0.991664
vt 0.980852 0.677471
vt 0.984841 0.255374
vt 0.671633 0.674060
vt 0.845797 0.678081
vt 0.984042 0.004911
vn 0.000000 0.000000 1.000000
vn 0.000000 0.000000 1.000000
vn 0.000000 0.000000 1.000000
vn 0.000000 0.000000 1.000000
vn 0.000000 0.000000 1.000000
vn 0.000000 0.000000 1.000000
vn 0.000000 0.000000 -1.000000
vn 0.000000 0.000000 -1.000000
vn 0.000000 0.000000 -1.000000
vn 0.000000 0.000000 -1.000000
vn 0.000000 0.000000 -1.000000
vn 0.000000 0.000000 -1.000000
vn 0.000000 0.000000 1.000000
vn 0.000000 0.000000 1.000000
vn 0.000000 0.000000 1.000000
vn 0.000000 0.000000 1.000000
vn 0.000000 0.000000 1.000000
vn 0.000000 0.000000 1.000000
vn 0.000000 0.000000 -1.000000
vn 0.000000 0.000000 -1.000000
vn 0.000000 0.000000 -1.000000
vn 0.000000 0.000000 -1.000000
vn 0.000000 0.000000 -1.000000
vn 0.000000 0.000000 -1.000000
vn 0.000000 0.000000 1.000000
vn 0.000000 0.000000 1.000000
vn 0.000000 0.000000 1.000000
vn 0.000000 0.000000 1.000000
vn 0.000000 0.000000 1.000000
vn 0.000000 0.000000 1.000000
vn 0.000000 0.000000 -1.000000
vn 0.000000 0.000000 -1.000000
vn 0.000000 0.000000 -1.000000
vn 0.000000 0.000000 -1.000000
vn 0.000000 0.000000 -1.000000
vn 0.000000 0.000000 -1.000000
vn 0.000000 0.000000 -1.000000
vn 0.000000 0.000000 -1.000000
vn 0.000000 0.000000 -1.000000
vn 0.000000 0.000000 -1.000000
vn 0.000000 0.000000 -1.000000
vn 0.000000 0.000000 -1.000000
vn 0.000000 0.000000 1.000000
vn 0.000000 0.000000 1.000000
vn 0.000000 0.000000 1.000000
vn -0.000000 0.000000 1.000000
vn -0.000000 0.000000 1.000000
vn -0.000000 0.000000 1.000000
vn 0.000000 0.000000 -1.000000
vn 0.000000 0.000000 -1.000000
vn 0.000000 0.000000 -1.000000
vn 0.000000 0.000000 -1.000000
vn 0.000000 0.000000 -1.000000
vn 0.000000 0.000000 -1.000000
vn 0.000000 0.000000 1.000000
vn 0.000000 0.000000 1.000000
vn 0.000000 0.000000 1.000000
vn 0.000000 0.000000 1.000000
vn 0.000000 0.000000 1.000000
vn 0.000000 0.000000 1.000000
vn 0.000000 0.000000 -1.000000
vn 0.000000 0.000000 -1.000000
vn 0.000000 0.000000 -1.000000
vn 0.000000 0.000000 -1.000000
vn 0.000000 0.000000 -1.000000
vn 0.000000 0.000000 -1.000000
vn 0.000000 0.000000 1.000000
vn 0.000000 0.000000 1.000000
vn 0.000000 0.000000 1.000000
vn 0.000000 0.000000 1.000000
vn 0.000000 0.000000 1.000000
vn 0.000000 0.000000 1.000000
vn 0.000000 0.000000 -1.000000
vn 0.000000 0.000000 -1.000000
vn 0.000000 0.000000 -1.000000
vn 0.000000 0.000000 -1.000000
vn 0.000000 0.000000 -1.000000
vn 0.000000 0.000000 -1.000000
vn 0.000000 0.000000 1.000000
vn 0.000000 0.000000 1.000000
vn 0.000000 0.000000 1.000000
vn 0.000000 0.000000 1.000000
vn 0.000000 0.000000 1.000000
vn 0.000000 0.000000 1.000000
vn 0.000000 0.000000 -1.000000
vn 0.000000 0.000000 -1.000000
vn 0.000000 0.000000 -1.000000
vn 0.000000 0.000000 -1.000000
vn 0.000000 0.000000 -1.000000
vn 0.000000 0.000000 -1.000000
vn -0.606327 0.795216 0.000000
vn -0.606327 0.795216 0.000000
vn -0.606327 0.795216 0.000000
vn 0.000000 0.000000 1.000000
vn 0.000000 0.000000 1.000000
vn 0.000000 0.000000 1.000000
vn 0.000000 0.000000 1.000000
vn 0.000000 0.000000 1.000000
vn 0.000000 0.000000 1.000000
vn -1.000000 0.000000 -0.000000
vn -1.000000 0.000000 -0.000000
vn -1.000000 0.000000 -0.000000
vn -0.696170 -0.717877 0.000000
vn -0.696170 -0.717877 0.000000
vn -0.696170 -0.717877 0.000000
vn -0.988247 0.152864 0.000000
vn -0.988247 0.152864 0.000000
vn -0.988247 0.152864 0.000000
vn -0.988247 0.152864 0.000000
vn -0.988247 0.152864 0.000000
vn -0.988247 0.152864 0.000000
vn -0.988247 0.152864 0.000000
vn -0.988247 0.152864 0.000000
vn -0.988247 0.152864 0.000000
vn -0.988247 0.152864 0.000000
vn -0.988247 0.152864 0.000000
vn -0.988247 0.152864 0.000000
vn -0.696170 -0.717877 0.000000
vn -0.696170 -0.717877 0.000000
vn -0.696170 -0.717877 0.000000
vn -1.000000 0.000000 0.000000
vn -1.000000 0.000000 0.000000
vn -1.000000 0.000000 0.000000
vn -0.606327 0.795216 0.000000
vn -0.606327 0.795216 0.000000
vn -0.606327 0.795216 0.000000
vn -0.696170 -0.717877 0.000000
vn -0.696170 -0.717877 0.000000
vn -0.696170 -0.717877 0.000000
vn -1.000000 -0.000000 -0.000000
vn -1.000000 -0.000000 -0.000000
vn -1.000000 -0.000000 -0.000000
vn -1.000000 0.000000 0.000000
vn -1.000000 0.000000 0.000000
vn -1.000000 0.000000 0.000000
vn -0.606327 0.795216 -0.000000
vn -0.606326 0.795216 -0.000000
vn -0.606327 0.795216 -0.000000
vn -0.606327 0.795216 0.000000
vn -0.606327 0.795216 0.000000
vn -0.606327 0.795216 0.000000
vn -1.000000 0.000000 -0.000000
vn -1.000000 0.000000 -0.000000
vn -1.000000 0.000000 -0.000000
vn -1.000000 0.000000 -0.000000
vn -1.000000 0.000000 -0.000000
vn -1.000000 0.000000 -0.000000
vn -0.608509 -0.793547 0.000000
vn -0.608509 -0.793547 0.000000
vn -0.608509 -0.793547 0.000000
vn -0.608510 -0.793547 0.000000
vn -0.608510 -0.793547 0.000000
vn -0.608510 -0.793547 0.000000
vn -0.513550 0.858060 0.000000
vn -0.513550 0.858060 0.000000
vn -0.513550 0.858060 0.000000
vn -0.513550 0.858060 0.000000
vn -0.513550 0.858060 0.000000
vn -0.513550 0.858060 0.000000
vn -1.000000 0.000000 0.000000
vn -1.000000 0.000000 0.000000
vn -1.000000 0.000000 0.000000
vn -1.000000 0.000000 0.000000
vn -1.000000 0.000000 0.000000
vn -1.000000 0.000000 0.000000
vn 0.606326 0.795216 0.000000
vn 0.606326 0.795216 0.000000
vn 0.606326 0.795216 0.000000
vn 1.000000 0.000000 0.000000
vn 1.000000 0.000000 0.000000
vn 1.000000 0.000000 0.000000
vn 0.696169 -0.717878 0.000000
vn 0.696169 -0.717878 0.000000
vn 0.696169 -0.717878 0.000000
vn 0.988247 0.152864 0.000000
vn 0.988247 0.152864 0.000000
vn 0.988247 0.152864 0.000000
vn 0.988247 0.152864 0.000000
vn 0.988247 0.152864 0.000000
vn 0.988247 0.152864 0.000000
vn 0.988247 0.152864 0.000000
vn 0.988247 0.152864 0.000000
vn 0.988247 0.152864 0.000000
vn 0.988247 0.152864 0.000000
vn 0.988247 0.152864 0.000000
vn 0.988247 0.152864 0.000000
vn 0.696171 -0.717876 0.000000
vn 0.696171 -0.717876 0.000000
vn 0.696171 -0.717876 0.000000
vn 1.000000 0.000000 0.000000
vn 1.000000 0.000000 0.000000
vn 1.000000 0.000000 0.000000
vn 0.606326 0.795216 0.000000
vn 0.606326 0.795216 0.000000
vn 0.606326 0.795216 0.000000
vn 0.696171 -0.717876 0.000000
vn 0.696171 -0.717876 0.000000
vn 0.696171 -0.717876 0.000000
vn 1.000000 0.000000 0.000000
vn 1.000000 0.000000 0.000000
vn 1.000000 0.000000 0.000000
vn 1.000000 0.000000 0.000000
vn 1.000000 0.000000 0.000000
vn 1.000000 0.000000 0.000000
vn 0.606327 0.795215 0.000000
vn 0.606327 0.795215 0.000000
vn 0.606327 0.795215 0.000000
vn 0.606326 0.795217 0.000000
vn 0.606326 0.795217 0.000000
vn 0.606326 0.795217 0.000000
vn 1.000000 0.000000 0.000000
vn 1.000000 0.000000 0.000000
vn 1.000000 0.000000 0.000000
vn 1.000000 0.000000 0.000000
vn 1.000000 0.000000 0.000000
vn 1.000000 0.000000 0.000000
vn 0.608509 -0.793547 0.000000
vn 0.608509 -0.793547 0.000000
vn 0.608509 -0.793547 0.000000
vn 0.608510 -0.793546 0.000000
vn 0.608510 -0.793546 0.000000
vn 0.608510 -0.793546 0.000000
vn 0.513550 0.858060 0.000000
vn 0.513550 0.858060 0.000000
vn 0.513550 0.858060 0.000000
vn 0.513549 0.858060 0.000000
vn 0.513549 0.858060 0.000000
vn 0.513549 0.858060 0.000000
vn 1.000000 0.000000 0.000000
vn 1.000000 0.000000 0.000000
vn 1.000000 0.000000 0.000000
vn 1.000000 0.000000 0.000000
vn 1.000000 0.000000 0.000000
vn 1.000000 0.000000 0.000000
vn 1.000000 0.000000 0.000000
vn 1.000000 0.000000 0.000000
vn 1.000000 0.000000 0.000000
vn 1.000000 0.000000 0.000000
vn 1.000000 0.000000 0.000000
vn 1.000000 0.000000 0.000000
vn 0.000000 0.000000 -1.000000
vn 0.000000 0.000000 -1.000000
vn 0.000000 0.000000 -1.000000
vn 0.000000 0.000000 -1.000000
vn 0.000000 0.000000 -1.000000
vn 0.000000 0.000000 -1.000000
vn -1.000000 0.000000 0.000000
vn -1.000000 0.000000 0.000000
vn -1.000000 0.000000 0.000000
vn -1.000000 0.000000 0.000000
vn -1.000000 0.000000 0.000000
vn -1.000000 0.000000 0.000000
vn -1.000000 0.000000 -0.000000
vn -1.000000 0.000000 -0.000000
vn -1.000000 0.000000 -0.000000
vn -1.000000 0.000000 -0.000000
vn -1.000000 0.000000 -0.000000
vn -1.000000 0.000000 -0.000000
vn 0.000000 0.000000 1.000000
vn 0.000000 0.000000 1.000000
vn 0.000000 0.000000 1.000000
vn 0.000000 0.000000 1.000000
vn 0.000000 0.000000 1.000000
vn 0.000000 0.000000 1.000000
vn 1.000000 0.000000 0.000000
vn 1.000000 0.000000 0.000000
vn 1.000000 0.000000 0.000000
vn 1.000000 0.000000 0.000000
vn 1.000000 0.000000 0.000000
vn 1.000000 0.000000 0.000000
vn 1.000000 0.000000 0.000000
vn 1.000000 0.000000 0.000000
vn 1.000000 0.000000 0.000000
vn -1.000000 0.000000 0.000000
vn -1.000000 0.000000 0.000000
vn -1.000000 0.000000 0.000000
vn -1.000000 -0.000000 -0.000000
vn -1.000000 -0.000000 -0.000000
vn -1.000000 -0.000000 -0.000000
vn 1.000000 0.000000 0.000000
vn 1.000000 0.000000 0.000000
vn 1.000000 0.000000 0.000000
vn 0.696170 -0.717877 0.000000
vn 0.696170 -0.717877 0.000000
vn 0.696170 -0.717877 0.000000
vn 1.000000 0.000000 0.000000
vn 1.000000 0.000000 0.000000
vn 1.000000 0.000000 0.000000
vn 1.000000 0.000000 0.000000
vn 1.000000 0.000000 0.000000
vn 1.000000 0.000000 0.000000
vn -0.696170 -0.717877 0.000000
vn -0.696170 -0.717877 0.000000
vn -0.696170 -0.717877 0.000000
vn -1.000000 0.000000 0.000000
vn -1.000000 0.000000 0.000000
vn -1.000000 0.000000 0.000000
vn -1.000000 0.000000 0.000000
vn -1.000000 0.000000 0.000000
vn -1.000000 0.000000 0.000000
vn 0.000000 0.000000 -1.000000
vn 0.000000 0.000000 -1.000000
vn 0.000000 0.000000 -1.000000
vn 0.000000 0.000000 -1.000000
vn 0.000000 0.000000 -1.000000
vn 0.000000 0.000000 -1.000000
vn 0.000000 -0.141332 -0.989962
vn 0.000000 -0.141332 -0.989962
vn 0.000000 -0.141332 -0.989962
vn 0.000000 -0.141331 -0.989962
vn 0.000000 -0.141331 -0.989962
vn 0.000000 -0.141331 -0.989962
vn 0.004677 -0.771078 -0.636724
vn 0.004677 -0.771078 -0.636724
vn 0.004677 -0.771078 -0.636724
vn 0.000000 -0.760943 -0.648818
vn 0.000000 -0.760943 -0.648818
vn 0.000000 -0.760943 -0.648818
vn 0.000000 -0.786432 0.617677
vn 0.000000 -0.786432 0.617677
vn 0.000000 -0.786432 0.617677
vn -0.004454 -0.795181 0.606356
vn -0.004454 -0.795181 0.606356
vn -0.004454 -0.795181 0.606356
vn 0.000000 -0.141333 0.989962
vn 0.000000 -0.141332 0.989962
vn 0.000000 -0.141333 0.989962
vn 0.000000 -0.141331 0.989962
vn 0.000000 -0.141331 0.989962
vn 0.000000 -0.141331 0.989962
vn 0.000000 0.000000 1.000000
vn 0.000000 0.000000 1.000000
vn 0.000000 0.000000 1.000000
vn 0.000000 0.000000 1.000000
vn 0.000000 0.000000 1.000000
vn 0.000000 0.000000 1.000000
vn 0.000000 1.000000 0.000000
vn 0.000000 1.000000 0.000000
vn 0.000000 1.000000 0.000000
vn 0.000000 1.000000 0.000000
vn 0.000000 1.000000 0.000000
vn 0.000000 1.000000 0.000000
vn 0.000000 1.000000 0.000000
vn 0.000000 1.000000 0.000000
vn 0.000000 1.000000 0.000000
vn 0.000000 1.000000 0.000000
vn 0.000000 1.000000 0.000000
vn 0.000000 1.000000 0.000000
vn 0.000000 1.000000 0.000000
vn 0.000000 1.000000 0.000000
vn 0.000000 1.000000 0.000000
vn 0.000000 1.000000 0.000000
vn 0.000000 1.000000 0.000000
vn 0.000000 1.000000 0.000000
f 6/120/1 10/109/2 5/39/3
f 5/39/4 10/109/5 9/110/6
f 12/108/7 11/107/8 8/121/9
f 8/121/10 11/107/11 7/118/12
f 3/104/13 2/105/14 10/109/15
f 10/109/16 2/105/17 9/110/18
f 1/106/19 4/103/20 12/108/21
f 12/108/22 4/103/23 11/107/24
f 3/104/25 50/61/26 2/105/27
f 2/105/28 50/61/29 51/86/30
f 1/106/31 46/57/32 4/103/33
f 4/103/34 46/57/35 47/88/36
f 17/101/37 13/102/38 18/25/39
f 18/25/40 13/102/41 16/8/42
f 20/100/43 19/12/44 14/9/45
f 14/9/46 19/12/47 15/44/48
f 21/99/49 17/101/50 22/24/51
f 22/24/52 17/101/53 18/25/54
f 24/98/55 23/15/56 20/100/57
f 20/100/58 23/15/59 19/12/60
f 25/97/61 21/99/62 26/23/63
f 26/23/64 21/99/65 22/24/66
f 28/96/67 27/18/68 24/98/69
f 24/98/70 27/18/71 23/15/72
f 29/95/73 25/97/74 30/22/75
f 30/22/76 25/97/77 26/23/78
f 32/94/79 31/21/80 28/96/81
f 28/96/82 31/21/83 27/18/84
f 33/29/85 29/95/86 34/92/87
f 34/92/88 29/95/89 30/22/90
f 31/40/91 35/91/92 40/83/93
f 36/90/94 35/5/95 32/94/96
f 32/94/97 35/5/98 31/21/99
f 50/87/100 3/45/101 55/73/102
f 3/45/103 10/46/104 38/48/105
f 10/46/106 6/1/107 38/48/108
f 38/48/109 6/1/110 37/117/111
f 38/48/112 37/117/113 11/28/114
f 11/28/115 37/117/116 7/27/117
f 4/4/118 38/48/119 11/28/120
f 54/78/121 4/4/122 47/58/123
f 30/20/124 39/84/125 34/6/126
f 3/45/127 38/48/128 59/70/129
f 3/45/130 59/70/131 55/73/132
f 55/73/133 59/70/134 60/72/135
f 31/40/136 40/83/137 30/20/138
f 30/20/139 40/83/140 39/84/141
f 27/41/142 31/40/143 26/17/144
f 26/17/145 31/40/146 30/20/147
f 23/42/148 27/41/149 22/14/150
f 22/14/151 27/41/152 26/17/153
f 19/43/154 23/42/155 18/11/156
f 18/11/157 23/42/158 22/14/159
f 16/26/160 15/7/161 18/11/162
f 18/11/163 15/7/164 19/43/165
f 29/19/166 33/93/167 44/85/168
f 46/89/169 1/31/170 53/75/171
f 1/31/172 12/32/173 42/52/174
f 12/32/175 8/2/176 42/52/177
f 42/52/178 8/2/179 41/113/180
f 42/52/181 41/113/182 9/38/183
f 9/38/184 41/113/185 5/115/186
f 2/3/187 42/52/188 9/38/189
f 56/76/190 2/3/191 51/62/192
f 32/34/193 43/82/194 36/33/195
f 1/31/196 42/52/197 57/68/198
f 58/74/199 53/75/200 57/68/201
f 57/68/202 53/75/203 1/31/204
f 29/19/205 44/85/206 32/34/207
f 32/34/208 44/85/209 43/82/210
f 25/16/211 29/19/212 28/35/213
f 28/35/214 29/19/215 32/34/216
f 21/13/217 25/16/218 24/36/219
f 24/36/220 25/16/221 28/35/222
f 17/10/223 21/13/224 20/37/225
f 20/37/226 21/13/227 24/36/228
f 13/30/229 17/10/230 14/54/231
f 14/54/232 17/10/233 20/37/234
f 33/93/235 46/89/236 44/85/237
f 44/85/238 46/89/239 45/81/240
f 47/88/241 46/57/242 34/92/243
f 34/92/244 46/57/245 33/29/246
f 39/84/247 48/80/248 34/6/249
f 34/6/250 48/80/251 47/58/252
f 35/91/253 50/87/254 40/83/255
f 40/83/256 50/87/257 49/79/258
f 51/86/259 50/61/260 36/90/261
f 36/90/262 50/61/263 35/5/264
f 43/82/265 52/77/266 36/33/267
f 36/33/268 52/77/269 51/62/270
f 46/89/271 53/75/272 45/81/273
f 48/80/274 54/78/275 47/58/276
f 50/87/277 55/73/278 49/79/279
f 52/77/280 56/76/281 51/62/282
f 57/68/283 42/52/284 2/3/285
f 57/68/286 2/3/287 58/74/288
f 56/76/289 58/74/290 2/3/291
f 59/70/292 38/48/293 4/4/294
f 60/72/295 59/70/296 54/78/297
f 54/78/298 59/70/299 4/4/300
f 40/50/301 49/60/302 43/53/303
f 43/53/304 49/60/305 52/63/306
f 49/60/307 55/66/308 52/63/309
f 52/63/310 55/66/311 56/67/312
f 60/111/313 58/69/314 55/66/315
f 55/66/316 58/69/317 56/67/318
f 54/65/319 53/64/320 60/71/321
f 60/71/322 53/64/323 58/112/324
f 54/65/325 48/59/326 53/64/327
f 53/64/328 48/59/329 45/56/330
f 48/59/331 39/49/332 45/56/333
f 45/56/334 39/49/335 44/55/336
f 39/49/337 40/50/338 44/55/339
f 44/55/340 40/50/341 43/53/342
f 7/122/343 37/47/344 8/116/345
f 8/116/346 37/47/347 41/51/348
f 37/47/349 6/119/350 41/51/351
f 41/51/352 6/119/353 5/114/354
