# This file uses centimeters as units for non-parametric coordinates.

v 1.000000 2.579953 0.000000
v 1.000000 2.579953 1.000000
v -0.000000 2.579953 1.000000
v 0.000000 2.579953 0.000000
v 1.014605 3.000000 1.000000
v -0.014605 3.000000 1.000000
v -0.014605 3.000000 0.000000
v 1.014605 3.000000 0.000000
v 1.069198 2.647059 1.000000
v -0.069198 2.647059 1.000000
v -0.069198 2.647059 0.000000
v 1.069198 2.647059 0.000000
v 1.101755 0.000000 0.000000
v 1.101755 0.000000 1.000000
v -0.101755 -0.000000 1.000000
v -0.101755 0.000000 0.000000
v 1.101755 0.396747 0.000000
v -0.101755 0.396747 0.000000
v -0.101755 0.396747 1.000000
v 1.101755 0.396747 1.000000
v 1.000000 0.457648 0.000000
v 0.000000 0.457648 0.000000
v -0.000000 0.457648 1.000000
v 1.000000 0.457648 1.000000
v 1.063621 0.506434 0.000000
v -0.063621 0.506434 0.000000
v -0.063621 0.506434 1.000000
v 1.063621 0.506434 1.000000
v 1.063621 0.617011 0.000000
v -0.063621 0.617011 0.000000
v -0.063621 0.617011 1.000000
v 1.063621 0.617011 1.000000
v 1.000000 0.665520 0.000000
v 0.000000 0.665520 0.000000
v -0.000000 0.665520 1.000000
v 1.000000 0.665520 1.000000
v 1.014605 3.000000 0.188726
v 1.069198 2.647059 0.188726
v 1.000000 2.579953 0.296539
v 1.000000 0.665520 0.296539
v 1.063621 0.617011 0.257843
v 1.063621 0.506434 0.257843
v 1.000000 0.457648 0.188726
v 1.101755 0.396747 0.188726
v 1.101755 0.000000 0.188726
v 1.014605 3.000000 0.811274
v 1.069198 2.647059 0.811274
v 1.000000 2.579953 0.703461
v 1.000000 0.665520 0.703461
v 1.063621 0.617011 0.742157
v 1.063621 0.506434 0.742157
v 1.000000 0.457648 0.811274
v 1.101755 0.396747 0.811274
v 1.101755 0.000000 0.811274
v 1.191702 2.647059 0.265895
v 1.191702 2.647059 0.734105
v 1.137109 3.000000 0.265895
v 1.137109 3.000000 0.734105
v 1.122504 2.579953 0.346980
v 1.122504 2.579953 0.653020
v 1.122504 0.665520 0.653020
v 1.122504 0.665520 0.346980
v 1.186126 0.617011 0.682123
v 1.186126 0.617011 0.317877
v 1.186126 0.506434 0.682123
v 1.186126 0.506434 0.317877
v 1.122504 0.457648 0.734105
v 1.122504 0.457648 0.265895
v 1.224259 0.396747 0.734105
v 1.224259 0.396747 0.265895
v 1.224259 0.000000 0.265895
v 1.224259 0.000000 0.734105
vt 0.445024 0.057968
vt 0.033253 0.759808
vt 0.033255 0.853626
vt 0.427522 0.759803
vt 0.716016 0.713237
vt 0.831286 0.643725
vt 0.427522 0.734481
vt 0.692688 0.169820
vt 0.719374 0.429586
vt 0.033243 0.231572
vt 0.427512 0.231567
vt 0.693437 0.643616
vt 0.446257 0.838554
vt 0.991984 0.079434
vt 0.427508 0.025064
vt 0.842608 0.355110
vt 0.857645 0.124306
vt 0.693589 0.739973
vt 0.707984 0.399522
vt 0.033241 0.129293
vt 0.869045 0.131068
vt 0.693542 0.710625
vt 0.719369 0.406332
vt 0.033241 0.160446
vt 0.861955 0.136549
vt 0.693511 0.690783
vt 0.712253 0.411792
vt 0.033242 0.181507
vt 0.862004 0.148908
vt 0.693468 0.663416
vt 0.712255 0.424161
vt 0.033242 0.210555
vt 0.987993 0.148412
vt 0.987944 0.136053
vt 0.980812 0.130629
vt 0.992158 0.123777
vt 0.693744 0.838163
vt 0.692511 0.057577
vt 0.692650 0.145964
vt 0.869136 0.154301
vt 0.427511 0.210550
vt 0.427511 0.181502
vt 0.427510 0.160440
vt 0.427510 0.129288
vt 0.857471 0.079963
vt 0.869977 0.368273
vt 0.862273 0.375803
vt 0.427524 0.853621
vt 0.831241 0.429563
vt 0.838357 0.424135
vt 0.838354 0.411765
vt 0.831236 0.406309
vt 0.842618 0.399494
vt 0.033239 0.025069
vt 0.033253 0.734486
vt 0.839029 0.651230
vt 0.832930 0.690714
vt 0.445981 0.663807
vt 0.446025 0.691174
vt 0.446056 0.711016
vt 0.446102 0.740364
vt 0.707975 0.355139
vt 0.445201 0.170211
vt 0.445164 0.146355
vt 0.339959 0.853623
vt 0.310992 0.720945
vt 0.295014 0.690396
vt 0.300819 0.235331
vt 0.299401 0.216300
vt 0.305099 0.185538
vt 0.330292 0.171713
vt 0.315988 0.149041
vt 0.306705 0.033468
vt 0.149037 0.822850
vt 0.138822 0.721569
vt 0.154254 0.688727
vt 0.160022 0.234286
vt 0.162521 0.215582
vt 0.155333 0.184737
vt 0.131045 0.170621
vt 0.146850 0.147647
vt 0.120804 0.025067
vt 0.277514 0.718582
vt 0.275572 0.801523
vt 0.174613 0.798257
vt 0.172606 0.718509
vt 0.263104 0.695030
vt 0.186669 0.693074
vt 0.268484 0.231980
vt 0.191972 0.231899
vt 0.271279 0.214171
vt 0.189532 0.212688
vt 0.273930 0.188604
vt 0.187290 0.187268
vt 0.291755 0.171212
vt 0.168884 0.170499
vt 0.283532 0.148035
vt 0.176509 0.144699
vt 0.280693 0.056517
vt 0.181913 0.057605
vt 0.120806 0.129291
vt 0.152452 0.036942
vt 0.120807 0.160444
vt 0.120807 0.181505
vt 0.120808 0.210553
vt 0.120808 0.231570
vt 0.120818 0.734484
vt 0.120819 0.759806
vt 0.120820 0.853625
vt 0.339944 0.129290
vt 0.339942 0.025066
vt 0.339945 0.160442
vt 0.339945 0.181503
vt 0.339946 0.210551
vt 0.339946 0.231569
vt 0.339956 0.734482
vt 0.339957 0.759804
vt 0.301664 0.824143
vt 0.981745 0.367833
vt 0.980903 0.153862
vt 0.719419 0.643749
vt 0.445950 0.644007
vt 0.989508 0.375303
vt 0.711680 0.651257
vt 0.976892 0.966795
vt 0.717795 0.690738
vt 0.983561 0.414774
vt 0.976935 0.713281
vt 0.868529 0.415227
vt 0.715973 0.966750
vn 0.000000 0.000000 1.000000
vn 0.000000 0.000000 1.000000
vn 0.000000 0.000000 1.000000
vn 0.000000 0.000000 1.000000
vn 0.000000 0.000000 1.000000
vn 0.000000 0.000000 1.000000
vn 0.000000 0.000000 -1.000000
vn 0.000000 0.000000 -1.000000
vn 0.000000 0.000000 -1.000000
vn 0.000000 0.000000 -1.000000
vn 0.000000 0.000000 -1.000000
vn 0.000000 0.000000 -1.000000
vn 0.988247 0.152864 0.000000
vn 0.988247 0.152864 0.000000
vn 0.988247 0.152864 0.000000
vn 0.988247 0.152864 0.000000
vn 0.988247 0.152864 0.000000
vn 0.988247 0.152864 0.000000
vn 0.696171 -0.717876 0.000000
vn 0.696171 -0.717876 0.000000
vn 0.696171 -0.717876 0.000000
vn 0.696170 -0.717877 0.000000
vn 0.696170 -0.717877 0.000000
vn 0.696170 -0.717877 0.000000
vn 0.000000 0.000000 1.000000
vn 0.000000 0.000000 1.000000
vn 0.000000 0.000000 1.000000
vn 0.000000 0.000000 1.000000
vn 0.000000 0.000000 1.000000
vn 0.000000 0.000000 1.000000
vn 0.000000 0.000000 -1.000000
vn 0.000000 0.000000 -1.000000
vn 0.000000 0.000000 -1.000000
vn 0.000000 0.000000 -1.000000
vn 0.000000 0.000000 -1.000000
vn 0.000000 0.000000 -1.000000
vn 0.000000 0.000000 1.000000
vn 0.000000 0.000000 1.000000
vn 0.000000 0.000000 1.000000
vn 0.000000 0.000000 1.000000
vn 0.000000 0.000000 1.000000
vn 0.000000 0.000000 1.000000
vn 0.000000 0.000000 -1.000000
vn 0.000000 0.000000 -1.000000
vn 0.000000 0.000000 -1.000000
vn 0.000000 0.000000 -1.000000
vn 0.000000 0.000000 -1.000000
vn 0.000000 0.000000 -1.000000
vn 1.000000 0.000000 0.000000
vn 1.000000 0.000000 0.000000
vn 1.000000 0.000000 0.000000
vn 1.000000 0.000000 0.000000
vn 1.000000 0.000000 0.000000
vn 1.000000 0.000000 0.000000
vn 0.000000 0.000000 -1.000000
vn 0.000000 0.000000 -1.000000
vn 0.000000 0.000000 -1.000000
vn 0.000000 0.000000 -1.000000
vn 0.000000 0.000000 -1.000000
vn 0.000000 0.000000 -1.000000
vn -1.000000 0.000000 0.000000
vn -1.000000 0.000000 0.000000
vn -1.000000 0.000000 0.000000
vn -1.000000 0.000000 0.000000
vn -1.000000 0.000000 0.000000
vn -1.000000 0.000000 0.000000
vn 0.000000 0.000000 1.000000
vn 0.000000 0.000000 1.000000
vn 0.000000 0.000000 1.000000
vn -0.000000 0.000000 1.000000
vn -0.000000 0.000000 1.000000
vn -0.000000 0.000000 1.000000
vn 1.000000 0.000000 0.000000
vn 1.000000 0.000000 0.000000
vn 1.000000 0.000000 0.000000
vn 1.000000 0.000000 0.000000
vn 1.000000 0.000000 0.000000
vn 1.000000 0.000000 0.000000
vn 0.000000 0.000000 -1.000000
vn 0.000000 0.000000 -1.000000
vn 0.000000 0.000000 -1.000000
vn 0.000000 0.000000 -1.000000
vn 0.000000 0.000000 -1.000000
vn 0.000000 0.000000 -1.000000
vn -0.513550 0.858060 0.000000
vn -0.513550 0.858060 0.000000
vn -0.513550 0.858060 0.000000
vn -0.513550 0.858060 0.000000
vn -0.513550 0.858060 0.000000
vn -0.513550 0.858060 0.000000
vn 0.000000 0.000000 1.000000
vn 0.000000 0.000000 1.000000
vn 0.000000 0.000000 1.000000
vn 0.000000 0.000000 1.000000
vn 0.000000 0.000000 1.000000
vn 0.000000 0.000000 1.000000
vn 0.513550 0.858060 0.000000
vn 0.513550 0.858060 0.000000
vn 0.513550 0.858060 0.000000
vn 0.513550 0.858060 0.000000
vn 0.513550 0.858060 0.000000
vn 0.513550 0.858060 0.000000
vn 0.000000 0.000000 -1.000000
vn 0.000000 0.000000 -1.000000
vn 0.000000 0.000000 -1.000000
vn 0.000000 0.000000 -1.000000
vn 0.000000 0.000000 -1.000000
vn 0.000000 0.000000 -1.000000
vn -0.608509 -0.793547 0.000000
vn -0.608509 -0.793547 0.000000
vn -0.608509 -0.793547 0.000000
vn -0.608510 -0.793547 0.000000
vn -0.608510 -0.793547 0.000000
vn -0.608510 -0.793547 0.000000
vn 0.000000 0.000000 1.000000
vn 0.000000 0.000000 1.000000
vn 0.000000 0.000000 1.000000
vn 0.000000 0.000000 1.000000
vn 0.000000 0.000000 1.000000
vn 0.000000 0.000000 1.000000
vn 0.608509 -0.793547 0.000000
vn 0.608509 -0.793547 0.000000
vn 0.608509 -0.793547 0.000000
vn 0.608510 -0.793546 0.000000
vn 0.608510 -0.793546 0.000000
vn 0.608510 -0.793546 0.000000
vn 0.000000 0.000000 -1.000000
vn 0.000000 0.000000 -1.000000
vn 0.000000 0.000000 -1.000000
vn 0.000000 0.000000 -1.000000
vn 0.000000 0.000000 -1.000000
vn 0.000000 0.000000 -1.000000
vn -1.000000 0.000000 -0.000000
vn -1.000000 0.000000 -0.000000
vn -1.000000 0.000000 -0.000000
vn -1.000000 0.000000 -0.000000
vn -1.000000 0.000000 -0.000000
vn -1.000000 0.000000 -0.000000
vn 0.000000 0.000000 1.000000
vn 0.000000 0.000000 1.000000
vn 0.000000 0.000000 1.000000
vn 0.000000 0.000000 1.000000
vn 0.000000 0.000000 1.000000
vn 0.000000 0.000000 1.000000
vn 1.000000 0.000000 0.000000
vn 1.000000 0.000000 0.000000
vn 1.000000 0.000000 0.000000
vn 1.000000 0.000000 0.000000
vn 1.000000 0.000000 0.000000
vn 1.000000 0.000000 0.000000
vn 0.000000 0.000000 -1.000000
vn 0.000000 0.000000 -1.000000
vn 0.000000 0.000000 -1.000000
vn 0.000000 0.000000 -1.000000
vn 0.000000 0.000000 -1.000000
vn 0.000000 0.000000 -1.000000
vn -0.606327 0.795216 -0.000000
vn -0.606327 0.795216 -0.000000
vn -0.606327 0.795216 -0.000000
vn -0.606327 0.795216 0.000000
vn -0.606327 0.795216 0.000000
vn -0.606327 0.795216 0.000000
vn 0.000000 0.000000 1.000000
vn 0.000000 0.000000 1.000000
vn 0.000000 0.000000 1.000000
vn 0.000000 0.000000 1.000000
vn 0.000000 0.000000 1.000000
vn 0.000000 0.000000 1.000000
vn 0.606328 0.795215 0.000000
vn 0.606328 0.795215 0.000000
vn 0.606328 0.795215 0.000000
vn 0.606326 0.795217 0.000000
vn 0.606325 0.795217 0.000000
vn 0.606326 0.795217 0.000000
vn 0.988247 0.152864 0.000000
vn 0.988247 0.152864 0.000000
vn 0.988247 0.152864 0.000000
vn 0.988247 0.152864 0.000000
vn 0.988247 0.152864 0.000000
vn 0.988247 0.152864 0.000000
vn 0.696170 -0.717877 0.000000
vn 0.696170 -0.717877 0.000000
vn 0.696170 -0.717877 0.000000
vn 0.696171 -0.717876 0.000000
vn 0.696171 -0.717876 0.000000
vn 0.696171 -0.717876 0.000000
vn 1.000000 0.000000 0.000000
vn 1.000000 0.000000 0.000000
vn 1.000000 0.000000 0.000000
vn 1.000000 0.000000 0.000000
vn 1.000000 0.000000 0.000000
vn 1.000000 0.000000 0.000000
vn 0.606328 0.795215 0.000000
vn 0.606328 0.795215 0.000000
vn 0.606328 0.795215 0.000000
vn 0.606326 0.795217 0.000000
vn 0.606326 0.795217 0.000000
vn 0.606326 0.795217 0.000000
vn 1.000000 0.000000 0.000000
vn 1.000000 0.000000 0.000000
vn 1.000000 0.000000 0.000000
vn 1.000000 0.000000 0.000000
vn 1.000000 0.000000 0.000000
vn 1.000000 0.000000 0.000000
vn 0.608509 -0.793547 0.000000
vn 0.608509 -0.793547 0.000000
vn 0.608509 -0.793547 0.000000
vn 0.608511 -0.793546 0.000000
vn 0.608510 -0.793546 0.000000
vn 0.608511 -0.793546 0.000000
vn 0.513550 0.858060 0.000000
vn 0.513550 0.858060 0.000000
vn 0.513550 0.858060 0.000000
vn 0.513549 0.858060 0.000000
vn 0.513549 0.858060 0.000000
vn 0.513549 0.858060 0.000000
vn 1.000000 0.000000 0.000000
vn 1.000000 0.000000 0.000000
vn 1.000000 0.000000 0.000000
vn 1.000000 0.000000 0.000000
vn 1.000000 0.000000 0.000000
vn 1.000000 0.000000 0.000000
vn 0.988247 0.152864 0.000000
vn 0.988247 0.152864 0.000000
vn 0.988247 0.152864 0.000000
vn 0.988247 0.152864 0.000000
vn 0.988247 0.152864 0.000000
vn 0.988247 0.152864 0.000000
vn 0.696170 -0.717877 0.000000
vn 0.696170 -0.717877 0.000000
vn 0.696170 -0.717877 0.000000
vn 0.696171 -0.717876 0.000000
vn 0.696171 -0.717876 0.000000
vn 0.696171 -0.717876 0.000000
vn 1.000000 0.000000 0.000000
vn 1.000000 0.000000 0.000000
vn 1.000000 0.000000 0.000000
vn 1.000000 0.000000 0.000000
vn 1.000000 0.000000 0.000000
vn 1.000000 0.000000 0.000000
vn 0.606328 0.795214 0.000000
vn 0.606328 0.795214 0.000000
vn 0.606328 0.795214 0.000000
vn 0.606325 0.795217 0.000000
vn 0.606325 0.795217 0.000000
vn 0.606325 0.795217 0.000000
vn 1.000000 0.000000 0.000000
vn 1.000000 0.000000 0.000000
vn 1.000000 0.000000 0.000000
vn 1.000000 0.000000 0.000000
vn 1.000000 0.000000 0.000000
vn 1.000000 0.000000 0.000000
vn 0.608509 -0.793547 0.000000
vn 0.608509 -0.793547 0.000000
vn 0.608509 -0.793547 0.000000
vn 0.608511 -0.793545 0.000000
vn 0.608511 -0.793545 0.000000
vn 0.608511 -0.793545 0.000000
vn 0.513550 0.858060 0.000000
vn 0.513550 0.858060 0.000000
vn 0.513550 0.858060 0.000000
vn 0.513550 0.858060 0.000000
vn 0.513550 0.858060 0.000000
vn 0.513550 0.858060 0.000000
vn 1.000000 0.000000 0.000000
vn 1.000000 0.000000 0.000000
vn 1.000000 0.000000 0.000000
vn 1.000000 0.000000 0.000000
vn 1.000000 0.000000 0.000000
vn 1.000000 0.000000 0.000000
vn 0.531192 0.082166 -0.843258
vn 0.531192 0.082166 -0.843258
vn 0.531192 0.082166 -0.843258
vn 0.531192 0.082166 -0.843258
vn 0.531192 0.082166 -0.843258
vn 0.531192 0.082166 -0.843258
vn 0.000000 1.000000 0.000000
vn 0.000000 1.000000 0.000000
vn 0.000000 1.000000 0.000000
vn 0.000000 1.000000 0.000000
vn 0.000000 1.000000 0.000000
vn 0.000000 1.000000 0.000000
vn 0.531194 0.082166 0.843257
vn 0.531194 0.082166 0.843257
vn 0.531194 0.082166 0.843257
vn 0.531193 0.082166 0.843258
vn 0.531193 0.082166 0.843257
vn 0.531193 0.082166 0.843257
vn 0.178933 -0.882686 -0.434568
vn 0.178933 -0.882686 -0.434568
vn 0.178933 -0.882686 -0.434568
vn 0.286079 -0.843748 -0.454146
vn 0.286079 -0.843748 -0.454146
vn 0.286079 -0.843748 -0.454146
vn 0.178932 -0.882686 0.434567
vn 0.178932 -0.882686 0.434567
vn 0.178932 -0.882686 0.434567
vn 0.286080 -0.843748 0.454145
vn 0.286080 -0.843748 0.454145
vn 0.286080 -0.843748 0.454145
vn 0.380739 0.000000 -0.924682
vn 0.380739 0.000000 -0.924682
vn 0.380739 0.000000 -0.924682
vn 0.380739 0.000000 -0.924683
vn 0.380739 0.000000 -0.924683
vn 0.380739 0.000000 -0.924683
vn 0.380737 0.000000 0.924684
vn 0.380737 0.000000 0.924684
vn 0.380737 0.000000 0.924683
vn 0.380737 0.000000 0.924684
vn 0.380737 0.000000 0.924683
vn 0.380737 0.000000 0.924684
vn 0.239364 0.777662 -0.581333
vn 0.239364 0.777662 -0.581333
vn 0.239364 0.777661 -0.581332
vn 0.293686 0.744716 -0.599288
vn 0.293686 0.744716 -0.599288
vn 0.293686 0.744716 -0.599288
vn 0.239363 0.777661 0.581334
vn 0.239363 0.777661 0.581334
vn 0.239363 0.777661 0.581334
vn 0.293687 0.744714 0.599290
vn 0.293687 0.744714 0.599290
vn 0.293687 0.744714 0.599290
vn 0.440058 0.000000 -0.897969
vn 0.440058 0.000000 -0.897969
vn 0.440058 0.000000 -0.897969
vn 0.440058 0.000000 -0.897970
vn 0.440058 0.000000 -0.897970
vn 0.440058 0.000000 -0.897970
vn 0.440057 0.000000 0.897970
vn 0.440057 0.000000 0.897970
vn 0.440057 0.000000 0.897970
vn 0.440057 0.000000 0.897970
vn 0.440057 0.000000 0.897970
vn 0.440057 0.000000 0.897970
vn 0.476029 0.449815 -0.755687
vn 0.476029 0.449815 -0.755687
vn 0.476029 0.449815 -0.755687
vn 0.410960 0.357597 -0.838592
vn 0.410960 0.357597 -0.838592
vn 0.410960 0.357597 -0.838592
vn 0.476029 0.449815 0.755687
vn 0.476029 0.449815 0.755687
vn 0.476029 0.449815 0.755687
vn 0.410959 0.357596 0.838593
vn 0.410959 0.357596 0.838593
vn 0.410959 0.357596 0.838593
vn 0.398036 0.665057 -0.631875
vn 0.398036 0.665057 -0.631875
vn 0.398036 0.665057 -0.631875
vn 0.398037 0.665056 -0.631876
vn 0.398037 0.665055 -0.631876
vn 0.398037 0.665056 -0.631876
vn 0.398037 0.665057 0.631875
vn 0.398037 0.665057 0.631875
vn 0.398037 0.665057 0.631875
vn 0.398037 0.665056 0.631876
vn 0.398037 0.665056 0.631876
vn 0.398037 0.665056 0.631876
vn 0.532994 0.000000 -0.846119
vn 0.532994 0.000000 -0.846119
vn 0.532994 0.000000 -0.846119
vn 0.532995 0.000000 -0.846119
vn 0.532995 0.000000 -0.846119
vn 0.532995 0.000000 -0.846119
vn 0.532995 0.000000 0.846118
vn 0.532995 0.000000 0.846118
vn 0.532995 0.000000 0.846118
vn 0.532995 0.000000 0.846119
vn 0.532995 0.000000 0.846119
vn 0.532995 0.000000 0.846119
vn 0.000000 -1.000000 0.000000
vn 0.000000 -1.000000 0.000000
vn 0.000000 -1.000000 0.000000
vn -0.000000 -1.000000 0.000000
vn -0.000000 -1.000000 0.000000
vn -0.000000 -1.000000 0.000000
vn -1.000000 0.000000 -0.000000
vn -1.000000 0.000000 -0.000000
vn -1.000000 0.000000 -0.000000
vn -1.000000 0.000000 -0.000000
vn -1.000000 0.000000 -0.000000
vn -1.000000 0.000000 -0.000000
vn -0.696170 -0.717877 0.000000
vn -0.696170 -0.717877 0.000000
vn -0.696170 -0.717877 0.000000
vn -0.696170 -0.717877 0.000000
vn -0.696170 -0.717877 0.000000
vn -0.696170 -0.717877 0.000000
vn -0.988247 0.152864 0.000000
vn -0.988247 0.152864 0.000000
vn -0.988247 0.152864 0.000000
vn -0.988247 0.152864 0.000000
vn -0.988247 0.152864 0.000000
vn -0.988247 0.152864 0.000000
vn 0.000000 1.000000 0.000000
vn 0.000000 1.000000 0.000000
vn 0.000000 1.000000 0.000000
vn 0.000000 1.000000 0.000000
vn 0.000000 1.000000 0.000000
vn 0.000000 1.000000 0.000000
f 6/126/1 10/124/2 5/57/3
f 5/57/4 10/124/5 9/56/6
f 12/47/7 11/123/8 8/129/9
f 8/129/10 11/123/11 7/127/12
f 38/117/13 12/4/14 37/65/15
f 37/65/16 12/4/17 8/48/18
f 12/4/19 38/117/20 1/7/21
f 1/7/22 38/117/23 39/116/24
f 3/121/25 2/6/26 10/124/27
f 10/124/28 2/6/29 9/56/30
f 1/46/31 4/119/32 12/47/33
f 12/47/34 4/119/35 11/123/36
f 3/121/37 35/9/38 2/6/39
f 2/6/40 35/9/41 36/49/42
f 1/46/43 33/40/44 4/119/45
f 4/119/46 33/40/47 34/120/48
f 40/115/49 33/11/50 39/116/51
f 39/116/52 33/11/53 1/7/54
f 17/17/55 13/45/56 18/36/57
f 18/36/58 13/45/59 16/14/60
f 15/13/61 19/61/62 16/37/63
f 16/37/64 19/61/65 18/18/66
f 20/53/67 19/19/68 14/16/69
f 14/16/70 19/19/71 15/62/72
f 13/15/73 17/44/74 45/111/75
f 45/111/76 17/44/77 44/110/78
f 21/21/79 17/17/80 22/35/81
f 22/35/82 17/17/83 18/36/84
f 19/61/85 23/60/86 18/18/87
f 18/18/88 23/60/89 22/22/90
f 24/52/91 23/23/92 20/53/93
f 20/53/94 23/23/95 19/19/96
f 44/110/97 17/44/98 43/112/99
f 43/112/100 17/44/101 21/43/102
f 25/25/103 21/21/104 26/34/105
f 26/34/106 21/21/107 22/35/108
f 23/60/109 27/59/110 22/22/111
f 22/22/112 27/59/113 26/26/114
f 28/51/115 27/27/116 24/52/117
f 24/52/118 27/27/119 23/23/120
f 21/43/121 25/42/122 43/112/123
f 43/112/124 25/42/125 42/113/126
f 29/29/127 25/25/128 30/33/129
f 30/33/130 25/25/131 26/34/132
f 27/59/133 31/58/134 26/26/135
f 26/26/136 31/58/137 30/30/138
f 32/50/139 31/31/140 28/51/141
f 28/51/142 31/31/143 27/27/144
f 42/113/145 25/42/146 41/114/147
f 41/114/148 25/42/149 29/41/150
f 33/40/151 29/29/152 34/120/153
f 34/120/154 29/29/155 30/33/156
f 31/58/157 35/122/158 30/30/159
f 30/30/160 35/122/161 34/12/162
f 36/49/163 35/9/164 32/50/165
f 32/50/166 35/9/167 31/31/168
f 29/41/169 33/11/170 41/114/171
f 41/114/172 33/11/173 40/115/174
f 56/86/175 55/83/176 58/85/177
f 58/85/178 55/83/179 57/84/180
f 59/87/181 55/83/182 60/88/183
f 60/88/184 55/83/185 56/86/186
f 61/90/187 62/89/188 60/88/189
f 60/88/190 62/89/191 59/87/192
f 63/92/193 64/91/194 61/90/195
f 61/90/196 64/91/197 62/89/198
f 65/94/199 66/93/200 63/92/201
f 63/92/202 66/93/203 64/91/204
f 67/96/205 68/95/206 65/94/207
f 65/94/208 68/95/209 66/93/210
f 69/98/211 70/97/212 67/96/213
f 67/96/214 70/97/215 68/95/216
f 71/99/217 70/97/218 72/100/219
f 72/100/220 70/97/221 69/98/222
f 9/2/223 47/108/224 5/3/225
f 5/3/226 47/108/227 46/109/228
f 48/107/229 47/108/230 2/55/231
f 2/55/232 47/108/233 9/2/234
f 36/10/235 49/106/236 2/55/237
f 2/55/238 49/106/239 48/107/240
f 32/32/241 50/105/242 36/10/243
f 36/10/244 50/105/245 49/106/246
f 28/28/247 51/104/248 32/32/249
f 32/32/250 51/104/251 50/105/252
f 24/24/253 52/103/254 28/28/255
f 28/28/256 52/103/257 51/104/258
f 20/20/259 53/101/260 24/24/261
f 24/24/262 53/101/263 52/103/264
f 54/82/265 53/101/266 14/54/267
f 14/54/268 53/101/269 20/20/270
f 37/118/271 57/84/272 38/66/273
f 38/66/274 57/84/275 55/83/276
f 37/118/277 46/74/278 57/84/279
f 57/84/280 46/74/281 58/85/282
f 46/74/283 47/75/284 58/85/285
f 58/85/286 47/75/287 56/86/288
f 39/67/289 38/66/290 59/87/291
f 59/87/292 38/66/293 55/83/294
f 48/76/295 60/88/296 47/75/297
f 47/75/298 60/88/299 56/86/300
f 40/68/301 39/67/302 62/89/303
f 62/89/304 39/67/305 59/87/306
f 48/76/307 49/77/308 60/88/309
f 60/88/310 49/77/311 61/90/312
f 40/68/313 62/89/314 41/69/315
f 41/69/316 62/89/317 64/91/318
f 49/77/319 50/78/320 61/90/321
f 61/90/322 50/78/323 63/92/324
f 42/70/325 41/69/326 66/93/327
f 66/93/328 41/69/329 64/91/330
f 50/78/331 51/79/332 63/92/333
f 63/92/334 51/79/335 65/94/336
f 43/71/337 42/70/338 68/95/339
f 68/95/340 42/70/341 66/93/342
f 52/80/343 67/96/344 51/79/345
f 51/79/346 67/96/347 65/94/348
f 43/71/349 68/95/350 44/72/351
f 44/72/352 68/95/353 70/97/354
f 52/80/355 53/81/356 67/96/357
f 67/96/358 53/81/359 69/98/360
f 45/73/361 44/72/362 71/99/363
f 71/99/364 44/72/365 70/97/366
f 53/81/367 54/102/368 69/98/369
f 69/98/370 54/102/371 72/100/372
f 54/102/373 45/73/374 72/100/375
f 72/100/376 45/73/377 71/99/378
f 35/122/379 3/63/380 34/12/381
f 34/12/382 3/63/383 4/8/384
f 3/63/385 10/64/386 4/8/387
f 4/8/388 10/64/389 11/39/390
f 10/64/391 6/1/392 11/39/393
f 11/39/394 6/1/395 7/38/396
f 6/125/397 5/130/398 7/128/399
f 7/128/400 5/130/401 8/5/402
