# This file uses centimeters as units for non-parametric coordinates.

v 1.002496 2.579953 -0.000000
v 1.002496 2.579953 1.000000
v 0.002496 2.579953 1.000000
v 0.002496 2.579953 -0.000000
v 1.017100 3.000000 1.000000
v -0.012109 3.000000 1.000000
v -0.012109 3.000000 0.000000
v 1.017100 3.000000 0.000000
v 1.071694 2.647059 1.000000
v -0.066703 2.647059 1.000000
v -0.066702 2.647059 -0.000000
v 1.071694 2.647059 -0.000000
v 1.104250 0.000000 -0.000000
v 1.104251 0.000000 1.000000
v -0.099259 -0.000000 1.000000
v -0.099259 0.000000 -0.000000
v 1.104250 0.396747 -0.000000
v -0.099259 0.396747 -0.000000
v -0.099259 0.396747 1.000000
v 1.104251 0.396747 1.000000
v 1.002496 0.457648 -0.000000
v 0.002496 0.457648 -0.000000
v 0.002496 0.457648 1.000000
v 1.002496 0.457648 1.000000
v 1.066117 0.506434 0.000000
v -0.061126 0.506434 0.000000
v -0.061126 0.506434 1.000000
v 1.066117 0.506434 1.000000
v 1.066117 0.617011 0.000000
v -0.061126 0.617011 0.000000
v -0.061126 0.617011 1.000000
v 1.066117 0.617011 1.000000
v 1.002496 0.665520 -0.000000
v 0.002496 0.665520 -0.000000
v 0.002496 0.665520 1.000000
v 1.002496 0.665520 1.000000
v 1.017100 3.000000 0.188726
v 1.071694 2.647059 0.188726
v 1.002496 2.579953 0.296539
v 1.002496 0.665520 0.296539
v 1.066117 0.617011 0.257843
v 1.066117 0.506434 0.257843
v 1.002496 0.457648 0.188726
v 1.104251 0.396747 0.188727
v 1.104251 0.000000 0.188727
v 1.017100 3.000000 0.811274
v 1.071694 2.647059 0.811273
v 1.002496 2.579953 0.703461
v 1.002496 0.665520 0.703461
v 1.066117 0.617011 0.742157
v 1.066117 0.506434 0.742157
v 1.002496 0.457648 0.811274
v 1.104250 0.396747 0.811274
v 1.104250 0.000000 0.811274
v 1.194198 2.647059 0.265895
v 1.194198 2.647059 0.734105
v 1.139605 3.000000 0.265895
v 1.139604 3.000000 0.734104
v 1.125000 2.579953 0.346980
v 1.125000 2.579953 0.653020
v 1.125000 0.665520 0.653020
v 1.125000 0.665520 0.346980
v 1.188622 0.617011 0.682123
v 1.188621 0.617011 0.317877
v 1.188622 0.506434 0.682123
v 1.188621 0.506434 0.317877
v 1.125000 0.457648 0.734104
v 1.125000 0.457648 0.265895
v 1.226755 0.396747 0.734104
v 1.226755 0.396747 0.265896
v 1.226755 0.000000 0.265896
v 1.226755 0.000000 0.734104
vt 1.002153 6.330478
vt 0.002246 2.687761
vt 0.002252 3.029815
vt 0.992612 2.680409
vt 0.971629 0.000164
vt 2.250165 3.149100
vt 0.992610 2.588087
vt 0.002251 5.876732
vt 1.249760 1.234880
vt 0.002206 0.761858
vt 0.992573 0.754508
vt 0.002662 3.962299
vt 1.002830 3.176423
vt 1.203500 -0.190643
vt 0.992558 0.001616
vt 2.351373 0.569126
vt 0.001560 0.210832
vt 0.002745 3.572956
vt 1.147947 0.966129
vt 0.002199 0.388958
vt 0.103554 0.271332
vt 0.002720 3.691543
vt 1.249715 1.027007
vt 0.002202 0.502537
vt 0.040125 0.320369
vt 0.002702 3.771717
vt 1.186103 1.075808
vt 0.002203 0.579325
vt 0.040559 0.430945
vt 0.002679 3.882294
vt 1.186127 1.186384
vt 0.002205 0.685231
vt 1.167793 0.426513
vt 1.167359 0.315937
vt 1.103546 0.267401
vt 1.205060 0.206101
vt 0.002830 3.176209
vt 0.002153 6.330263
vt 0.002230 5.973125
vt 0.104371 0.479204
vt 0.992572 0.677881
vt 0.992569 0.571974
vt 0.992568 0.495187
vt 0.992566 0.381608
vt 0.000000 -0.185912
vt 0.111896 2.393621
vt 0.042963 2.460999
vt 0.992619 3.022465
vt 2.249760 1.234669
vt 2.313370 1.186146
vt 2.313348 1.075569
vt 2.249716 1.026795
vt 2.351457 0.965874
vt 0.002192 0.008966
vt 0.002244 2.595438
vt 2.319377 3.216192
vt 2.264858 3.569145
vt 1.002679 3.882508
vt 1.002702 3.771931
vt 1.002719 3.691758
vt 1.002745 3.573170
vt 1.147863 0.569382
vt 1.002251 5.876946
vt 1.002230 5.973339
vt 0.673363 3.022471
vt 0.038138 0.936376
vt 0.036160 0.932596
vt 0.036879 0.876283
vt 0.036703 0.873928
vt 0.037408 0.870121
vt 0.040526 0.868411
vt 0.038756 0.865605
vt 0.037607 0.851303
vt 0.018096 0.948986
vt 0.016832 0.936453
vt 0.018742 0.932389
vt 0.019456 0.876154
vt 0.019765 0.873839
vt 0.018875 0.870022
vt 0.015870 0.868276
vt 0.017826 0.865433
vt 0.321447 0.008960
vt 0.033995 0.936084
vt 0.033755 0.946347
vt 0.021261 0.945943
vt 0.021013 0.936075
vt 0.032212 0.933169
vt 0.022753 0.932927
vt 0.032877 0.875868
vt 0.023409 0.875858
vt 0.033223 0.873665
vt 0.023107 0.873481
vt 0.033551 0.870501
vt 0.022830 0.870336
vt 0.035757 0.868349
vt 0.020552 0.868260
vt 0.034740 0.865481
vt 0.021496 0.865068
vt 0.034388 0.854156
vt 0.022165 0.854290
vt 0.321455 0.388951
vt 0.018519 0.851733
vt 0.321457 0.502530
vt 0.321458 0.579318
vt 0.321461 0.685225
vt 0.321463 0.761852
vt 0.321499 2.595432
vt 0.321501 2.687754
vt 0.321508 3.029809
vt 0.673310 0.381614
vt 0.673303 0.001622
vt 0.673312 0.495193
vt 0.673314 0.571981
vt 0.673316 0.677888
vt 0.673318 0.754514
vt 0.673355 2.588093
vt 0.673356 2.680415
vt 0.036983 0.949146
vt 1.111889 2.389690
vt 1.104363 0.475272
vt 1.250165 3.149313
vt 1.002661 3.962513
vt 1.181350 2.456523
vt 1.180982 3.216433
vt 0.000000 0.999835
vt 1.235649 3.569363
vt 1.128144 2.809676
vt 0.971460 1.000000
vt 0.098944 2.813722
vt 0.000169 0.000000
vn -0.000000 0.000000 1.000000
vn -0.000000 0.000000 1.000000
vn -0.000000 0.000000 1.000000
vn -0.000000 0.000001 1.000000
vn -0.000000 0.000001 1.000000
vn -0.000000 0.000001 1.000000
vn -0.000000 0.000001 -1.000000
vn -0.000000 0.000001 -1.000000
vn -0.000000 0.000001 -1.000000
vn -0.000000 0.000001 -1.000000
vn -0.000000 0.000001 -1.000000
vn -0.000000 0.000001 -1.000000
vn 0.988247 0.152863 -0.000000
vn 0.988247 0.152863 -0.000000
vn 0.988247 0.152863 -0.000000
vn 0.988247 0.152863 0.000000
vn 0.988247 0.152863 0.000000
vn 0.988247 0.152863 0.000000
vn 0.696170 -0.717877 -0.000000
vn 0.696170 -0.717877 -0.000000
vn 0.696170 -0.717877 -0.000000
vn 0.696172 -0.717875 -0.000001
vn 0.696172 -0.717875 -0.000001
vn 0.696172 -0.717875 -0.000001
vn 0.000000 0.000002 1.000000
vn 0.000000 0.000002 1.000000
vn 0.000000 0.000002 1.000000
vn -0.000000 0.000000 1.000000
vn -0.000000 0.000000 1.000000
vn -0.000000 0.000000 1.000000
vn -0.000000 -0.000006 -1.000000
vn -0.000000 -0.000006 -1.000000
vn -0.000000 -0.000006 -1.000000
vn -0.000000 -0.000002 -1.000000
vn -0.000000 -0.000002 -1.000000
vn -0.000000 -0.000002 -1.000000
vn 0.000000 0.000000 1.000000
vn 0.000000 0.000000 1.000000
vn 0.000000 0.000000 1.000000
vn 0.000000 0.000000 1.000000
vn 0.000000 0.000000 1.000000
vn 0.000000 0.000000 1.000000
vn -0.000000 0.000000 -1.000000
vn -0.000000 0.000000 -1.000000
vn -0.000000 0.000000 -1.000000
vn -0.000000 0.000000 -1.000000
vn -0.000000 0.000000 -1.000000
vn -0.000000 0.000000 -1.000000
vn 1.000000 0.000000 -0.000001
vn 1.000000 0.000000 -0.000001
vn 1.000000 0.000000 -0.000001
vn 1.000000 0.000000 -0.000001
vn 1.000000 0.000000 -0.000001
vn 1.000000 0.000000 -0.000001
vn 0.000000 0.000000 -1.000000
vn 0.000000 0.000000 -1.000000
vn 0.000000 0.000000 -1.000000
vn 0.000000 0.000000 -1.000000
vn 0.000000 0.000000 -1.000000
vn 0.000000 0.000000 -1.000000
vn -1.000000 0.000000 0.000000
vn -1.000000 0.000000 0.000000
vn -1.000000 0.000000 0.000000
vn -1.000000 0.000000 0.000000
vn -1.000000 0.000000 0.000000
vn -1.000000 0.000000 0.000000
vn -0.000000 0.000000 1.000000
vn -0.000000 0.000000 1.000000
vn -0.000000 0.000000 1.000000
vn -0.000000 0.000000 1.000000
vn -0.000000 0.000000 1.000000
vn -0.000000 0.000000 1.000000
vn 1.000000 0.000000 -0.000001
vn 1.000000 0.000000 -0.000001
vn 1.000000 0.000000 -0.000001
vn 1.000000 0.000000 -0.000001
vn 1.000000 0.000000 -0.000001
vn 1.000000 0.000000 -0.000001
vn -0.000000 -0.000001 -1.000000
vn -0.000000 -0.000001 -1.000000
vn -0.000000 -0.000001 -1.000000
vn 0.000000 -0.000000 -1.000000
vn 0.000000 -0.000000 -1.000000
vn 0.000000 -0.000000 -1.000000
vn -0.513549 0.858060 0.000000
vn -0.513549 0.858060 0.000000
vn -0.513549 0.858060 0.000000
vn -0.513547 0.858062 -0.000000
vn -0.513547 0.858062 -0.000000
vn -0.513547 0.858062 -0.000000
vn 0.000000 0.000000 1.000000
vn 0.000000 0.000000 1.000000
vn 0.000000 0.000000 1.000000
vn -0.000000 -0.000003 1.000000
vn -0.000000 -0.000003 1.000000
vn -0.000000 -0.000003 1.000000
vn 0.513550 0.858060 -0.000001
vn 0.513550 0.858060 -0.000001
vn 0.513550 0.858060 -0.000001
vn 0.513551 0.858059 -0.000000
vn 0.513551 0.858059 -0.000000
vn 0.513551 0.858059 -0.000000
vn 0.000000 0.000008 -1.000000
vn 0.000000 0.000008 -1.000000
vn 0.000000 0.000008 -1.000000
vn -0.000000 0.000005 -1.000000
vn -0.000000 0.000005 -1.000000
vn -0.000000 0.000005 -1.000000
vn -0.608510 -0.793546 -0.000000
vn -0.608510 -0.793546 -0.000000
vn -0.608510 -0.793546 -0.000000
vn -0.608506 -0.793549 0.000000
vn -0.608506 -0.793549 0.000000
vn -0.608506 -0.793549 0.000000
vn 0.000000 0.000002 1.000000
vn 0.000000 0.000002 1.000000
vn 0.000000 0.000002 1.000000
vn 0.000000 -0.000007 1.000000
vn 0.000000 -0.000007 1.000000
vn 0.000000 -0.000007 1.000000
vn 0.608509 -0.793547 -0.000000
vn 0.608509 -0.793547 -0.000000
vn 0.608509 -0.793547 -0.000000
vn 0.608510 -0.793546 0.000000
vn 0.608510 -0.793546 0.000000
vn 0.608510 -0.793547 0.000000
vn 0.000000 0.000000 -1.000000
vn 0.000000 0.000000 -1.000000
vn 0.000000 0.000000 -1.000000
vn 0.000000 0.000000 -1.000000
vn 0.000000 0.000000 -1.000000
vn 0.000000 0.000000 -1.000000
vn -1.000000 0.000000 0.000000
vn -1.000000 0.000000 0.000000
vn -1.000000 0.000000 0.000000
vn -1.000000 0.000000 0.000000
vn -1.000000 0.000000 0.000000
vn -1.000000 0.000000 0.000000
vn 0.000000 0.000000 1.000000
vn 0.000000 0.000000 1.000000
vn 0.000000 0.000000 1.000000
vn 0.000000 0.000000 1.000000
vn 0.000000 0.000000 1.000000
vn 0.000000 0.000000 1.000000
vn 1.000000 0.000000 0.000000
vn 1.000000 0.000000 0.000000
vn 1.000000 0.000000 0.000000
vn 1.000000 0.000000 0.000000
vn 1.000000 0.000000 0.000000
vn 1.000000 0.000000 0.000000
vn -0.000000 -0.000009 -1.000000
vn -0.000000 -0.000009 -1.000000
vn -0.000000 -0.000009 -1.000000
vn 0.000000 -0.000005 -1.000000
vn 0.000000 -0.000005 -1.000000
vn 0.000000 -0.000005 -1.000000
vn -0.606329 0.795214 0.000000
vn -0.606329 0.795214 0.000000
vn -0.606329 0.795214 0.000000
vn -0.606322 0.795219 -0.000000
vn -0.606322 0.795219 -0.000000
vn -0.606322 0.795219 -0.000000
vn 0.000000 0.000000 1.000000
vn 0.000000 0.000000 1.000000
vn 0.000000 0.000000 1.000000
vn 0.000000 0.000004 1.000000
vn 0.000000 0.000004 1.000000
vn 0.000000 0.000004 1.000000
vn 0.606327 0.795216 0.000000
vn 0.606327 0.795216 0.000000
vn 0.606327 0.795216 0.000000
vn 0.606328 0.795215 -0.000000
vn 0.606328 0.795215 -0.000000
vn 0.606328 0.795215 -0.000000
vn 0.988247 0.152863 0.000001
vn 0.988247 0.152863 0.000001
vn 0.988247 0.152863 0.000001
vn 0.988247 0.152863 0.000001
vn 0.988248 0.152863 0.000001
vn 0.988247 0.152863 0.000001
vn 0.696172 -0.717875 0.000000
vn 0.696172 -0.717875 0.000000
vn 0.696172 -0.717875 0.000000
vn 0.696173 -0.717874 0.000000
vn 0.696173 -0.717874 0.000000
vn 0.696173 -0.717874 0.000000
vn 1.000000 0.000000 0.000000
vn 1.000000 0.000000 0.000000
vn 1.000000 0.000000 0.000000
vn 1.000000 0.000000 0.000000
vn 1.000000 0.000000 0.000000
vn 1.000000 0.000000 0.000000
vn 0.606326 0.795216 -0.000001
vn 0.606326 0.795217 -0.000001
vn 0.606326 0.795217 -0.000001
vn 0.606328 0.795214 0.000000
vn 0.606328 0.795214 0.000000
vn 0.606328 0.795214 0.000000
vn 1.000000 0.000000 -0.000001
vn 1.000000 0.000000 -0.000001
vn 1.000000 0.000000 -0.000001
vn 1.000000 0.000000 -0.000001
vn 1.000000 0.000000 -0.000001
vn 1.000000 0.000000 -0.000001
vn 0.608507 -0.793549 0.000001
vn 0.608507 -0.793549 0.000001
vn 0.608507 -0.793549 0.000001
vn 0.608512 -0.793545 -0.000001
vn 0.608512 -0.793545 -0.000001
vn 0.608512 -0.793545 -0.000001
vn 0.513550 0.858060 0.000000
vn 0.513549 0.858060 0.000000
vn 0.513549 0.858060 0.000000
vn 0.513550 0.858060 0.000001
vn 0.513550 0.858060 0.000001
vn 0.513549 0.858060 0.000001
vn 1.000000 0.000000 0.000001
vn 1.000000 0.000000 0.000001
vn 1.000000 0.000000 0.000001
vn 1.000000 0.000000 0.000000
vn 1.000000 0.000000 0.000000
vn 1.000000 0.000000 0.000000
vn 0.988247 0.152865 -0.000003
vn 0.988247 0.152865 -0.000003
vn 0.988247 0.152865 -0.000003
vn 0.988247 0.152863 0.000000
vn 0.988247 0.152863 0.000000
vn 0.988247 0.152863 0.000000
vn 0.696172 -0.717875 0.000000
vn 0.696172 -0.717875 0.000000
vn 0.696172 -0.717875 0.000000
vn 0.696169 -0.717878 -0.000002
vn 0.696169 -0.717878 -0.000002
vn 0.696169 -0.717878 -0.000002
vn 1.000000 0.000000 0.000000
vn 1.000000 0.000000 0.000000
vn 1.000000 0.000000 0.000000
vn 1.000000 0.000000 0.000000
vn 1.000000 0.000000 0.000000
vn 1.000000 0.000000 0.000000
vn 0.606328 0.795215 0.000000
vn 0.606328 0.795215 0.000000
vn 0.606328 0.795215 0.000000
vn 0.606328 0.795215 0.000000
vn 0.606327 0.795215 0.000000
vn 0.606327 0.795215 0.000000
vn 1.000000 0.000000 0.000000
vn 1.000000 0.000000 0.000000
vn 1.000000 0.000000 0.000000
vn 1.000000 0.000000 0.000000
vn 1.000000 0.000000 0.000000
vn 1.000000 0.000000 0.000000
vn 0.608511 -0.793546 0.000000
vn 0.608511 -0.793546 0.000000
vn 0.608511 -0.793546 0.000000
vn 0.608511 -0.793545 0.000000
vn 0.608511 -0.793545 0.000000
vn 0.608511 -0.793545 0.000000
vn 0.513549 0.858061 -0.000002
vn 0.513549 0.858061 -0.000002
vn 0.513548 0.858061 -0.000002
vn 0.513551 0.858059 0.000000
vn 0.513551 0.858059 0.000000
vn 0.513551 0.858059 0.000000
vn 1.000000 0.000000 -0.000003
vn 1.000000 0.000000 -0.000003
vn 1.000000 0.000000 -0.000003
vn 1.000000 0.000000 -0.000003
vn 1.000000 0.000000 -0.000003
vn 1.000000 0.000000 -0.000003
vn 0.531191 0.082165 -0.843258
vn 0.531191 0.082165 -0.843258
vn 0.531191 0.082165 -0.843258
vn 0.531193 0.082165 -0.843258
vn 0.531193 0.082165 -0.843258
vn 0.531193 0.082165 -0.843258
vn 0.000000 1.000000 0.000000
vn 0.000000 1.000000 0.000000
vn 0.000000 1.000000 0.000000
vn 0.000000 1.000000 0.000000
vn 0.000000 1.000000 0.000000
vn 0.000000 1.000000 0.000000
vn 0.531195 0.082165 0.843256
vn 0.531195 0.082165 0.843256
vn 0.531195 0.082165 0.843256
vn 0.531192 0.082166 0.843258
vn 0.531192 0.082166 0.843258
vn 0.531192 0.082166 0.843258
vn 0.178931 -0.882687 -0.434566
vn 0.178931 -0.882687 -0.434566
vn 0.178931 -0.882687 -0.434566
vn 0.286081 -0.843747 -0.454145
vn 0.286081 -0.843747 -0.454145
vn 0.286081 -0.843747 -0.454145
vn 0.178932 -0.882687 0.434566
vn 0.178932 -0.882687 0.434566
vn 0.178932 -0.882687 0.434566
vn 0.286080 -0.843747 0.454146
vn 0.286080 -0.843747 0.454146
vn 0.286080 -0.843747 0.454146
vn 0.380737 0.000000 -0.924683
vn 0.380737 0.000000 -0.924683
vn 0.380737 0.000000 -0.924683
vn 0.380737 0.000000 -0.924683
vn 0.380738 0.000000 -0.924683
vn 0.380737 0.000000 -0.924683
vn 0.380737 0.000000 0.924684
vn 0.380737 0.000000 0.924684
vn 0.380737 0.000000 0.924684
vn 0.380737 0.000000 0.924684
vn 0.380737 0.000000 0.924684
vn 0.380737 0.000000 0.924684
vn 0.239362 0.777663 -0.581331
vn 0.239362 0.777663 -0.581331
vn 0.239362 0.777663 -0.581331
vn 0.293686 0.744717 -0.599287
vn 0.293686 0.744717 -0.599287
vn 0.293686 0.744717 -0.599287
vn 0.239363 0.777661 0.581333
vn 0.239363 0.777661 0.581333
vn 0.239363 0.777661 0.581333
vn 0.293686 0.744716 0.599288
vn 0.293686 0.744716 0.599288
vn 0.293686 0.744716 0.599288
vn 0.440057 0.000000 -0.897970
vn 0.440057 0.000000 -0.897970
vn 0.440057 0.000000 -0.897970
vn 0.440057 0.000000 -0.897970
vn 0.440057 0.000000 -0.897970
vn 0.440057 0.000000 -0.897970
vn 0.440056 0.000000 0.897970
vn 0.440056 0.000000 0.897970
vn 0.440056 0.000000 0.897970
vn 0.440056 0.000000 0.897970
vn 0.440056 0.000000 0.897970
vn 0.440056 0.000000 0.897970
vn 0.476028 0.449817 -0.755686
vn 0.476028 0.449817 -0.755686
vn 0.476028 0.449817 -0.755686
vn 0.410959 0.357598 -0.838592
vn 0.410959 0.357598 -0.838592
vn 0.410959 0.357598 -0.838592
vn 0.476032 0.449815 0.755685
vn 0.476032 0.449815 0.755685
vn 0.476032 0.449815 0.755685
vn 0.410959 0.357589 0.838596
vn 0.410959 0.357589 0.838596
vn 0.410959 0.357589 0.838596
vn 0.398038 0.665053 -0.631879
vn 0.398038 0.665053 -0.631879
vn 0.398038 0.665053 -0.631879
vn 0.398039 0.665053 -0.631878
vn 0.398039 0.665053 -0.631878
vn 0.398039 0.665053 -0.631878
vn 0.398039 0.665056 0.631875
vn 0.398039 0.665056 0.631875
vn 0.398039 0.665056 0.631875
vn 0.398037 0.665057 0.631874
vn 0.398037 0.665057 0.631874
vn 0.398037 0.665057 0.631874
vn 0.532994 0.000000 -0.846119
vn 0.532994 0.000000 -0.846119
vn 0.532994 0.000000 -0.846119
vn 0.532994 0.000000 -0.846119
vn 0.532994 0.000000 -0.846119
vn 0.532994 0.000000 -0.846119
vn 0.532996 0.000000 0.846118
vn 0.532996 0.000000 0.846118
vn 0.532996 0.000000 0.846118
vn 0.532995 0.000000 0.846118
vn 0.532995 0.000000 0.846118
vn 0.532995 0.000000 0.846118
vn 0.000000 -1.000000 0.000000
vn 0.000000 -1.000000 0.000000
vn 0.000000 -1.000000 0.000000
vn -0.000000 -1.000000 0.000000
vn -0.000000 -1.000000 0.000000
vn -0.000000 -1.000000 0.000000
vn -1.000000 0.000000 -0.000000
vn -1.000000 0.000000 -0.000000
vn -1.000000 0.000000 -0.000000
vn -1.000000 0.000000 -0.000001
vn -1.000000 0.000000 -0.000001
vn -1.000000 0.000000 -0.000001
vn -0.696171 -0.717876 -0.000001
vn -0.696171 -0.717876 -0.000001
vn -0.696172 -0.717876 -0.000001
vn -0.696169 -0.717878 -0.000000
vn -0.696169 -0.717878 -0.000000
vn -0.696169 -0.717878 -0.000000
vn -0.988247 0.152864 -0.000001
vn -0.988247 0.152864 -0.000001
vn -0.988247 0.152864 -0.000001
vn -0.988248 0.152862 -0.000000
vn -0.988248 0.152862 -0.000000
vn -0.988248 0.152862 -0.000000
vn 0.000000 1.000000 -0.000000
vn 0.000000 1.000000 -0.000000
vn 0.000000 1.000000 -0.000000
vn 0.000000 1.000000 0.000000
vn 0.000000 1.000000 0.000000
vn 0.000000 1.000000 0.000000
f 6/126/1 10/124/2 5/57/3
f 5/57/4 10/124/5 9/56/6
f 12/47/7 11/123/8 8/129/9
f 8/129/10 11/123/11 7/127/12
f 38/117/13 12/4/14 37/65/15
f 37/65/16 12/4/17 8/48/18
f 12/4/19 38/117/20 1/7/21
f 1/7/22 38/117/23 39/116/24
f 3/121/25 2/6/26 10/124/27
f 10/124/28 2/6/29 9/56/30
f 1/46/31 4/119/32 12/47/33
f 12/47/34 4/119/35 11/123/36
f 3/121/37 35/9/38 2/6/39
f 2/6/40 35/9/41 36/49/42
f 1/46/43 33/40/44 4/119/45
f 4/119/46 33/40/47 34/120/48
f 40/115/49 33/11/50 39/116/51
f 39/116/52 33/11/53 1/7/54
f 17/17/55 13/45/56 18/36/57
f 18/36/58 13/45/59 16/14/60
f 15/13/61 19/61/62 16/37/63
f 16/37/64 19/61/65 18/18/66
f 20/53/67 19/19/68 14/16/69
f 14/16/70 19/19/71 15/62/72
f 13/15/73 17/44/74 45/111/75
f 45/111/76 17/44/77 44/110/78
f 21/21/79 17/17/80 22/35/81
f 22/35/82 17/17/83 18/36/84
f 19/61/85 23/60/86 18/18/87
f 18/18/88 23/60/89 22/22/90
f 24/52/91 23/23/92 20/53/93
f 20/53/94 23/23/95 19/19/96
f 44/110/97 17/44/98 43/112/99
f 43/112/100 17/44/101 21/43/102
f 25/25/103 21/21/104 26/34/105
f 26/34/106 21/21/107 22/35/108
f 23/60/109 27/59/110 22/22/111
f 22/22/112 27/59/113 26/26/114
f 28/51/115 27/27/116 24/52/117
f 24/52/118 27/27/119 23/23/120
f 21/43/121 25/42/122 43/112/123
f 43/112/124 25/42/125 42/113/126
f 29/29/127 25/25/128 30/33/129
f 30/33/130 25/25/131 26/34/132
f 27/59/133 31/58/134 26/26/135
f 26/26/136 31/58/137 30/30/138
f 32/50/139 31/31/140 28/51/141
f 28/51/142 31/31/143 27/27/144
f 42/113/145 25/42/146 41/114/147
f 41/114/148 25/42/149 29/41/150
f 33/40/151 29/29/152 34/120/153
f 34/120/154 29/29/155 30/33/156
f 31/58/157 35/122/158 30/30/159
f 30/30/160 35/122/161 34/12/162
f 36/49/163 35/9/164 32/50/165
f 32/50/166 35/9/167 31/31/168
f 29/41/169 33/11/170 41/114/171
f 41/114/172 33/11/173 40/115/174
f 56/86/175 55/83/176 58/85/177
f 58/85/178 55/83/179 57/84/180
f 59/87/181 55/83/182 60/88/183
f 60/88/184 55/83/185 56/86/186
f 61/90/187 62/89/188 60/88/189
f 60/88/190 62/89/191 59/87/192
f 63/92/193 64/91/194 61/90/195
f 61/90/196 64/91/197 62/89/198
f 65/94/199 66/93/200 63/92/201
f 63/92/202 66/93/203 64/91/204
f 67/96/205 68/95/206 65/94/207
f 65/94/208 68/95/209 66/93/210
f 69/98/211 70/97/212 67/96/213
f 67/96/214 70/97/215 68/95/216
f 71/99/217 70/97/218 72/100/219
f 72/100/220 70/97/221 69/98/222
f 9/2/223 47/108/224 5/3/225
f 5/3/226 47/108/227 46/109/228
f 48/107/229 47/108/230 2/55/231
f 2/55/232 47/108/233 9/2/234
f 36/10/235 49/106/236 2/55/237
f 2/55/238 49/106/239 48/107/240
f 32/32/241 50/105/242 36/10/243
f 36/10/244 50/105/245 49/106/246
f 28/28/247 51/104/248 32/32/249
f 32/32/250 51/104/251 50/105/252
f 24/24/253 52/103/254 28/28/255
f 28/28/256 52/103/257 51/104/258
f 20/20/259 53/101/260 24/24/261
f 24/24/262 53/101/263 52/103/264
f 54/82/265 53/101/266 14/54/267
f 14/54/268 53/101/269 20/20/270
f 37/118/271 57/84/272 38/66/273
f 38/66/274 57/84/275 55/83/276
f 37/118/277 46/74/278 57/84/279
f 57/84/280 46/74/281 58/85/282
f 46/74/283 47/75/284 58/85/285
f 58/85/286 47/75/287 56/86/288
f 39/67/289 38/66/290 59/87/291
f 59/87/292 38/66/293 55/83/294
f 48/76/295 60/88/296 47/75/297
f 47/75/298 60/88/299 56/86/300
f 40/68/301 39/67/302 62/89/303
f 62/89/304 39/67/305 59/87/306
f 48/76/307 49/77/308 60/88/309
f 60/88/310 49/77/311 61/90/312
f 40/68/313 62/89/314 41/69/315
f 41/69/316 62/89/317 64/91/318
f 49/77/319 50/78/320 61/90/321
f 61/90/322 50/78/323 63/92/324
f 42/70/325 41/69/326 66/93/327
f 66/93/328 41/69/329 64/91/330
f 50/78/331 51/79/332 63/92/333
f 63/92/334 51/79/335 65/94/336
f 43/71/337 42/70/338 68/95/339
f 68/95/340 42/70/341 66/93/342
f 52/80/343 67/96/344 51/79/345
f 51/79/346 67/96/347 65/94/348
f 43/71/349 68/95/350 44/72/351
f 44/72/352 68/95/353 70/97/354
f 52/80/355 53/81/356 67/96/357
f 67/96/358 53/81/359 69/98/360
f 45/73/361 44/72/362 71/99/363
f 71/99/364 44/72/365 70/97/366
f 53/81/367 54/102/368 69/98/369
f 69/98/370 54/102/371 72/100/372
f 54/102/373 45/73/374 72/100/375
f 72/100/376 45/73/377 71/99/378
f 35/122/379 3/63/380 34/12/381
f 34/12/382 3/63/383 4/8/384
f 3/63/385 10/64/386 4/8/387
f 4/8/388 10/64/389 11/39/390
f 10/64/391 6/1/392 11/39/393
f 11/39/394 6/1/395 7/38/396
f 6/125/397 5/130/398 7/128/399
f 7/128/400 5/130/401 8/5/402
