# This file uses centimeters as units for non-parametric coordinates.

v 0.351386 0.985066 0.939505
v 0.658285 0.985066 0.939505
v 0.351386 1.346881 0.939505
v 0.658285 1.346881 0.939505
v 0.321916 1.346881 0.627151
v 0.705083 1.346881 0.630205
v 0.330368 0.985066 0.626592
v 0.695546 0.985066 0.631585
v 0.297678 1.410198 0.786055
v 0.728061 1.165973 0.580419
v 0.516434 0.921748 0.578438
v 0.281556 1.165973 0.574189
v 0.711992 0.921748 0.786055
v 0.297678 0.921748 0.786055
v 0.504835 0.921748 0.993212
v 0.711992 1.165973 0.993212
v 0.504835 1.410198 0.993212
v 0.297678 1.165973 0.993212
v 0.711992 1.410198 0.786055
v 0.552098 1.293873 0.433114
v 0.504835 1.165973 1.062264
v 0.504835 1.491606 0.786055
v 0.552389 1.165973 0.395667
v 0.504835 0.840340 0.786055
v 0.781044 1.165973 0.786055
v 0.228626 1.165973 0.786055
v 0.671308 1.347513 0.531524
v 0.674744 1.191854 0.476878
v 0.630831 1.014222 0.614584
v 0.642940 0.894612 0.786055
v 0.607135 0.963960 0.957407
v 0.642940 1.165973 1.016229
v 0.607135 1.367986 0.957407
v 0.642940 1.437334 0.786055
v 0.574706 1.288345 0.404555
v 0.566520 1.191854 0.349941
v 0.574595 0.999019 0.596677
v 0.573887 0.867476 0.786055
v 0.555985 0.942854 0.975309
v 0.573887 1.165973 1.039247
v 0.555985 1.389092 0.975309
v 0.573887 1.464470 0.786055
v 0.450750 1.389092 0.594544
v 0.450750 0.942854 0.594544
v 0.435783 0.867476 0.786055
v 0.453685 0.942854 0.975309
v 0.435783 1.165973 1.039247
v 0.453685 1.389092 0.975309
v 0.435783 1.464470 0.786055
v 0.390497 1.367986 0.610588
v 0.391879 0.963960 0.610513
v 0.366731 0.894612 0.786055
v 0.402536 0.963960 0.957407
v 0.366731 1.165973 1.016229
v 0.402536 1.367986 0.957407
v 0.366731 1.437334 0.786055
v 0.627604 1.262995 0.379763
v 0.654449 1.253868 0.397646
v 0.674016 1.191854 0.342912
v 0.600687 1.191854 0.318524
v 0.604886 0.999019 0.463661
v 0.670609 1.014222 0.481373
v 0.610038 1.197090 0.235487
v 0.636487 1.193720 0.252846
v 0.632770 1.161467 0.197745
v 0.615523 1.161467 0.175395
v 0.622563 1.090273 0.319385
v 0.653540 1.095886 0.336744
v 0.400521 1.243274 0.449862
v 0.443823 1.252292 0.434107
v 0.414766 1.165973 0.377852
v 0.373475 1.165973 0.397974
v 0.444553 1.079654 0.434107
v 0.405631 1.088673 0.449816
v 0.474345 1.261310 0.418399
v 0.539154 1.270329 0.403982
v 0.538475 1.165973 0.338899
v 0.474906 1.070636 0.418399
v 0.532281 1.061617 0.403726
v 0.506647 1.216175 0.290427
v 0.560104 1.220924 0.275541
v 0.562319 1.165973 0.210459
v 0.507637 1.115771 0.290427
v 0.560722 1.111022 0.275541
v 0.481210 1.211426 0.306350
v 0.466686 1.165973 0.250243
v 0.482039 1.120520 0.306350
v 0.489929 1.187628 0.149367
v 0.500889 1.189676 0.142499
v 0.502364 1.165973 0.114426
v 0.489861 1.144319 0.149367
v 0.500812 1.142270 0.142499
v 0.479032 1.185579 0.156235
v 0.472711 1.165973 0.132034
v 0.478973 1.146367 0.156235
v 0.389509 1.226840 0.310812
v 0.405472 1.231518 0.302664
v 0.395631 1.186748 0.273487
v 0.373977 1.186748 0.283923
v 0.525248 1.187628 0.063553
v 0.533947 1.189676 0.061558
v 0.542755 1.165973 0.035951
v 0.531097 1.165973 0.038217
v 0.525184 1.144319 0.063553
v 0.533876 1.142270 0.061558
v 0.516583 1.185579 0.065547
v 0.519491 1.165973 0.040483
v 0.516526 1.146367 0.065547
vt 0.375000 0.000000
vt 0.375000 1.000000
vt 0.625000 0.000000
vt 0.625000 1.000000
vt 0.375000 0.250000
vt 0.625000 0.250000
vt 0.375000 0.500000
vt 0.125000 0.250000
vt 0.625000 0.500000
vt 0.875000 0.250000
vt 0.375000 0.750000
vt 0.125000 0.000000
vt 0.625000 0.750000
vt 0.875000 0.000000
vt 0.500000 0.125000
vt 0.500000 0.375000
vt 0.500000 0.625000
vt 0.500000 0.875000
vt 0.750000 0.125000
vt 0.250000 0.125000
vt 0.500000 0.000000
vt 0.500000 1.000000
vt 0.625000 0.125000
vt 0.500000 0.250000
vt 0.375000 0.125000
vt 0.625000 0.375000
vt 0.750000 0.250000
vt 0.500000 0.500000
vt 0.375000 0.375000
vt 0.250000 0.250000
vt 0.625000 0.625000
vt 0.875000 0.125000
vt 0.500000 0.750000
vt 0.375000 0.625000
vt 0.125000 0.125000
vt 0.625000 0.875000
vt 0.750000 0.000000
vt 0.375000 0.875000
vt 0.250000 0.000000
vt 0.583333 0.500000
vt 0.583333 0.625000
vt 0.583333 0.750000
vt 0.583333 0.875000
vt 0.583333 0.000000
vt 0.583333 1.000000
vt 0.583333 0.125000
vt 0.583333 0.250000
vt 0.583333 0.375000
vt 0.541667 0.500000
vt 0.541667 0.625000
vt 0.541667 0.750000
vt 0.541667 0.875000
vt 0.541667 0.000000
vt 0.541667 1.000000
vt 0.541667 0.125000
vt 0.541667 0.250000
vt 0.541667 0.375000
vt 0.458333 0.500000
vt 0.458333 0.625000
vt 0.458333 0.750000
vt 0.458333 0.875000
vt 0.458333 0.000000
vt 0.458333 1.000000
vt 0.458333 0.125000
vt 0.458333 0.250000
vt 0.458333 0.375000
vt 0.416667 0.500000
vt 0.416667 0.625000
vt 0.416667 0.750000
vt 0.416667 0.875000
vt 0.416667 0.000000
vt 0.416667 1.000000
vt 0.416667 0.125000
vt 0.416667 0.250000
vt 0.416667 0.375000
vt 0.541667 0.500000
vt 0.583333 0.500000
vt 0.583333 0.625000
vt 0.541667 0.625000
vt 0.541667 0.750000
vt 0.583333 0.750000
vt 0.541667 0.500000
vt 0.583333 0.500000
vt 0.583333 0.625000
vt 0.541667 0.625000
vt 0.541667 0.750000
vt 0.583333 0.750000
vt 0.375000 0.500000
vt 0.416667 0.500000
vt 0.375000 0.625000
vt 0.416667 0.750000
vt 0.375000 0.750000
vt 0.458333 0.500000
vt 0.500000 0.500000
vt 0.500000 0.625000
vt 0.500000 0.750000
vt 0.458333 0.750000
vt 0.458333 0.500000
vt 0.500000 0.500000
vt 0.500000 0.625000
vt 0.500000 0.750000
vt 0.458333 0.750000
vt 0.416667 0.500000
vt 0.416667 0.625000
vt 0.416667 0.750000
vt 0.458333 0.500000
vt 0.500000 0.500000
vt 0.500000 0.625000
vt 0.500000 0.750000
vt 0.458333 0.750000
vt 0.416667 0.500000
vt 0.416667 0.625000
vt 0.416667 0.750000
vt 0.375000 0.500000
vt 0.416667 0.500000
vt 0.416667 0.625000
vt 0.375000 0.625000
vt 0.458333 0.500000
vt 0.500000 0.500000
vt 0.500000 0.625000
vt 0.500000 0.750000
vt 0.458333 0.750000
vt 0.416667 0.500000
vt 0.416667 0.625000
vt 0.416667 0.750000
vn -0.355983 -0.339117 0.870790
vn -0.355983 -0.339117 0.870790
vn -0.355983 -0.339117 0.870790
vn -0.355983 -0.339117 0.870790
vn 0.352353 -0.268607 0.896492
vn 0.352353 -0.268607 0.896492
vn 0.352353 -0.268607 0.896492
vn 0.352353 -0.268607 0.896492
vn 0.352353 0.268608 0.896492
vn 0.352353 0.268608 0.896492
vn 0.352353 0.268608 0.896492
vn 0.352353 0.268608 0.896492
vn -0.355983 0.339116 0.870791
vn -0.355983 0.339116 0.870791
vn -0.355983 0.339116 0.870791
vn -0.355983 0.339116 0.870791
vn -0.390243 0.809709 0.438272
vn -0.390243 0.809709 0.438272
vn -0.390243 0.809709 0.438272
vn -0.390243 0.809709 0.438272
vn 0.393282 0.848762 0.353458
vn 0.393282 0.848762 0.353458
vn 0.393282 0.848762 0.353458
vn 0.393282 0.848762 0.353458
vn 0.177976 0.881616 -0.437126
vn 0.177976 0.881616 -0.437126
vn 0.177976 0.881616 -0.437126
vn 0.177976 0.881616 -0.437126
vn -0.346085 0.853981 -0.388512
vn -0.346085 0.853981 -0.388512
vn -0.346085 0.853981 -0.388512
vn -0.346085 0.853981 -0.388512
vn -0.416641 0.584544 -0.696217
vn -0.416641 0.584544 -0.696217
vn -0.416641 0.584544 -0.696217
vn -0.416641 0.584544 -0.696217
vn -0.899533 0.192534 -0.392136
vn -0.899533 0.192534 -0.392136
vn -0.899533 0.192534 -0.392136
vn -0.899533 0.192534 -0.392136
vn 0.611910 -0.573889 -0.544260
vn 0.611910 -0.573889 -0.544260
vn 0.611910 -0.573889 -0.544260
vn 0.611910 -0.573889 -0.544260
vn -0.380302 -0.605721 -0.698908
vn -0.380302 -0.605721 -0.698908
vn -0.380302 -0.605721 -0.698908
vn -0.380302 -0.605721 -0.698908
vn -0.360747 -0.844151 -0.396575
vn -0.360747 -0.844151 -0.396575
vn -0.360747 -0.844151 -0.396575
vn -0.360747 -0.844150 -0.396575
vn 0.623029 -0.697175 -0.354657
vn 0.623029 -0.697175 -0.354657
vn 0.623029 -0.697175 -0.354657
vn 0.623029 -0.697175 -0.354657
vn 0.393285 -0.848761 0.353458
vn 0.393285 -0.848761 0.353458
vn 0.393285 -0.848761 0.353458
vn 0.393285 -0.848761 0.353458
vn -0.390244 -0.809708 0.438273
vn -0.390244 -0.809708 0.438273
vn -0.390244 -0.809708 0.438273
vn -0.390244 -0.809708 0.438273
vn 0.885574 -0.300465 0.354230
vn 0.885574 -0.300465 0.354230
vn 0.885574 -0.300465 0.354230
vn 0.885574 -0.300465 0.354230
vn 0.941033 -0.251987 -0.225742
vn 0.941033 -0.251987 -0.225742
vn 0.941033 -0.251987 -0.225742
vn 0.941033 -0.251987 -0.225742
vn 0.952942 0.229485 -0.198085
vn 0.952942 0.229485 -0.198085
vn 0.952942 0.229485 -0.198085
vn 0.952942 0.229485 -0.198085
vn 0.885574 0.300465 0.354230
vn 0.885574 0.300465 0.354230
vn 0.885574 0.300465 0.354230
vn 0.885574 0.300465 0.354230
vn -0.921342 -0.287666 -0.261492
vn -0.921342 -0.287666 -0.261492
vn -0.921342 -0.287666 -0.261492
vn -0.921342 -0.287666 -0.261492
vn -0.885574 -0.300466 0.354230
vn -0.885574 -0.300465 0.354230
vn -0.885574 -0.300466 0.354230
vn -0.885574 -0.300466 0.354230
vn -0.885574 0.300465 0.354230
vn -0.885574 0.300465 0.354230
vn -0.885574 0.300465 0.354230
vn -0.885574 0.300465 0.354230
vn -0.932458 0.269896 -0.240162
vn -0.932458 0.269896 -0.240162
vn -0.932458 0.269896 -0.240162
vn -0.932458 0.269896 -0.240162
vn 0.911082 0.185697 -0.368030
vn 0.911082 0.185697 -0.368030
vn 0.911082 0.185697 -0.368030
vn 0.911082 0.185697 -0.368030
vn 0.504408 -0.484151 -0.714962
vn 0.504408 -0.484151 -0.714962
vn 0.504408 -0.484151 -0.714962
vn 0.504408 -0.484151 -0.714962
vn 0.049419 -0.869129 -0.492111
vn 0.049419 -0.869129 -0.492111
vn 0.049419 -0.869129 -0.492111
vn 0.049419 -0.869129 -0.492110
vn 0.390243 -0.809707 0.438274
vn 0.390243 -0.809707 0.438274
vn 0.390243 -0.809707 0.438274
vn 0.390244 -0.809707 0.438274
vn 0.355983 -0.339117 0.870790
vn 0.355983 -0.339117 0.870790
vn 0.355983 -0.339117 0.870791
vn 0.355983 -0.339117 0.870790
vn 0.355983 0.339116 0.870791
vn 0.355983 0.339116 0.870791
vn 0.355983 0.339116 0.870791
vn 0.355983 0.339116 0.870791
vn 0.390242 0.809709 0.438272
vn 0.390242 0.809709 0.438272
vn 0.390242 0.809709 0.438272
vn 0.390242 0.809709 0.438272
vn 0.492566 0.823479 -0.281534
vn 0.492566 0.823479 -0.281534
vn 0.492566 0.823479 -0.281534
vn 0.492565 0.823479 -0.281534
vn 0.463197 0.766647 -0.444635
vn 0.463197 0.766647 -0.444635
vn 0.463197 0.766647 -0.444635
vn 0.463197 0.766647 -0.444635
vn 0.442029 -0.789830 -0.425181
vn 0.442029 -0.789830 -0.425181
vn 0.442029 -0.789830 -0.425181
vn 0.442029 -0.789830 -0.425181
vn 0.337302 -0.767640 -0.544937
vn 0.337302 -0.767640 -0.544937
vn 0.337302 -0.767640 -0.544937
vn 0.337302 -0.767640 -0.544937
vn 0.392330 -0.831958 0.392330
vn 0.392330 -0.831958 0.392330
vn 0.392330 -0.831958 0.392330
vn 0.392330 -0.831958 0.392330
vn 0.354230 -0.300465 0.885574
vn 0.354230 -0.300465 0.885574
vn 0.354230 -0.300465 0.885574
vn 0.354230 -0.300465 0.885574
vn 0.354230 0.300465 0.885574
vn 0.354230 0.300465 0.885574
vn 0.354230 0.300465 0.885574
vn 0.354230 0.300465 0.885574
vn 0.392331 0.831958 0.392330
vn 0.392331 0.831958 0.392330
vn 0.392331 0.831958 0.392330
vn 0.392331 0.831957 0.392330
vn 0.112797 0.918539 -0.378897
vn 0.112797 0.918539 -0.378897
vn 0.112797 0.918539 -0.378897
vn 0.112797 0.918539 -0.378897
vn -0.213238 0.698413 -0.683190
vn -0.213238 0.698413 -0.683190
vn -0.213238 0.698413 -0.683190
vn -0.213238 0.698413 -0.683190
vn -0.213345 -0.698083 -0.683494
vn -0.213345 -0.698083 -0.683494
vn -0.213345 -0.698083 -0.683494
vn -0.213345 -0.698083 -0.683494
vn -0.352275 -0.862881 -0.362406
vn -0.352275 -0.862881 -0.362406
vn -0.352275 -0.862881 -0.362406
vn -0.352275 -0.862881 -0.362406
vn -0.393285 -0.848761 0.353458
vn -0.393285 -0.848761 0.353458
vn -0.393285 -0.848761 0.353458
vn -0.393285 -0.848761 0.353458
vn -0.352353 -0.268607 0.896492
vn -0.352353 -0.268607 0.896492
vn -0.352353 -0.268608 0.896492
vn -0.352353 -0.268607 0.896492
vn -0.352353 0.268608 0.896492
vn -0.352353 0.268608 0.896492
vn -0.352353 0.268608 0.896492
vn -0.352353 0.268608 0.896492
vn -0.393282 0.848761 0.353459
vn -0.393282 0.848761 0.353459
vn -0.393282 0.848762 0.353459
vn -0.393282 0.848762 0.353459
vn -0.075340 0.887827 -0.453969
vn -0.075340 0.887827 -0.453969
vn -0.075340 0.887827 -0.453969
vn -0.075340 0.887827 -0.453969
vn -0.209331 0.738487 -0.640950
vn -0.209331 0.738487 -0.640950
vn -0.209331 0.738488 -0.640950
vn -0.209331 0.738488 -0.640950
vn -0.209438 -0.738211 -0.641234
vn -0.209438 -0.738211 -0.641234
vn -0.209438 -0.738211 -0.641234
vn -0.209438 -0.738211 -0.641234
vn -0.367704 -0.850710 -0.375615
vn -0.367704 -0.850710 -0.375615
vn -0.367704 -0.850710 -0.375615
vn -0.367704 -0.850710 -0.375615
vn -0.392330 -0.831958 0.392330
vn -0.392330 -0.831958 0.392330
vn -0.392330 -0.831958 0.392330
vn -0.392330 -0.831958 0.392330
vn -0.354230 -0.300465 0.885574
vn -0.354230 -0.300465 0.885574
vn -0.354230 -0.300465 0.885574
vn -0.354230 -0.300465 0.885574
vn -0.354230 0.300465 0.885574
vn -0.354230 0.300465 0.885574
vn -0.354230 0.300465 0.885574
vn -0.354230 0.300465 0.885574
vn -0.392331 0.831957 0.392330
vn -0.392331 0.831957 0.392330
vn -0.392331 0.831957 0.392330
vn -0.392331 0.831957 0.392330
vn -0.364538 0.852486 -0.374673
vn -0.364538 0.852486 -0.374673
vn -0.364538 0.852486 -0.374673
vn -0.364538 0.852486 -0.374673
vn 0.297903 0.794946 -0.528503
vn 0.297903 0.794946 -0.528503
vn 0.297903 0.794946 -0.528503
vn 0.297903 0.794946 -0.528503
vn 0.978797 0.164659 -0.121840
vn 0.978797 0.164659 -0.121840
vn 0.978797 0.164659 -0.121840
vn 0.978796 0.164659 -0.121840
vn -0.313759 0.583426 -0.749112
vn -0.313759 0.583426 -0.749112
vn -0.313759 0.583426 -0.749112
vn -0.313759 0.583426 -0.749112
vn -0.864294 -0.371762 -0.338805
vn -0.864294 -0.371762 -0.338805
vn -0.864294 -0.371762 -0.338805
vn -0.864294 -0.371762 -0.338805
vn 0.989302 -0.019375 0.144591
vn 0.989302 -0.019375 0.144591
vn 0.989302 -0.019375 0.144591
vn 0.989302 -0.019375 0.144591
vn 0.225161 -0.972518 0.059261
vn 0.225161 -0.972518 0.059261
vn 0.225161 -0.972518 0.059261
vn 0.225161 -0.972518 0.059261
vn 0.452770 0.795577 -0.402562
vn 0.452770 0.795577 -0.402562
vn 0.452770 0.795577 -0.402562
vn 0.452770 0.795577 -0.402562
vn 0.798065 0.509333 -0.321982
vn 0.798065 0.509333 -0.321982
vn 0.798065 0.509333 -0.321982
vn 0.798065 0.509333 -0.321982
vn -0.952255 0.292098 -0.088821
vn -0.952255 0.292097 -0.088821
vn -0.952255 0.292097 -0.088821
vn -0.952255 0.292097 -0.088821
vn -0.965723 -0.209275 -0.153569
vn -0.965723 -0.209275 -0.153569
vn -0.965723 -0.209275 -0.153569
vn -0.965723 -0.209275 -0.153569
vn 0.955592 -0.189368 -0.225796
vn 0.955592 -0.189368 -0.225796
vn 0.955592 -0.189368 -0.225796
vn 0.955592 -0.189368 -0.225796
vn 0.347694 -0.804836 -0.480986
vn 0.347694 -0.804836 -0.480986
vn 0.347694 -0.804836 -0.480986
vn 0.347694 -0.804836 -0.480986
vn -0.364108 0.724690 -0.585021
vn -0.364108 0.724690 -0.585021
vn -0.364108 0.724690 -0.585021
vn -0.364108 0.724690 -0.585021
vn -0.773485 0.401175 -0.490693
vn -0.773485 0.401175 -0.490693
vn -0.773485 0.401175 -0.490693
vn -0.773485 0.401175 -0.490693
vn -0.397163 -0.708252 -0.583643
vn -0.397163 -0.708253 -0.583643
vn -0.397163 -0.708252 -0.583643
vn -0.397163 -0.708252 -0.583643
vn -0.758167 -0.434158 -0.486509
vn -0.758167 -0.434158 -0.486509
vn -0.758167 -0.434158 -0.486509
vn -0.758167 -0.434158 -0.486509
vn -0.215873 0.780566 -0.586614
vn -0.215873 0.780566 -0.586614
vn -0.215873 0.780566 -0.586614
vn -0.215873 0.780566 -0.586614
vn 0.932417 0.144640 -0.331176
vn 0.932417 0.144640 -0.331176
vn 0.932417 0.144640 -0.331176
vn 0.932417 0.144640 -0.331176
vn 0.974311 -0.196263 -0.110451
vn 0.974311 -0.196263 -0.110451
vn 0.974311 -0.196263 -0.110451
vn 0.974311 -0.196263 -0.110451
vn -0.328452 -0.732528 -0.596257
vn -0.328452 -0.732528 -0.596257
vn -0.328452 -0.732528 -0.596257
vn -0.328452 -0.732528 -0.596257
vn -0.431717 0.695487 -0.574385
vn -0.431717 0.695487 -0.574385
vn -0.431717 0.695487 -0.574385
vn -0.431717 0.695487 -0.574385
vn -0.437464 -0.692532 -0.573606
vn -0.437464 -0.692532 -0.573606
vn -0.437464 -0.692533 -0.573606
vn -0.437464 -0.692532 -0.573606
vn -0.198341 0.905531 -0.375065
vn -0.198341 0.905531 -0.375065
vn -0.198341 0.905531 -0.375065
vn -0.198341 0.905531 -0.375065
vn 0.968212 -0.152601 0.198187
vn 0.968212 -0.152601 0.198187
vn 0.968212 -0.152601 0.198187
vn 0.968212 -0.152601 0.198187
vn 0.965619 0.134291 0.222589
vn 0.965619 0.134291 0.222589
vn 0.965619 0.134291 0.222589
vn 0.965619 0.134291 0.222589
vn -0.214443 -0.898578 -0.382847
vn -0.214443 -0.898578 -0.382847
vn -0.214443 -0.898578 -0.382847
vn -0.214443 -0.898578 -0.382847
vn -0.421902 0.818381 -0.390194
vn -0.421902 0.818381 -0.390193
vn -0.421902 0.818381 -0.390194
vn -0.421902 0.818381 -0.390194
vn -0.756389 0.550900 -0.352684
vn -0.756389 0.550900 -0.352683
vn -0.756389 0.550900 -0.352683
vn -0.756389 0.550900 -0.352683
vn -0.751424 -0.557862 -0.352352
vn -0.751424 -0.557862 -0.352352
vn -0.751424 -0.557862 -0.352352
vn -0.751424 -0.557862 -0.352352
vn -0.422261 -0.817824 -0.390972
vn -0.422261 -0.817824 -0.390972
vn -0.422261 -0.817824 -0.390972
vn -0.422261 -0.817824 -0.390972
vn -0.159402 0.972804 -0.168058
vn -0.159402 0.972804 -0.168058
vn -0.159402 0.972804 -0.168058
vn -0.159402 0.972804 -0.168058
vn 0.703615 0.556430 -0.441941
vn 0.703615 0.556430 -0.441941
vn 0.703615 0.556430 -0.441941
vn 0.703615 0.556430 -0.441941
vn 0.704139 -0.554098 -0.444031
vn 0.704139 -0.554098 -0.444031
vn 0.704139 -0.554098 -0.444031
vn 0.704139 -0.554098 -0.444031
vn -0.159971 -0.972909 -0.166903
vn -0.159971 -0.972909 -0.166903
vn -0.159971 -0.972909 -0.166903
vn -0.159971 -0.972909 -0.166903
vn -0.277031 0.947607 -0.159046
vn -0.277031 0.947607 -0.159046
vn -0.277031 0.947607 -0.159046
vn -0.277031 0.947607 -0.159046
vn -0.932553 0.357850 -0.047839
vn -0.932553 0.357850 -0.047839
vn -0.932553 0.357850 -0.047839
vn -0.932553 0.357850 -0.047839
vn -0.929897 -0.365006 -0.045416
vn -0.929897 -0.365006 -0.045416
vn -0.929897 -0.365006 -0.045416
vn -0.929897 -0.365006 -0.045416
vn -0.275064 -0.948439 -0.157491
vn -0.275064 -0.948439 -0.157491
vn -0.275064 -0.948439 -0.157491
vn -0.275064 -0.948439 -0.157491
vn -0.256950 0.962633 -0.085524
vn -0.256950 0.962633 -0.085524
vn -0.256950 0.962633 -0.085524
vn -0.256950 0.962633 -0.085524
vn 0.962948 -0.132748 -0.234753
vn 0.962948 -0.132748 -0.234753
vn 0.962948 -0.132748 -0.234753
vn 0.962948 -0.132748 -0.234753
vn -0.086907 -0.980002 -0.179009
vn -0.086907 -0.980002 -0.179009
vn -0.086907 -0.980002 -0.179009
vn -0.086907 -0.980002 -0.179009
vn -0.948388 0.313938 0.044767
vn -0.948388 0.313938 0.044767
vn -0.948388 0.313938 0.044767
vn -0.948388 0.313938 0.044767
vn -0.246417 0.963882 -0.101043
vn -0.246417 0.963882 -0.101043
vn -0.246417 0.963882 -0.101043
vn -0.246417 0.963882 -0.101043
vn 0.875312 -0.266801 0.403295
vn 0.875312 -0.266801 0.403295
vn 0.875312 -0.266801 0.403295
vn 0.875312 -0.266801 0.403295
vn 0.875928 0.264289 0.403611
vn 0.875928 0.264289 0.403611
vn 0.875928 0.264289 0.403611
vn 0.875928 0.264289 0.403611
vn -0.246660 -0.963809 -0.101154
vn -0.246660 -0.963809 -0.101154
vn -0.246660 -0.963809 -0.101154
vn -0.246660 -0.963809 -0.101154
vn -0.248144 0.963291 -0.102448
vn -0.248144 0.963291 -0.102448
vn -0.248144 0.963291 -0.102448
vn -0.248144 0.963291 -0.102448
vn -0.775933 0.518653 -0.359064
vn -0.775933 0.518653 -0.359064
vn -0.775933 0.518653 -0.359064
vn -0.775933 0.518653 -0.359064
vn -0.776843 -0.516991 -0.359495
vn -0.776843 -0.516991 -0.359495
vn -0.776842 -0.516990 -0.359495
vn -0.776843 -0.516990 -0.359495
vn -0.248388 -0.963217 -0.102554
vn -0.248388 -0.963217 -0.102554
vn -0.248388 -0.963216 -0.102554
vn -0.248388 -0.963217 -0.102554
f 1/1/1 53/71/2 54/73/3 18/25/4
f 15/21/5 39/53/6 40/55/7 21/15/8
f 21/15/9 40/55/10 41/56/11 17/24/12
f 18/25/13 54/73/14 55/74/15 3/5/16
f 3/5/17 55/74/18 56/75/19 9/29/20
f 17/24/21 41/56/22 42/57/23 22/16/24
f 22/16/25 42/57/26 35/49/27 20/28/28
f 9/29/29 56/75/30 50/67/31 5/7/32
f 96/114/33 97/115/34 98/116/35 99/117/36
f 20/28/37 35/49/38 36/50/39 23/17/40
f 23/17/41 36/50/42 37/51/43 11/33/44
f 72/90/45 71/68/46 73/91/47 74/92/48
f 7/11/49 51/69/50 52/70/51 14/38/52
f 11/33/53 37/51/54 38/52/55 24/18/56
f 24/18/57 38/52/58 39/54/59 15/22/60
f 14/38/61 52/70/62 53/72/63 1/2/64
f 2/3/65 13/37/66 25/19/67 16/23/68
f 13/37/69 8/14/70 10/32/71 25/19/72
f 25/19/73 10/32/74 6/10/75 19/27/76
f 16/23/77 25/19/78 19/27/79 4/6/80
f 7/12/81 14/39/82 26/20/83 12/35/84
f 14/39/85 1/1/86 18/25/87 26/20/88
f 26/20/89 18/25/90 3/5/91 9/30/92
f 12/35/93 26/20/94 9/30/95 5/8/96
f 27/40/97 6/9/98 10/31/99 28/41/100
f 29/42/101 28/41/102 10/31/103 8/13/104
f 30/43/105 29/42/106 8/13/107 13/36/108
f 31/45/109 30/43/110 13/36/111 2/4/112
f 32/46/113 31/44/114 2/3/115 16/23/116
f 33/47/117 32/46/118 16/23/119 4/6/120
f 34/48/121 33/47/122 4/6/123 19/26/124
f 27/40/125 34/48/126 19/26/127 6/9/128
f 63/82/129 64/83/130 65/84/131 66/85/132
f 67/86/133 66/85/134 65/84/135 68/87/136
f 38/52/137 37/51/138 29/42/139 30/43/140
f 39/54/141 38/52/142 30/43/143 31/45/144
f 40/55/145 39/53/146 31/44/147 32/46/148
f 41/56/149 40/55/150 32/46/151 33/47/152
f 42/57/153 41/56/154 33/47/155 34/48/156
f 35/49/157 42/57/158 34/48/159 27/40/160
f 100/118/161 101/119/162 102/120/163 103/59/164
f 104/122/165 103/59/166 102/120/167 105/121/168
f 45/61/169 44/60/170 11/33/171 24/18/172
f 46/63/173 45/61/174 24/18/175 15/22/176
f 47/64/177 46/62/178 15/21/179 21/15/180
f 48/65/181 47/64/182 21/15/183 17/24/184
f 49/66/185 48/65/186 17/24/187 22/16/188
f 43/58/189 49/66/190 22/16/191 20/28/192
f 106/123/193 100/118/194 103/59/195 107/124/196
f 108/125/197 107/124/198 103/59/199 104/122/200
f 52/70/201 51/69/202 44/60/203 45/61/204
f 53/72/205 52/70/206 45/61/207 46/63/208
f 54/73/209 53/71/210 46/62/211 47/64/212
f 55/74/213 54/73/214 47/64/215 48/65/216
f 56/75/217 55/74/218 48/65/219 49/66/220
f 50/67/221 56/75/222 49/66/223 43/58/224
f 35/49/225 27/40/226 58/77/227 57/76/228
f 27/40/229 28/41/230 59/78/231 58/77/232
f 36/50/233 35/49/234 57/76/235 60/79/236
f 37/51/237 36/50/238 60/79/239 61/80/240
f 28/41/241 29/42/242 62/81/243 59/78/244
f 29/42/245 37/51/246 61/80/247 62/81/248
f 57/76/249 58/77/250 64/83/251 63/82/252
f 58/77/253 59/78/254 65/84/255 64/83/256
f 60/79/257 57/76/258 63/82/259 66/85/260
f 61/80/261 60/79/262 66/85/263 67/86/264
f 59/78/265 62/81/266 68/87/267 65/84/268
f 62/81/269 61/80/270 67/86/271 68/87/272
f 5/7/273 50/67/274 70/89/275 69/88/276
f 12/34/277 5/7/278 69/88/279 72/90/280
f 51/69/281 7/11/282 74/92/283 73/91/284
f 7/11/285 12/34/286 72/90/287 74/92/288
f 43/58/289 20/28/290 76/94/291 75/93/292
f 20/28/293 23/17/294 77/95/295 76/94/296
f 23/17/297 11/33/298 79/96/299 77/95/300
f 11/33/301 44/60/302 78/97/303 79/96/304
f 50/67/305 43/58/306 75/93/307 70/89/308
f 44/60/309 51/69/310 73/91/311 78/97/312
f 75/93/313 76/94/314 81/99/315 80/98/316
f 76/94/317 77/95/318 82/100/319 81/99/320
f 77/95/321 79/96/322 84/101/323 82/100/324
f 79/96/325 78/97/326 83/102/327 84/101/328
f 70/89/329 75/93/330 80/98/331 85/103/332
f 71/68/333 70/89/334 85/103/335 86/104/336
f 73/91/337 71/68/338 86/104/339 87/105/340
f 78/97/341 73/91/342 87/105/343 83/102/344
f 80/98/345 81/99/346 89/107/347 88/106/348
f 81/99/349 82/100/350 90/108/351 89/107/352
f 82/100/353 84/101/354 92/109/355 90/108/356
f 84/101/357 83/102/358 91/110/359 92/109/360
f 85/103/361 80/98/362 88/106/363 93/111/364
f 86/104/365 85/103/366 93/111/367 94/112/368
f 87/105/369 86/104/370 94/112/371 95/113/372
f 83/102/373 87/105/374 95/113/375 91/110/376
f 69/88/377 70/89/378 97/115/379 96/114/380
f 70/89/381 71/68/382 98/116/383 97/115/384
f 71/68/385 72/90/386 99/117/387 98/116/388
f 72/90/389 69/88/390 96/114/391 99/117/392
f 88/106/393 89/107/394 101/119/395 100/118/396
f 89/107/397 90/108/398 102/120/399 101/119/400
f 90/108/401 92/109/402 105/121/403 102/120/404
f 92/109/405 91/110/406 104/122/407 105/121/408
f 93/111/409 88/106/410 100/118/411 106/123/412
f 94/112/413 93/111/414 106/123/415 107/124/416
f 95/113/417 94/112/418 107/124/419 108/125/420
f 91/110/421 95/113/422 108/125/423 104/122/424
